<svg xmlns="http://www.w3.org/2000/svg" width="610" height="484" fill="none" viewBox="0 0 610 484"><path fill="#632DAA" fill-opacity=".5" d="M535.571 141.862c-18.057-34.595-41.127-66.974-69.943-93.562-23.936-22.065-52.486-40.045-84.934-45.872a140.065 140.065 0 0 0-44.104-.607c-14.622 2.062-29.867 5.49-42.463 13.551-26.634 17.06-30.283 51.342-30.709 80.174-.432 34.885 4.069 69.698 6.99 104.352 1.529 17.393 2.753 34.784 2.859 52.207a433.407 433.407 0 0 1-4.488 61.454c-2.816 20.642-5.892 41.253-10.357 61.768-3.648 16.944-8.232 33.911-15.796 49.588-9.913 20.575-25.279 38.841-46.318 48.589-20.452 9.449-43.598 9.657-65.181 4.302-28.114-6.964-53.72-22.393-76.217-40.258-6.597-5.225-12.936-10.749-19.112-16.451-.807-.748-1.858.606-1.064 1.344 22.384 20.683 47.644 39.228 76.109 50.58 21.408 8.474 44.905 12.874 67.652 8.174a89.23 89.23 0 0 0 52.014-33.034c19.257-24.586 26.864-55.996 32.475-86.101 7.261-39.117 13.063-79.042 11.953-118.909-.977-35.563-5.708-70.886-8.248-106.354a427.997 427.997 0 0 1-1.238-50.443c.659-13.778 2.251-27.823 7.071-40.755a58.904 58.904 0 0 1 35.608-35.206 141.352 141.352 0 0 1 44.276-8.222c33.191-1.13 64.718 10.856 91.3 30.272 29.899 21.826 54.404 50.903 74.047 82.031a375.789 375.789 0 0 1 16.102 28.062c.503.967 2.103.354 1.598-.636l.118-.038Z"/><path fill="#632DAA" fill-opacity=".5" d="M537.616 140.88c-16.564-29.411-36.957-56.805-61.911-79.656-21.521-19.759-46.541-36.123-74.857-43.99a143.553 143.553 0 0 0-43.738-5.018 168.118 168.118 0 0 0-43.776 7.176c-13.634 4.265-26.005 11.85-34.08 23.865-8.074 12.015-11.371 26.307-13.137 40.324-4.187 33.331-.452 67.428 2.048 100.764 2.5 33.337 4.646 67.093.816 100.664-1.983 17.3-5.033 34.455-8.321 51.552a437.453 437.453 0 0 1-12.492 51.986c-9.234 28.634-25.009 56.416-51.738 71.912-47.983 27.918-105.13 3.226-145.163-27.173a305.884 305.884 0 0 1-18.116-14.92c-.86-.681-1.925.663-1.065 1.344 37.376 33.062 89.455 64.65 141.467 51.797 26.261-6.486 47.22-24.608 60.895-47.559 17.394-29.189 23.74-63.894 29.81-96.87 3.118-16.882 5.895-33.859 7.424-50.972a382.255 382.255 0 0 0 .973-49.369c-1.287-33.819-5.386-67.373-6.256-101.168-.441-16.64-.209-33.468 2.743-49.892 2.633-15.057 8.096-30.234 19.62-40.917 11.057-10.177 25.681-14.643 40.112-17.512a167.462 167.462 0 0 1 46.441-2.922c63.903 5.62 114.945 55.41 148.24 106.625a373.767 373.767 0 0 1 12.656 20.959c.537.95 1.908-.063 1.413-1.067l-.008.037Z"/><path fill="#632DAA" fill-opacity=".5" d="M539.794 140.091c-31.042-50.83-77.562-99.29-137.677-112.756a157.096 157.096 0 0 0-43.847-3.223 192.784 192.784 0 0 0-42.251 6.962c-13.179 3.883-25.39 10.632-33.777 21.854-8.219 10.982-12.083 24.474-14.276 37.759-5.238 31.843-2.218 64.826-.431 96.855 1.831 32.829 3.026 65.438-1.913 98.064-2.501 16.627-6.019 33.105-9.817 49.492a377.54 377.54 0 0 1-14.072 48.571c-10.306 27.281-27.172 53.018-52.987 67.774-21.121 12.089-46.013 15.024-69.708 10.708-25.756-4.724-49.61-17.148-70.675-32.238-6.216-4.464-12.233-9.208-18.076-14.143-.86-.681-1.924.662-1.064 1.343 36.936 31.161 86.591 58.272 136.38 45.604 25.765-6.551 47.023-23.78 61.479-45.784 17.837-27.155 25.714-59.597 32.649-90.904 3.511-15.915 6.7-31.866 8.82-48.096a337.786 337.786 0 0 0 2.503-47.326c-.399-32.787-3.822-65.456-4.015-98.255-.083-16.181.564-32.594 4.034-48.431 3.125-14.297 8.965-28.432 20.292-38.177 10.819-9.295 24.766-13.487 38.529-16.12a201.06 201.06 0 0 1 46.68-3.914c62.329 2.886 114.226 46.27 148.684 95.3a380.968 380.968 0 0 1 13.232 20.147c.561.948 1.956-.068 1.427-1.056l-.123-.01Z"/><path fill="#632DAA" fill-opacity=".5" d="M541.958 139.291c-32.405-48.805-80.22-92.125-139.793-101.859a174.31 174.31 0 0 0-42.718-1.28 220.399 220.399 0 0 0-41.499 6.924c-12.449 3.543-24.255 9.585-32.666 19.65-8.724 10.407-13.152 23.781-15.715 36.926-5.932 30.484-3.598 62.29-2.582 93.139.517 15.717 1.021 31.422.398 47.198a297.661 297.661 0 0 1-5.408 46.467c-3.141 16.055-7.163 31.981-11.549 47.704a328.662 328.662 0 0 1-15.694 45.318c-11.573 26.038-29.674 49.965-55.076 63.758a107.17 107.17 0 0 1-66.85 11.158c-24.634-3.683-47.69-14.686-68.152-28.577-5.943-4.008-11.69-8.32-17.298-12.806a.859.859 0 0 0-1.204.139.856.856 0 0 0 .14 1.204c36.428 29.207 83.681 52.009 131.195 39.507 24.863-6.544 45.865-22.402 61.014-42.851 18.628-25.172 28.121-55.569 36.035-85.489 4.083-15.396 7.895-30.919 10.566-46.602a302.923 302.923 0 0 0 4.146-46.419c.507-31.501-2.244-63.003-1.595-94.436.343-15.035 1.375-30.223 5.037-44.838 3.472-13.934 9.756-27.498 21.177-36.644 10.808-8.648 24.412-12.544 37.806-14.988a250.669 250.669 0 0 1 44.246-4.485c28.785.099 57.034 7.79 81.895 22.298 27.179 15.626 50.606 37.616 69.547 62.482 4.577 6.009 9.01 12.144 13.181 18.444.607.918 2.002-.098 1.427-1.056l-.011.014Z"/><path fill="#632DAA" fill-opacity=".5" d="M544.123 138.491c-33.159-45.728-81.15-82.891-138.434-90.242a192.657 192.657 0 0 0-41.788-.412 277.25 277.25 0 0 0-41.258 6.371c-12.502 3.085-24.625 8.286-33.687 17.683-9.061 9.396-14.213 21.89-17.328 34.379-7.204 28.887-5.646 59.575-5.404 89.111.112 15.068.166 30.154-.854 45.244a272.428 272.428 0 0 1-7.017 44.909c-3.713 15.536-8.299 30.904-13.326 46.056a298.805 298.805 0 0 1-17.323 42.737c-12.581 24.495-31.093 46.567-55.528 59.857a111.413 111.413 0 0 1-64.985 12.723c-23.684-2.536-46.066-12.154-66.035-24.845-5.73-3.643-11.285-7.562-16.704-11.679-.86-.682-1.924.662-1.064 1.343 19.64 14.902 41.527 27.407 65.547 33.577a117.2 117.2 0 0 0 61.45-.282c23.963-6.842 44.741-21.893 60.329-41.185 18.957-23.49 29.881-51.966 38.835-80.494s16.372-57.878 17.916-88.121c1.543-30.243-.553-60.308.922-90.409 1.334-27.107 5.056-60.763 29.114-77.83 11.218-7.95 24.9-11.282 38.242-13.44a311.172 311.172 0 0 1 44.221-4.7 170.924 170.924 0 0 1 80.689 18.215 221.585 221.585 0 0 1 69.569 56.574c4.311 5.186 8.51 10.458 12.474 15.916a.89.89 0 0 0 .928.333.877.877 0 0 0 .663-.73.896.896 0 0 0-.164-.659Z"/><path fill="#632DAA" fill-opacity=".5" d="M546.277 137.704c-34.026-42.785-82.818-73.913-138.012-78.712a218.769 218.769 0 0 0-41.4.727 352.954 352.954 0 0 0-41.16 6.164c-11.877 2.684-23.656 7.063-32.911 15.214-9.508 8.386-15.414 20.065-19.114 32.024-8.533 27.637-7.722 57.559-8.369 86.172-.349 14.243-.751 28.553-2.297 42.788a248.19 248.19 0 0 1-9.023 43.605c-4.175 14.186-9.104 28.277-14.469 42.089a270.393 270.393 0 0 1-19.352 41.13c-13.905 23.075-32.416 43.682-56.387 56.553a116.453 116.453 0 0 1-62.827 13.863c-22.384-1.528-43.734-9.606-62.955-20.896-5.693-3.329-11.204-6.972-16.59-10.801-.86-.681-1.924.662-1.064 1.343 19.007 13.548 40.11 24.644 63.06 29.595a117.731 117.731 0 0 0 58.814-2.282c23.496-7.081 44.162-21.521 60.248-39.895 19.235-21.936 31.551-48.609 41.59-75.774 10.039-27.165 18.567-54.631 21.177-83.461 2.611-28.829 1.247-58.051 3.654-86.955 2.24-26.651 7.849-58.244 32.61-73.354 11.544-7.037 25.055-9.738 38.229-11.767a414.11 414.11 0 0 1 42.221-4.799 181.22 181.22 0 0 1 80.47 14.02 207.146 207.146 0 0 1 70.029 50.225c4.26 4.642 8.474 9.315 12.422 14.213.687.872 2.082-.144 1.427-1.056l-.021.027Z"/><path fill="#632DAA" fill-opacity=".5" d="M548.441 136.904c-34.814-39.692-84.738-64.697-137.533-67.225a251.152 251.152 0 0 0-40.413 1.771c-13.655 1.56-27.471 3.21-40.933 5.907-11.642 2.302-23.306 5.985-32.825 13.226-9.794 7.396-16.434 18.207-20.711 29.514-9.917 26.321-9.946 55.534-11.531 83.208a390.514 390.514 0 0 1-3.96 41.077 235.046 235.046 0 0 1-11.053 41.144c-18.412 51.014-44.089 104.407-93.85 131.202a122.53 122.53 0 0 1-60.377 15.104c-21.262-.487-41.791-7.171-60.38-17.217-5.582-3-10.992-6.302-16.27-9.826-.923-.6-1.987.743-1.064 1.344C36 418.414 56.436 428.196 78.45 431.902a118.736 118.736 0 0 0 55.809-4.203 143.527 143.527 0 0 0 58.936-37.632c19.596-20.294 33.354-45.06 44.605-70.719 11.25-25.658 21.273-51.699 25.177-79.373 3.904-27.674 3.306-55.655 6.599-83.332 3.171-26.527 10.724-56.71 36.514-69.89 11.346-5.794 24.005-8.055 36.498-9.858 14.057-1.984 28.195-4.124 42.412-5.15a190.143 190.143 0 0 1 148.851 52.771c4.566 4.338 9.111 8.704 13.273 13.443.718.832 2.103-.17 1.427-1.056l-.11.001Z"/><path fill="#632DAA" fill-opacity=".5" d="M550.42 135.979a174.508 174.508 0 0 0-28.722-23.146 194.26 194.26 0 0 0-33.493-17.785 201.378 201.378 0 0 0-73.749-14.555c-13-.033-25.986.82-38.87 2.556-13.516 1.604-27.004 3.34-40.375 5.561-11.422 1.886-22.932 4.795-32.963 10.778a61.703 61.703 0 0 0-23.044 26.331c-11.757 24.034-12.845 52.101-15.439 78.232a346.375 346.375 0 0 1-5.479 39.655 220.81 220.81 0 0 1-12.959 39.547c-20.486 48.496-48.743 97.419-96.029 123.987a130.722 130.722 0 0 1-58.883 17.359c-20.403.719-40.417-4.573-58.686-13.447-5.509-2.68-10.831-5.65-16.075-8.885-.92-.577-1.999.756-1.064 1.343 18.042 11.122 37.948 19.587 59.105 22.001a120.349 120.349 0 0 0 54.019-6.692 160.068 160.068 0 0 0 58.582-37.737c19.31-19.187 33.957-42.287 46.197-66.462 12.073-23.827 23.288-48.529 28.331-74.908 5.149-26.927 5.118-54.548 10.131-81.496 2.436-13.179 6.171-26.534 13.255-38.043a57.605 57.605 0 0 1 28.324-23.942c11.756-4.683 24.351-6.229 36.903-7.94 13.75-1.9 27.478-3.993 41.306-5.219 26.15-2.288 52.882-.508 78.132 6.898a190.96 190.96 0 0 1 67.64 35.737 163.15 163.15 0 0 1 13.012 11.51c.751.792 1.815-.552 1.064-1.343l-.171.105Z"/><path fill="#632DAA" fill-opacity=".5" d="M552.606 135.152c-8.002-7.345-17.737-13.329-27.174-18.64a192.797 192.797 0 0 0-33.6-14.808 218.104 218.104 0 0 0-73.092-10.47 333.99 333.99 0 0 0-39.117 3.475 12577.002 12577.002 0 0 0-39.094 5.351c-11.431 1.595-23.059 3.907-33.439 9.089a60.477 60.477 0 0 0-24.507 22.986c-13.559 22.059-15.951 48.984-19.579 73.99a287.946 287.946 0 0 1-7.431 38.393 219.177 219.177 0 0 1-15.077 37.169c-22.825 45.682-53.4 90.407-98.504 116.429-17.485 10.093-37.098 17.407-57.322 19.143a117 117 0 0 1-57.336-10.432c-5.067-2.243-9.997-4.77-14.828-7.504-.953-.536-1.612 1.041-.702 1.631 17.657 10.007 37.112 17.109 57.51 18.245a123.409 123.409 0 0 0 52.289-9.311c46.452-18.504 80.229-57.39 104.999-99.563 13.143-22.389 25.69-45.599 31.983-70.878 6.292-25.279 7.188-52.055 13.729-77.509 3.208-12.524 7.985-24.987 16.044-35.243a59.44 59.44 0 0 1 29.524-20.018c12.057-3.875 24.689-4.999 37.179-6.716 13.357-1.818 26.688-3.962 40.114-5.397a236.538 236.538 0 0 1 75.839 3.223 192.155 192.155 0 0 1 68.349 29.432 111.47 111.47 0 0 1 12.211 9.236c.86.681 1.924-.662 1.064-1.344l-.032.041Z"/><path fill="#632DAA" fill-opacity=".5" d="M554.771 134.352a80.212 80.212 0 0 0-12.391-7.629c-4.874-2.68-9.828-5.205-14.919-7.445a203.906 203.906 0 0 0-31.68-10.882 242.366 242.366 0 0 0-72.353-6.518c-25.401 1.287-50.329 6.643-75.561 9.484-11.323 1.264-22.772 2.909-33.53 6.829a61.365 61.365 0 0 0-26.88 19.248c-16.09 19.704-20.117 46.099-25.05 70.268a250.055 250.055 0 0 1-9.577 36.934 207.8 207.8 0 0 1-17.153 34.628c-25.565 42.68-57.316 83.784-100.584 109.643-16.969 10.13-35.8 18.195-55.453 21.06a109.428 109.428 0 0 1-55.43-6.736 154.442 154.442 0 0 1-14.498-6.542c-.974-.509-1.633 1.068-.702 1.631 17.09 8.792 35.608 14.453 54.885 14.547 17.642.089 34.858-4.531 50.956-11.547 45.006-19.605 79.548-56.53 106.536-96.618 13.792-20.475 27.466-41.656 35.085-65.381 7.82-24.419 9.542-50.388 18.16-74.545 4.329-12.118 10.603-23.57 19.998-32.506 8.794-8.34 19.878-12.92 31.547-15.616 11.669-2.695 23.77-3.672 35.725-5.375 12.893-1.813 25.732-3.998 38.632-5.653 47.539-6.075 97.526-1.464 140.086 21.906a84.916 84.916 0 0 1 13.035 8.14.86.86 0 0 0 1.204-.14.859.859 0 0 0-.139-1.204l.051.019Z"/><path fill="#632DAA" fill-opacity=".5" d="M556.935 133.552a54.979 54.979 0 0 0-11.994-5.893c-4.67-1.863-9.331-3.652-14.098-5.198a229.398 229.398 0 0 0-31.697-7.769 279.602 279.602 0 0 0-71.104-2.27c-24.505 2.061-48.469 7.525-72.933 10.362-11.392 1.297-22.817 2.305-33.923 5.338a65.95 65.95 0 0 0-28.994 15.954c-17.907 17.085-23.881 41.741-30.216 64.755a225.81 225.81 0 0 1-11.801 34.801 195.155 195.155 0 0 1-19.187 32.033c-28.622 39.777-61.09 78.17-103.162 104.145-16.462 10.182-34.633 18.878-53.655 22.878a102.835 102.835 0 0 1-53.213-3.186 141.184 141.184 0 0 1-14.21-5.636c-.992-.459-1.675 1.121-.701 1.63 16.778 7.693 34.92 12.093 53.443 10.957 17.071-1.04 33.449-6.588 48.733-13.876 43.266-20.721 77.976-55.567 107.046-93.066 14.646-18.902 29.674-38.288 38.802-60.577 9.26-22.732 12.23-47.625 22.704-69.875a76.181 76.181 0 0 1 23.818-29.764c9.422-6.815 21.046-10.006 32.376-11.942 11.758-2.035 23.701-2.786 35.506-4.521 11.805-1.735 24.086-3.989 36.148-5.827 46.209-7.019 94.72-5.874 138.533 11.885a58.771 58.771 0 0 1 12.664 6.096c.86.682 1.938-.651 1.065-1.343l.05-.091Z"/><path fill="#632DAA" fill-opacity=".5" d="M559.089 132.765a34.873 34.873 0 0 0-11.266-4.135c-4.397-.991-8.729-2.148-13.139-3.04a279.339 279.339 0 0 0-31.125-4.516 339.597 339.597 0 0 0-70.311 1.725c-23.795 2.821-47.166 8.558-70.907 11.421-21.483 2.662-44.954 2.7-63.214 15.897a80.961 80.961 0 0 0-22.926 25.878c-6.012 10.544-10.015 22.111-14.187 33.479a211.794 211.794 0 0 1-13.756 31.83 190.243 190.243 0 0 1-21.188 29.508c-31.144 36.555-64.154 72.485-104.608 98.932-16.244 10.596-33.792 20.245-52.537 25.579a97.813 97.813 0 0 1-51.58.687 120.939 120.939 0 0 1-14.426-4.867.888.888 0 0 0-.701 1.631 103.257 103.257 0 0 0 52.023 7.339c16.787-2.228 32.581-8.806 47.443-16.691 41.893-22.246 76.594-55.7 107.832-90.912 15.192-17.136 31.155-34.361 41.724-54.852 10.985-21.321 15.367-45.817 28.657-65.99a71.183 71.183 0 0 1 27.265-24.978c9.998-4.893 21.138-7.003 32.09-8.407 11.661-1.499 23.353-2.318 34.962-4.165 11.609-1.847 23.378-4.2 35.165-6.299 44.584-7.782 90.81-9.3 134.939 1.931 4.476 1.14 8.722 1.88 12.717 4.345.932.563 2.009-.77 1.064-1.343l-.01.013Z"/><path fill="#632DAA" fill-opacity=".5" d="M561.057 131.853a26.533 26.533 0 0 0-11.303-2.569c-4.389-.284-8.755-.79-13.133-1.088a504.11 504.11 0 0 0-29.304-1.018 447.638 447.638 0 0 0-69.784 5.947c-23.071 3.591-45.797 9.533-69.004 12.578-21.174 2.798-44.436 1.799-63.685 12.463a81.64 81.64 0 0 0-25.466 22.182c-6.78 8.974-11.673 19.18-16.553 29.178-5.116 10.489-10.28 20.983-17.108 30.486a199.148 199.148 0 0 1-23.229 26.426c-33.734 32.842-66.867 66.663-105.891 93.347-15.939 10.902-32.888 21.311-51.101 27.962a94.136 94.136 0 0 1-50.44 4.521A107.45 107.45 0 0 1 .907 388.43c-1.03-.356-1.713 1.224-.715 1.62a95.351 95.351 0 0 0 50.593 3.735c16.524-3.442 31.793-11.069 46.259-19.531 40.597-23.645 75.085-55.976 108.395-88.696 16.156-15.869 33.503-31.253 45.714-50.532 12.21-19.279 18.683-42.053 34.199-59.238a72.877 72.877 0 0 1 28.942-19.975c10.625-3.807 21.987-5.259 33.188-6.314 11.61-1.103 23.115-2.157 34.608-4.161 11.493-2.004 22.689-4.461 33.965-6.66a500.681 500.681 0 0 1 70.863-9.268 459.742 459.742 0 0 1 61.721 1.529c4.226.351 7.854.492 11.748 2.505.974.509 1.643-1.081.701-1.631l-.032.04Z"/><path fill="#632DAA" fill-opacity=".5" d="M563.221 131.053a19.355 19.355 0 0 0-10.614-1.148c-3.967.509-8.017.625-11.998.904-9.747.654-19.511 1.36-29.229 2.255a689.039 689.039 0 0 0-68.601 10.165c-22.585 4.413-44.861 10.645-67.645 13.983-21.619 3.166-44.565 1.63-65.117 10.102a84.725 84.725 0 0 0-26.779 18.016c-7.908 7.775-13.876 17.02-19.908 26.236a201.13 201.13 0 0 1-19.995 26.953 232.673 232.673 0 0 1-25.41 23.299c-35.878 28.979-69.252 61.035-106.792 87.888-28.68 20.555-61.921 43.554-99.056 38.978a97.437 97.437 0 0 1-14.132-2.863c-1.048-.306-1.731 1.274-.715 1.62a89.369 89.369 0 0 0 49.02.171c16.51-4.721 31.498-13.621 45.786-22.77 39.285-25.274 73.797-56.779 109.268-86.955 16.481-14.015 34.298-26.928 48.124-43.747 14.209-17.302 23.312-38.649 41.028-52.954a79.726 79.726 0 0 1 30.343-15.476 193.137 193.137 0 0 1 33.71-4.544 291.008 291.008 0 0 0 33.973-4.38c11.112-2.131 22.134-4.836 33.183-7.301 22.911-5.074 46.037-9.452 69.344-12.375 19.69-2.442 39.507-3.691 59.255-5.103 4.354-.334 7.935-1.018 12.157.774a.89.89 0 0 0 1.167-.465.888.888 0 0 0-.465-1.166l.098-.097Z"/><path fill="#632DAA" fill-opacity=".5" d="M565.343 130.307a15.559 15.559 0 0 0-10.225.1c-3.956 1.239-8.01 2.051-12.048 2.898-9.357 2.012-18.768 3.763-28.164 5.548-22.901 4.316-45.711 9.316-68.383 14.666-22.054 5.206-43.911 11.792-66.287 15.278-21.722 3.434-44.37 1.632-65.576 8.252a94.889 94.889 0 0 0-28.333 14.926c-8.164 6.194-14.866 13.743-21.655 21.375a214.574 214.574 0 0 1-23.509 23.383 307.063 307.063 0 0 1-26.561 19.26c-38.242 25.117-72.207 56.07-108.787 83.422-15.809 11.814-31.916 23.894-49.341 33.248-14.955 8.031-31.278 13.206-48.396 12.153a88.329 88.329 0 0 1-13.16-1.853c-1.089-.228-1.319 1.471-.244 1.688a84.268 84.268 0 0 0 48.382-3.855c16.28-6.281 30.858-16.402 44.984-26.423 37.911-26.713 72.486-57.664 110.009-84.881 17.299-12.536 36.047-23.422 51.751-38.14 15.395-14.439 27.157-32.323 45.486-43.454a90.837 90.837 0 0 1 31.149-11.995 282.694 282.694 0 0 1 33.903-3.298c22.151-1.324 43.421-6.866 64.832-12.253 23.178-5.824 46.457-11.306 69.943-16.055 19.268-3.87 38.784-6.866 57.864-11.629 4.171-1.069 7.436-2.375 11.688-.953 1.04.343 1.723-1.237.701-1.631l-.023.223Z"/><path fill="#632DAA" fill-opacity=".5" d="M567.336 129.393a14.138 14.138 0 0 0-10.515 1.707 108.272 108.272 0 0 1-10.74 4.394c-8.986 3.311-18.141 6.118-27.323 8.794-21.981 6.466-44.074 12.603-66.137 18.786-22.062 6.182-43.944 13.296-66.403 17.218-22.074 3.878-44.818 1.868-66.665 6.866a111.372 111.372 0 0 0-28.489 11.26 165.383 165.383 0 0 0-24.067 16.993c-17.26 13.923-36.31 24.832-55.952 35.053-39.96 20.826-74.336 50.448-109.721 78.002-15.892 12.361-31.667 25.209-48.645 36.097-14.229 9.13-29.914 16.122-47.036 16.619a79.475 79.475 0 0 1-13.68-.865.853.853 0 0 0-.884.734.858.858 0 0 0 .64.953 81.101 81.101 0 0 0 47.878-7.993c16.125-7.934 30.362-19.31 44.575-30.158 18.27-13.954 36.297-28.21 54.384-42.375a574.725 574.725 0 0 1 56.558-40.04c18.411-11.152 38.223-20.014 56.06-32.125 8.576-5.802 16.44-12.473 24.558-18.856a119.269 119.269 0 0 1 26.803-15.81 110.517 110.517 0 0 1 31.329-8.136c11.37-1.27 22.827-1.379 34.248-2.215 21.863-1.596 42.895-7.83 63.893-13.719 22.833-6.382 45.628-12.881 68.444-19.298 18.393-5.11 37.416-9.94 54.992-17.664 4.018-1.759 7.052-3.685 11.641-2.521 1.08.265 1.31-1.433.241-1.712l.013.011Z"/><path fill="#632DAA" fill-opacity=".5" d="M569.504 128.616a12.841 12.841 0 0 0-10.138 2.75 97.285 97.285 0 0 1-10.634 6.358 272.274 272.274 0 0 1-26.479 11.978c-21.336 8.551-43.181 16.087-65.02 23.147-21.839 7.059-43.584 14.718-66.025 19.005-22.442 4.286-44.943 2.162-67.27 5.752a138.849 138.849 0 0 0-30.679 9.11 264.64 264.64 0 0 0-25.625 13.026 241.352 241.352 0 0 1-28.02 12.571c-10.394 4.012-20.704 8.222-31.079 12.292-41.529 16.237-76.75 44.774-111.16 72.423-16.128 12.962-31.754 26.67-48.31 39.096-13.75 10.318-28.98 19.333-46.379 21.338-4.522.48-9.08.531-13.61.151-1.096-.08-1.31 1.653-.231 1.699 16.838 1.268 32.62-3.527 46.986-12.112 16.154-9.682 30.303-22.548 44.806-34.48 17.768-14.591 35.688-28.932 54.119-42.758 18.431-13.827 37.186-26.434 57.718-36.454 19.167-9.373 39.582-15.877 59.198-24.216 9.105-3.874 17.586-8.701 26.266-13.393a164.94 164.94 0 0 1 28.239-12.048 138.523 138.523 0 0 1 32.696-6.135c11.437-.802 22.938-.635 34.358-1.581 21.913-1.797 42.926-8.505 63.812-15.051a1540.92 1540.92 0 0 0 67.258-22.687c18.037-6.594 36.55-13.402 52.956-23.541 3.94-2.433 7.001-5.387 11.971-4.512 1.096.191 1.326-1.508.244-1.687l.032-.041Z"/><path fill="#632DAA" fill-opacity=".5" d="M571.668 127.816a12.14 12.14 0 0 0-9.716 3.653 114.52 114.52 0 0 1-9.733 7.815 209.59 209.59 0 0 1-25.224 15.005 592.981 592.981 0 0 1-63.997 27.762c-21.473 8.005-43.392 16.27-65.858 21.084a179.087 179.087 0 0 1-33.716 3.642c-11.333.229-22.718.219-34.018 1.261-19.907 1.833-39.123 8.369-57.824 15.028-10.328 3.626-21.054 5.517-31.791 7.616-10.738 2.1-21.062 4.505-31.327 7.526a231.367 231.367 0 0 0-29.674 10.409 290.466 290.466 0 0 0-29.654 15.628 320.437 320.437 0 0 0-28.353 19.699c-9.32 6.962-18.44 14.169-27.418 21.555-16.472 13.563-31.998 28.138-48.137 42.053-13.521 11.549-28.349 22.676-46.163 26.145a67.755 67.755 0 0 1-13.063 1.198c-1.097.005-.899 1.715.198 1.71 17.465.036 33.037-6.98 46.906-17.117 16.05-11.733 30.142-26.044 45.159-39.011 17.368-14.997 35.266-29.42 53.934-42.774 18.669-13.354 38.436-24.81 59.897-32.606 20.346-7.411 41.589-11.095 62.671-15.627a244.47 244.47 0 0 0 27.583-8.458 307.411 307.411 0 0 1 30.382-8.514c22.148-5.131 44.777-2.534 67.231-4.821 21.926-2.311 42.806-9.54 63.512-16.688 22.331-7.763 44.382-16.36 65.913-26.178 17.549-8.075 35.795-16.866 50.814-29.393 3.503-2.932 6.257-6.327 11.236-5.903 1.098.104 1.288-1.626.243-1.688l-.013-.011Z"/><path fill="#632DAA" fill-opacity=".5" d="M573.832 127.016a12.003 12.003 0 0 0-9.369 4.43c-3.161 3.356-6.202 6.698-9.683 9.823a184.728 184.728 0 0 1-24.356 18.076 430.232 430.232 0 0 1-63.896 32.631c-21.161 8.909-42.999 17.762-65.431 22.865a158.277 158.277 0 0 1-33.419 3.791c-11.759.131-23.52-.176-35.269.357-20.704.961-40.876 6.302-61.275 9.474-10.461 1.64-21.015 1.217-31.5 1.286a206.86 206.86 0 0 0-33.425 3.108 192.548 192.548 0 0 0-29.818 7.278 223.688 223.688 0 0 0-30.85 13.741 239.568 239.568 0 0 0-28.1 18.084 463.503 463.503 0 0 0-27.302 21.188c-16.848 14.009-32.351 29.301-47.945 44.654-13.084 12.901-27.296 26.177-45.261 31.714a62.616 62.616 0 0 1-13.83 2.58c-1.1.091-.89 1.787.198 1.709 17.993-1.403 33.253-10.591 46.579-22.142 15.653-13.578 29.574-29.053 44.947-42.94a486.363 486.363 0 0 1 54.379-42.837 197.098 197.098 0 0 1 60.596-27.941 225.886 225.886 0 0 1 33.454-5.491c10.494-1.046 20.996-.861 31.411-1.008a170.234 170.234 0 0 0 29.199-3.569c10.649-2.016 21.33-3.768 32.037-5.497 22.565-3.642 45.452-.404 68.086-2.919 21.873-2.354 42.812-10.127 63.279-17.967a534.796 534.796 0 0 0 65.886-30.092c17.333-9.514 34.708-20.241 48.573-34.514 3.468-3.55 6.282-8.318 11.779-8.162 1.1.019 1.341-1.693.254-1.701l.072-.009Z"/><path fill="#632DAA" fill-opacity=".5" d="M575.777 126.217c-4.324.27-7.152 2.818-9.658 6.147-2.929 3.89-5.882 7.674-9.186 11.266a180.658 180.658 0 0 1-24.414 21.573 357.543 357.543 0 0 1-63.297 37.063c-11.226 5.256-22.676 10.049-34.181 14.47a232.919 232.919 0 0 1-31.921 10.291 145.562 145.562 0 0 1-33.254 3.528c-11.728-.019-23.458-.586-35.188-.519-21.347.145-42.586 4.073-63.971 3.686-10.992-.202-21.736-2.677-32.561-4.277a177.93 177.93 0 0 0-63.78 2.7 177.496 177.496 0 0 0-30.926 11.079c-20.808 9.429-39.682 23.539-57.135 38.118A482.472 482.472 0 0 0 38.5 328.359c-12.912 14.284-26.548 29.788-44.825 37.264a59.696 59.696 0 0 1-13.66 3.829c-1.09.187-.904 1.886.198 1.71 18.362-2.948 33.082-14.16 45.832-27.108 15.47-15.581 29.353-32.529 45.466-47.514 32.939-30.541 72.097-59.436 117.787-65.577a187.233 187.233 0 0 1 34.402-1.306c10.983.544 21.694 2.84 32.554 4.423a144.706 144.706 0 0 0 29.583.803 873.768 873.768 0 0 0 33.268-2.467c22.593-2.133 45.394 1.519 67.946-.975 22.551-2.494 43.838-10.844 64.419-19.49a424.507 424.507 0 0 0 64.818-33.519c17.72-11.328 35.175-24.419 48.225-41.086 3.193-4.031 5.717-9.095 11.436-9.441 1.102-.066.904-1.776-.199-1.709l.027.021Z"/><path fill="#632DAA" fill-opacity=".5" d="M577.931 125.431c-4.615.608-7.349 3.756-9.801 7.542-2.641 4.162-5.301 8.265-8.337 12.18a178.011 178.011 0 0 1-23.339 24.523 311.966 311.966 0 0 1-62.321 41.794c-11.225 5.89-22.804 11.15-34.551 16.014a227.534 227.534 0 0 1-30.826 10.786 131.734 131.734 0 0 1-34.071 4.171c-12.092-.11-24.137-.97-36.206-1.413-21.933-.799-43.949 1.156-65.768-2.023-11.554-1.674-22.469-5.838-33.626-9.143a160.97 160.97 0 0 0-34.056-6.336 142.949 142.949 0 0 0-63.369 9.302c-21.621 8.303-40.831 21.512-58.672 36.222a354.526 354.526 0 0 0-48.261 49.607C21.887 334.398 8.94 352.066-9.428 361.7a60.109 60.109 0 0 1-13.37 5.065c-1.057.257-.872 1.956.198 1.71 18.753-4.628 32.801-18.056 45.05-32.276 7.17-8.335 13.936-17.014 21.014-25.424a326.956 326.956 0 0 1 24.564-26.068c32.999-31.39 74.061-59.018 121.127-59.914 11.995-.24 23.979.829 35.742 3.188 11.57 2.343 22.563 6.656 33.899 9.819 20.439 5.695 42.618 5.465 63.667 4.842 23.272-.699 46.742 3.571 69.944.587 22.371-2.9 43.559-11.787 63.911-21.139a360.939 360.939 0 0 0 64.355-37.516c17.653-13.065 34.596-28.354 46.558-46.933 2.803-4.34 5.181-9.716 10.877-10.474 1.081-.149.896-1.848-.209-1.696l.032-.04Z"/><path fill="#632DAA" fill-opacity=".5" d="M580.095 124.63c-4.372.91-6.971 3.859-9.14 7.564-2.859 4.907-5.413 9.925-8.546 14.681a181.114 181.114 0 0 1-21.889 26.831 283.977 283.977 0 0 1-61.226 46.597 379.28 379.28 0 0 1-35.041 17.791 217.955 217.955 0 0 1-31.146 11.714 124.767 124.767 0 0 1-35.516 4.534c-12.216-.23-24.38-1.382-36.554-2.3-23.153-1.744-46.583-1.565-69.103-8.055-11.247-3.246-21.67-8.529-32.408-13.274a164.217 164.217 0 0 0-34.432-10.941 133.7 133.7 0 0 0-65.585 3.129c-22.549 7.044-42.485 19.679-60.693 34.578a287.01 287.01 0 0 0-48.279 51.671c-12.692 17.126-24.802 36.638-43.025 48.464a59.33 59.33 0 0 1-13.437 6.499c-1.045.354-.379 1.887.624 1.588 19.336-6.55 32.726-22.598 44.565-38.344 7.07-9.422 13.81-19.062 21.121-28.293a262.792 262.792 0 0 1 24.605-27.085c17.021-16.298 36.578-31.354 58.107-41.196a130.272 130.272 0 0 1 66.964-11.439 154.15 154.15 0 0 1 36.629 8.002c11.396 4.107 22.096 9.785 33.318 14.279 21.036 8.419 44.219 10.428 66.629 11.233 23.368.864 46.976 5.374 70.286 2.06 22.602-3.219 43.966-12.798 64.216-22.931a322.47 322.47 0 0 0 63.367-41.184c17.538-14.797 33.64-31.977 44.834-52.126 2.646-4.748 4.918-11.149 10.916-12.345 1.062-.208.877-1.907-.209-1.696l.048-.006Z"/><path fill="#632DAA" fill-opacity=".5" d="M582.056 123.866c-4.873 1.322-7.484 5.529-9.602 9.886-2.59 5.34-5.094 10.682-8.059 15.833a193.96 193.96 0 0 1-21.532 29.804 270.396 270.396 0 0 1-60.123 50.641 347.314 347.314 0 0 1-35.936 19.64 201.244 201.244 0 0 1-31.251 12.177 118.071 118.071 0 0 1-36.299 4.418c-12.19-.429-24.368-1.81-36.453-3.227-23.913-2.717-47.851-4.712-70.426-13.782-11.4-4.657-21.935-11.122-32.661-17.125a175.879 175.879 0 0 0-34.668-15.501c-21.583-6.624-44.434-8.39-66.556-3.457-23.154 5.186-43.788 16.853-62.3 31.555a241.058 241.058 0 0 0-49.285 53.935c-12.726 18.827-24.08 40.446-42.238 54.729a60.449 60.449 0 0 1-13.45 8.064c-1.023.436-.386 2.033.623 1.587 19.918-8.582 32.613-27.368 44.221-44.783 6.934-10.492 13.669-21.12 21.266-31.152a229.443 229.443 0 0 1 24.614-27.843 216.278 216.278 0 0 1 28.786-23.117 142.6 142.6 0 0 1 31.89-16.656 122.236 122.236 0 0 1 68.654-4.547 146.62 146.62 0 0 1 36.526 12.687c11.176 5.573 21.702 12.381 32.83 18.069 21.165 10.796 44.867 15.38 68.359 17.524 23.492 2.143 47.71 7.18 71.491 3.604 23.205-3.484 45.001-13.858 65.407-24.961a295.767 295.767 0 0 0 62.898-45.338c17.323-16.541 32.626-35.666 42.997-57.343 2.504-5.232 4.6-11.99 10.823-13.664 1.065-.294.406-1.865-.626-1.611l.08-.046Z"/><path fill="#632DAA" fill-opacity=".5" d="M584.21 123.079c-4.992 1.665-7.5 6.239-9.483 10.812-2.443 5.652-4.646 11.386-7.476 16.863a204.637 204.637 0 0 1-21.044 33.164 262.243 262.243 0 0 1-58.294 54.627 311.723 311.723 0 0 1-35.04 20.853 201.28 201.28 0 0 1-32.498 13.725 110.54 110.54 0 0 1-36.39 5.002 328.688 328.688 0 0 1-37.635-4.054c-12.692-1.92-25.419-3.604-37.873-6.735a173.933 173.933 0 0 1-35.126-12.715c-11.901-5.928-22.689-13.73-33.697-21.117a202.594 202.594 0 0 0-33.841-19.001c-21.481-9.1-45.008-13.545-68.258-10.446-24.031 3.202-45.71 13.952-64.831 28.566a210.5 210.5 0 0 0-49.611 55.121c-6.918 10.942-13.277 22.282-19.992 33.298-6.236 10.081-13.004 20.115-21.74 28.217a63.704 63.704 0 0 1-13.119 9.44c-.967.503-.354 2.103.623 1.587 20.2-10.786 32.05-31.902 43.268-51.005 6.725-11.444 13.405-22.968 21.237-33.71a205.225 205.225 0 0 1 25.172-28.604c17.754-16.725 39.24-31.564 63.041-37.9a124.72 124.72 0 0 1 71.201 2.369 164.922 164.922 0 0 1 36.836 17.568c11.094 6.974 21.58 14.909 32.842 21.643 21.41 12.805 45.492 19.505 70.032 23.113 23.761 3.516 48.433 8.78 72.434 4.898 23.49-3.871 45.493-15.086 65.823-27.059 44.095-25.99 83.908-64.381 103.613-112.36 2.147-5.471 4.25-12.377 10.394-14.42 1.045-.353.379-1.886-.626-1.611l.058-.129Z"/><path fill="#632DAA" fill-opacity=".5" d="M586.377 122.303c-5.087 2.006-7.531 6.914-9.411 11.744-2.404 6.208-4.558 12.461-7.267 18.559a220.056 220.056 0 0 1-19.997 35.458 257.847 257.847 0 0 1-57.135 59.153 290.371 290.371 0 0 1-35.643 22.912 191.134 191.134 0 0 1-33.577 14.949 105.284 105.284 0 0 1-36.746 4.981 277.015 277.015 0 0 1-39.777-5.269 290.82 290.82 0 0 1-40.329-9.818 174.18 174.18 0 0 1-35.651-16.717c-23.077-14.344-42.524-33.685-66.757-46.321-21.705-11.246-46.116-17.944-70.71-16.128-24.595 1.815-47.033 11.921-66.546 26.727-20.457 15.502-36.824 35.446-49.63 57.576-6.603 11.454-12.438 23.319-18.77 34.9-5.85 10.672-12.165 21.348-20.482 30.329a66.156 66.156 0 0 1-12.936 10.81c-.931.596.082 1.967 1.056 1.427 19.842-12.709 30.686-35.563 41.278-55.752a352.967 352.967 0 0 1 20.787-36.014 187.736 187.736 0 0 1 25.389-29.787c18.405-17.411 40.83-31.615 65.921-36.624 24.388-4.866 49.263-1.211 72.05 8.42a187.476 187.476 0 0 1 37.39 21.616c10.853 7.941 21.19 16.588 32.202 24.328a186.85 186.85 0 0 0 71.618 29.945c24.696 4.846 50.577 11.069 75.794 6.729 24.056-4.145 46.523-16.304 66.91-29.259 44.99-28.584 82.983-70.778 101.23-121.223 2.108-5.809 4.017-13.546 10.363-16.063a.858.858 0 0 0-.624-1.588Z"/><path fill="#632DAA" fill-opacity=".5" d="M588.542 121.503c-5.169 2.357-7.539 7.585-9.351 12.688-2.303 6.551-4.279 13.186-6.833 19.668a238.277 238.277 0 0 1-19.06 37.863 258.662 258.662 0 0 1-55.348 63.302 273.308 273.308 0 0 1-35.425 24.68 189.941 189.941 0 0 1-34.565 16.527 101.097 101.097 0 0 1-37.629 5.682 232.843 232.843 0 0 1-40.148-6.154 265.397 265.397 0 0 1-41.736-12.375 187.07 187.07 0 0 1-36.974-20.126c-23.583-16.604-43.236-38.142-67.899-53.327-21.771-13.397-46.628-22.569-72.422-22.579a106.026 106.026 0 0 0-36.377 6.171 133.043 133.043 0 0 0-32.25 17.552c-21.3 15.599-37.914 36.463-50.266 59.675C5.847 282.792.342 295.29-5.576 307.592c-5.577 11.567-11.49 23.173-19.545 33.258a71.018 71.018 0 0 1-12.658 12.474.88.88 0 0 0-.35.582.888.888 0 0 0 1.406.845c19.724-14.88 29.596-39.597 39.773-61.252a309.693 309.693 0 0 1 19.964-37.54 171.188 171.188 0 0 1 26.056-31.293c18.934-17.801 42.23-31.228 68.293-34.592 26.062-3.365 52.022 3.337 74.899 15.422 26.214 13.834 46.601 34.86 69.66 52.842a196.195 196.195 0 0 0 73.755 35.749c24.895 6.141 51.322 12.862 77.021 8.051 24.731-4.638 47.777-17.914 68.235-32.036 45.231-31.235 81.003-76.807 97.912-129.319 1.999-6.222 3.774-14.7 10.32-17.693.996-.457.373-2.044-.623-1.587Z"/><path fill="#632DAA" fill-opacity=".5" d="M590.706 120.703c-5.194 2.665-7.502 8.118-9.229 13.419-2.256 6.96-4.082 14.041-6.49 20.945a259.448 259.448 0 0 1-17.479 39.181 259.138 259.138 0 0 1-89.441 95.16 191.451 191.451 0 0 1-35.101 18.115 98.344 98.344 0 0 1-38.891 6.365 200.263 200.263 0 0 1-41.768-7.284 247.068 247.068 0 0 1-42.35-14.83 203.973 203.973 0 0 1-38.19-23.56c-23.871-18.669-43.752-41.961-68.513-59.563-21.848-15.536-47.274-27.302-74.309-29.169a103.295 103.295 0 0 0-37.768 3.953 119.979 119.979 0 0 0-33.714 17.027c-22.217 15.791-38.908 37.883-50.82 62.362C.436 275.598-4.73 288.802-10.33 301.86c-5.263 12.165-10.686 24.531-18.407 35.383a74.8 74.8 0 0 1-11.99 13.507c-.818.729.185 2.113 1.057 1.427 19.187-16.77 28.065-42.69 37.643-65.519a295.966 295.966 0 0 1 18.927-39.214 158.374 158.374 0 0 1 26.386-32.978c19.676-18.766 44.348-31.803 71.703-33.378 27.356-1.574 54.388 7.943 77.433 22.438 25.795 16.213 46.162 38.753 69.051 58.525a208 208 0 0 0 76.152 42.217c25.451 7.566 52.853 15.015 79.464 9.549 25.457-5.222 49.072-19.796 69.602-35.196a264.834 264.834 0 0 0 94.905-138.937c1.743-6.12 3.551-14.2 9.722-17.38.991-.505.354-2.103-.613-1.601Z"/><path fill="#632DAA" fill-opacity=".5" d="M592.676 120.011c-5.63 3.215-7.791 9.835-9.414 15.721-1.987 7.173-3.785 14.495-6.042 21.651a284.15 284.15 0 0 1-17.226 42.201 268.894 268.894 0 0 1-52.369 71.631 253.34 253.34 0 0 1-36.563 29.18 180.89 180.89 0 0 1-36.367 19.299 94.273 94.273 0 0 1-39.439 6.063c-14.59-1.31-28.98-4.3-42.884-8.911a235.622 235.622 0 0 1-42.969-17.748 224.179 224.179 0 0 1-39.225-27.442c-24.03-20.871-44.269-45.781-69.347-65.494-22.045-17.331-47.93-31.167-76.11-34.597a102.564 102.564 0 0 0-38.885 2.326 110.245 110.245 0 0 0-34.287 16.398C28.523 206.466 12.043 229.754.8 255.266c-5.932 13.45-10.747 27.369-15.939 41.1-4.895 12.915-10.082 25.95-17.497 37.657a82.687 82.687 0 0 1-11.143 14.067c-.789.775.566 1.826 1.344 1.064 8.866-8.873 15.111-19.932 20.355-31.217 5.954-13.038 10.646-26.552 15.721-40.025 5.178-13.742 10.637-27.479 17.93-40.245a147.774 147.774 0 0 1 26.812-34.236 120.237 120.237 0 0 1 33.182-22.565 97.043 97.043 0 0 1 40.643-8.411c28.89.188 56.357 12.412 79.512 29.005 25.763 18.462 46.256 42.72 69.352 64.273 22.837 21.327 49.333 38.642 78.984 48.856 25.558 8.81 53.464 16.921 80.582 11.091a127.882 127.882 0 0 0 34.363-13.429 249.163 249.163 0 0 0 36.982-24.934c46.11-37.339 77.203-89.897 91.89-147.056 1.708-6.628 3.415-15.159 9.856-18.847.961-.55-.052-1.922-1.056-1.427l.003.024Z"/><path fill="#632DAA" fill-opacity=".5" d="M594.87 119.256c-5.394 3.359-7.512 9.815-9.093 15.648-2.114 7.859-3.779 15.812-5.963 23.703a307.546 307.546 0 0 1-16.747 44.964 277.673 277.673 0 0 1-50.895 75.292 248.533 248.533 0 0 1-36.442 31.374 177.544 177.544 0 0 1-37.71 21.078 91.564 91.564 0 0 1-41.195 6.181c-15.465-1.318-30.479-5.689-44.997-10.936a238.248 238.248 0 0 1-82.687-51.221c-24.054-22.662-44.498-48.915-69.511-70.587-22.545-19.543-49.211-35.899-78.995-41.059a101.803 101.803 0 0 0-39.974.61 103.378 103.378 0 0 0-35.49 16.122c-23.678 16.559-39.75 41.044-50.303 67.561-10.683 26.874-16.587 56.024-30.607 81.48a88.558 88.558 0 0 1-11.009 15.857c-.691.873.663 1.924 1.344 1.064 8.626-9.785 14.512-21.632 19.364-33.664 5.428-13.477 9.639-27.351 14.27-41.175 4.782-14.318 9.855-28.645 16.917-42.031A141.282 141.282 0 0 1 31.3 194.126a112.05 112.05 0 0 1 35.268-23.515 94.508 94.508 0 0 1 41.669-6.615c29.882 1.805 57.694 16.052 80.913 34.248 26.212 20.545 47.121 46.597 70.493 70.119 22.658 22.824 48.812 42.449 78.689 54.833 26.329 10.929 56.327 20.566 84.89 14.459a124.79 124.79 0 0 0 35.718-14.477 242.277 242.277 0 0 0 37.388-26.689 267.394 267.394 0 0 0 56.485-69.181c15.665-27.256 26.295-56.686 33.43-87.224 1.6-6.823 3.236-15.542 9.641-19.542.945-.586-.081-1.967-1.066-1.414l.051.128Z"/><path fill="#632DAA" fill-opacity=".5" d="M596.994 118.424c-5.598 3.81-7.652 10.82-9.158 17.083-2.028 8.08-3.474 16.337-5.547 24.448a335.92 335.92 0 0 1-16.078 47.68 288.513 288.513 0 0 1-49.304 79.024 242.812 242.812 0 0 1-38.032 34.707c-11.817 8.679-24.448 16.647-38.126 22.016a88.78 88.78 0 0 1-42.47 5.914c-15.81-1.765-31.154-6.77-45.823-12.792-31.896-13.065-59.939-33.092-84.114-57.534-24.175-24.442-45.108-52.175-70.181-75.732-22.577-21.186-49.147-39.457-79.603-46.722a104.263 104.263 0 0 0-41.562-1.83 95.624 95.624 0 0 0-36.52 15.022C15.6 186.368-.48 212.355-10.493 240.067c-10.168 28.156-15.277 58.373-28.43 85.412a95.653 95.653 0 0 1-10.603 17.25.857.857 0 1 0 1.343 1.064c8.448-10.802 13.986-23.536 18.534-36.399 5.084-14.34 8.975-29.079 13.311-43.662 8.74-29.419 19.925-58.278 42.392-80.126a103.652 103.652 0 0 1 35.717-23.005 92.558 92.558 0 0 1 43.468-4.774c31.14 3.697 59.306 20.367 82.7 40.495 26.431 22.752 47.691 50.57 71.469 75.9 22.593 24.063 48.321 45.165 78.104 59.683a220.775 220.775 0 0 0 44.802 16.4c14.169 3.396 28.668 4.581 43.02 1.562a119.482 119.482 0 0 0 36.721-15.191 235.972 235.972 0 0 0 38.472-28.913 273.048 273.048 0 0 0 55.629-72.986c15.338-28.915 25.517-59.818 32.189-91.815 1.518-7.216 3.053-16.606 9.646-21.092.918-.606-.109-1.988-1.067-1.413l.069-.033Z"/><path fill="#632DAA" fill-opacity=".5" d="M599.105 117.691c-5.49 4.005-7.512 10.974-8.975 17.294-2.025 8.629-3.372 17.424-5.346 26.072a364.357 364.357 0 0 1-15.424 50.276 301.262 301.262 0 0 1-48.177 83.261 243.447 243.447 0 0 1-37.782 36.655c-11.996 9.346-24.967 17.964-39.049 23.734a86.203 86.203 0 0 1-43.357 6.261c-16.352-2.02-32.179-7.713-47.132-14.507-32.583-14.877-61.008-37.044-85.432-63.104-24.741-26.377-46.051-55.787-71.52-81.494-22.97-23.203-50.09-43.899-81.874-53.048a105.476 105.476 0 0 0-42.758-3.826 90.499 90.499 0 0 0-37.854 14.469C9.006 176.53-6.58 203.522-15.917 231.899c-9.67 29.514-14.055 61.026-26.392 89.629a105.553 105.553 0 0 1-10.118 18.487c-.681.86.652 1.938 1.344 1.064 8.005-11.458 13.105-24.604 17.298-37.902 4.65-14.815 8.165-29.962 12.137-45.052 8.003-30.724 18.31-61.373 41.4-84.256a97.145 97.145 0 0 1 36.453-23.079 91.87 91.87 0 0 1 45.302-3.058c32.32 5.463 60.928 24.364 84.569 46.305 26.784 24.847 48.478 54.408 72.696 81.638 23.157 25.975 49.317 49.125 80.074 65.617a212.116 212.116 0 0 0 45.54 18.45c14.347 3.777 29.114 5.176 43.753 2.099a116.641 116.641 0 0 0 37.183-15.83 231.087 231.087 0 0 0 38.888-30.597 279.497 279.497 0 0 0 55.599-77.973c14.99-30.655 24.339-63.243 30.881-96.677 1.496-7.409 2.925-16.97 9.484-21.745a.886.886 0 0 0-.397-1.591.887.887 0 0 0-.659.164l-.013.099Z"/><path fill="#632DAA" fill-opacity=".5" d="M601.323 116.824c-5.601 4.31-7.493 11.558-8.958 18.182-1.961 8.964-3.184 18.098-5.057 27.088a398.452 398.452 0 0 1-14.923 53.122c-11.29 31.423-26.848 61.497-47.505 87.796a243.402 243.402 0 0 1-37.841 38.772c-12.266 9.963-25.513 19.15-40.097 25.222a83.728 83.728 0 0 1-45.077 5.838c-17.024-2.552-33.225-9.263-48.459-17.001-33.232-16.9-61.774-41.543-86.385-69.326-24.611-27.783-46.284-58.53-71.763-85.797-23.275-24.998-50.633-47.74-83.403-58.874a109.413 109.413 0 0 0-43.543-6.065 86.232 86.232 0 0 0-39.523 13.65C2.28 166.5-12.925 195.107-21.616 224.629c-9.1 30.949-12.621 63.605-24.412 93.755a112.835 112.835 0 0 1-9.306 18.869c-.576.921.757 1.999 1.344 1.064 7.616-12.181 12.377-25.838 16.219-39.631 4.378-15.797 7.588-31.884 11.28-47.918 7.305-31.802 16.953-64.022 40.9-87.517a91.128 91.128 0 0 1 37.699-22.747 92.371 92.371 0 0 1 46.51-.746c33.422 7.495 62.314 28.632 86.178 52.39 26.731 26.597 48.685 57.458 73.036 86.15 23.505 27.716 50.018 52.96 81.425 71.585 26.571 15.757 59.227 30.32 90.774 24.062 13.883-2.757 26.801-8.989 38.604-16.63a228.037 228.037 0 0 0 39.43-32.441c23.175-23.735 41.389-52.056 55.11-82.186a367.367 367.367 0 0 0 18.178-49.254 518.68 518.68 0 0 0 11.804-53.078c1.409-7.631 2.827-17.178 9.305-22.236.872-.687-.155-2.069-1.056-1.427l-.083.131Z"/><path fill="#632DAA" fill-opacity=".5" d="M603.477 116.037c-5.554 4.61-7.437 12.149-8.888 18.894-1.949 9.389-3.033 18.873-4.864 28.224a431.231 431.231 0 0 1-14.272 55.476c-10.91 32.903-26.137 64.574-46.719 92.462a246.888 246.888 0 0 1-37.973 41.008c-12.469 10.634-26.165 20.471-41.32 26.877a81.351 81.351 0 0 1-46.589 5.428c-17.18-3.156-33.432-10.52-48.575-18.952-33.876-18.875-62.717-45.569-87.69-74.994-24.972-29.425-47.077-61.586-72.717-90.665-23.643-26.797-51.171-51.643-84.87-64.89a112.6 112.6 0 0 0-44.916-8.443 83.125 83.125 0 0 0-41.329 12.919c-27.213 17.212-41.857 47.071-49.873 77.26-8.611 32.429-11.341 66.433-22.469 98.203a125.764 125.764 0 0 1-8.856 19.902c-.536.953 1.041 1.612 1.631.702 7.398-13.12 11.784-27.685 15.304-42.259 3.976-16.53 6.778-33.4 10.178-50.059 6.528-32.505 15.446-66.068 39.808-90.087a86.068 86.068 0 0 1 38.513-22.256c16.084-4.184 33.12-2.89 48.995 1.638 34.644 9.818 63.876 33.368 88.071 59.247 26.601 28.419 48.797 60.52 73.382 90.6 23.69 29 50.24 55.826 81.755 76.22a208.812 208.812 0 0 0 47.996 23.741c14.646 4.78 29.985 6.893 45.228 3.88 14.303-2.817 27.489-9.471 39.516-17.504a225.56 225.56 0 0 0 40.257-34.562c23.246-25.122 41.054-54.946 54.365-86.407a394.362 394.362 0 0 0 17.303-50.58 569.09 569.09 0 0 0 11.383-56.19c1.3-7.935 2.673-17.977 9.251-23.437.845-.709-.168-2.08-1.067-1.414l.051.018Z"/><path fill="#632DAA" fill-opacity=".5" d="M605.641 115.237c-5.733 5.058-7.646 13.076-8.993 20.297-1.814 9.715-2.864 19.598-4.543 29.31a470.1 470.1 0 0 1-14.079 58.82c-10.547 33.935-25.342 66.801-45.723 96.008a246.372 246.372 0 0 1-38.589 43.58c-12.68 11.232-26.759 21.662-42.484 28.208a79.266 79.266 0 0 1-47.812 4.459c-18.039-3.947-34.946-12.638-50.537-22.299-33.615-20.833-62.126-48.993-86.983-79.53-25.379-31.037-47.731-64.487-73.551-95.217-23.953-28.53-51.66-55.332-86.161-70.657a117.244 117.244 0 0 0-46.084-10.834 80.727 80.727 0 0 0-42.569 11.587c-28.383 17.226-42.678 48.826-50.08 80.004-8.073 33.905-10.046 69.078-20.467 102.413a132.393 132.393 0 0 1-8.303 20.668c-.51.974 1.08 1.644 1.63.701 7.147-14.018 11.201-29.349 14.404-44.655 3.588-17.144 6.085-34.54 9.043-51.745 5.773-33.54 13.836-68.7 38.94-93.574a81.258 81.258 0 0 1 39.933-22.006c16.564-3.52 33.84-1.314 49.798 3.936 35.611 11.744 65.108 37.252 89.648 64.848 26.732 30.075 49.291 63.513 74.113 95.115 24.068 30.677 50.881 59.351 82.909 81.857a216.065 216.065 0 0 0 47.968 26.233c14.795 5.532 30.535 8.379 46.305 5.696 14.931-2.561 28.656-9.51 41.071-17.977a223.271 223.271 0 0 0 41.035-36.703c23.37-26.466 40.911-57.747 53.892-90.476a422.532 422.532 0 0 0 16.97-53.14c4.899-19.517 8.043-39.221 11.026-59.052 1.267-8.224 2.577-18.601 9.198-24.42.819-.73-.184-2.114-1.056-1.427l.131-.028Z"/><path fill="#632DAA" fill-opacity=".5" d="M607.819 114.448c-6.018 5.554-7.823 14.292-9.121 22.032-1.855 10.623-2.831 21.461-4.557 32.142a499.434 499.434 0 0 1-14.313 63.008c-10.724 36.091-26.102 71.184-47.754 102.161a247.674 247.674 0 0 1-32.95 38.339c-12.08 11.357-25.515 21.969-40.549 29.106a78.13 78.13 0 0 1-50.909 6.795c-19.259-4.148-37.089-14.074-53.339-24.891-34.777-23.175-64.016-53.618-89.703-86.364-25.48-32.538-48.213-67.164-74.155-99.368-23.674-29.381-50.734-57.136-84.673-74.552-26.578-13.706-58.579-20.732-86.854-7.728-31.964 14.652-48.207 48.076-55.77 80.701-8.45 36.34-9.404 74.091-19.13 110.164a147.563 147.563 0 0 1-8.287 23.436c-.459.992 1.108 1.665 1.63.701 7.183-15.609 10.985-32.582 13.924-49.431 3.24-18.556 5.375-37.289 8.243-55.899 5.48-35.434 14.3-73.951 43.515-97.691a76.36 76.36 0 0 1 44.263-17.067c15.21-.788 30.428 2.718 44.477 8.336 35.121 14.046 63.795 40.455 87.991 68.871 26.725 31.381 49.503 65.868 74.326 98.739 24.995 33.095 52.65 64.295 85.964 89.263 27.739 20.77 63.285 42.477 99.394 34.629 15.884-3.489 30.256-11.806 43.134-21.548a225.29 225.29 0 0 0 34.759-32.838c23.367-27.125 40.772-59.062 53.6-92.37a446.886 446.886 0 0 0 17.46-57.017c5.035-21.179 8.19-42.58 11.157-64.13 1.211-8.706 2.386-19.823 9.23-26.144.805-.74-.198-2.125-1.056-1.428l.053.043Z"/></svg>