<svg width="528" height="731" viewBox="0 0 528 731" fill="none" xmlns="http://www.w3.org/2000/svg">
<path d="M269.311 358.713L261.493 364.426L259.126 372.883L266.971 367.144L269.311 358.713Z" stroke="white" stroke-opacity="0.3" stroke-width="2.66444" stroke-miterlimit="10"/>
<path d="M256.669 371.665L266.844 367.791L271.796 359.906L261.621 363.78L256.669 371.665Z" stroke="white" stroke-opacity="0.3" stroke-width="2.66444" stroke-miterlimit="10"/>
<path d="M274.128 361.719L261.968 363.156L254.317 369.852L266.504 368.414L274.128 361.719Z" stroke="white" stroke-opacity="0.3" stroke-width="2.66444" stroke-miterlimit="10"/>
<path d="M252.279 367.493L265.97 368.962L276.191 364.077L262.499 362.608L252.279 367.493Z" stroke="white" stroke-opacity="0.3" stroke-width="2.66444" stroke-miterlimit="10"/>
<path d="M277.748 366.959L263.246 362.19L250.719 364.638L265.22 369.381L277.748 366.959Z" stroke="white" stroke-opacity="0.3" stroke-width="2.66444" stroke-miterlimit="10"/>
<path d="M249.803 361.391L264.282 369.62L278.637 370.179L264.185 361.976L249.803 361.391Z" stroke="white" stroke-opacity="0.3" stroke-width="2.66444" stroke-miterlimit="10"/>
<path d="M278.694 373.611L265.259 361.943L249.772 357.959L263.207 369.627L278.694 373.611Z" stroke="white" stroke-opacity="0.3" stroke-width="2.66444" stroke-miterlimit="10"/>
<path d="M250.684 354.496L262.024 369.378L277.785 377.075L266.445 362.194L250.684 354.496Z" stroke="white" stroke-opacity="0.3" stroke-width="2.66444" stroke-miterlimit="10"/>
<path d="M275.795 380.315L267.656 362.727L252.668 351.256L260.808 368.871L275.795 380.315Z" stroke="white" stroke-opacity="0.3" stroke-width="2.66444" stroke-miterlimit="10"/>
<path d="M255.735 348.498L259.62 368.053L272.703 383.073L268.817 363.543L255.735 348.498Z" stroke="white" stroke-opacity="0.3" stroke-width="2.66444" stroke-miterlimit="10"/>
<path d="M268.559 385.117L269.875 364.644L259.883 346.454L258.568 366.952L268.559 385.117Z" stroke="white" stroke-opacity="0.3" stroke-width="2.66444" stroke-miterlimit="10"/>
<path d="M264.973 345.434L257.748 365.591L263.467 386.163L270.719 365.98L264.973 345.434Z" stroke="white" stroke-opacity="0.3" stroke-width="2.66444" stroke-miterlimit="10"/>
<path d="M257.637 385.977L271.241 367.55L270.825 345.594L257.194 364.047L257.637 385.977Z" stroke="white" stroke-opacity="0.3" stroke-width="2.66444" stroke-miterlimit="10"/>
<path d="M277.156 347.168L257.069 362.37L251.308 384.428L271.395 369.226L277.156 347.168Z" stroke="white" stroke-opacity="0.3" stroke-width="2.66444" stroke-miterlimit="10"/>
<path d="M244.857 381.333L271.065 370.933L283.611 350.237L257.402 360.637L244.857 381.333Z" stroke="white" stroke-opacity="0.3" stroke-width="2.66444" stroke-miterlimit="10"/>
<path d="M289.754 354.858L258.217 359.003L238.683 376.713L270.219 372.568L289.754 354.858Z" stroke="white" stroke-opacity="0.3" stroke-width="2.66444" stroke-miterlimit="10"/>
<path d="M233.281 370.612L268.839 374.002L295.189 360.958L259.605 357.568L233.281 370.612Z" stroke="white" stroke-opacity="0.3" stroke-width="2.66444" stroke-miterlimit="10"/>
<path d="M299.338 368.34L261.526 356.468L229.125 363.231L266.937 375.102L299.338 368.34Z" stroke="white" stroke-opacity="0.3" stroke-width="2.66444" stroke-miterlimit="10"/>
<path d="M226.688 354.83L264.528 375.765L301.783 376.74L263.943 355.831L226.688 354.83Z" stroke="white" stroke-opacity="0.3" stroke-width="2.66444" stroke-miterlimit="10"/>
<path d="M302.051 385.718L266.737 355.762L226.395 345.88L261.735 375.835L302.051 385.718Z" stroke="white" stroke-opacity="0.3" stroke-width="2.66444" stroke-miterlimit="10"/>
<path d="M228.652 336.832L258.666 375.237L299.819 394.764L269.804 356.36L228.652 336.832Z" stroke="white" stroke-opacity="0.3" stroke-width="2.66444" stroke-miterlimit="10"/>
<path d="M294.785 403.265L272.983 357.678L233.654 328.332L255.456 373.893L294.785 403.265Z" stroke="white" stroke-opacity="0.3" stroke-width="2.66444" stroke-miterlimit="10"/>
<path d="M241.547 321.023L252.379 371.826L286.923 410.573L276.064 359.77L241.547 321.023Z" stroke="white" stroke-opacity="0.3" stroke-width="2.66444" stroke-miterlimit="10"/>
<path d="M276.251 415.995L278.848 362.587L252.218 315.575L249.621 368.983L276.251 415.995Z" stroke="white" stroke-opacity="0.3" stroke-width="2.66444" stroke-miterlimit="10"/>
<path d="M265.369 312.686L247.384 365.491L263.095 418.885L281.081 366.08L265.369 312.686Z" stroke="white" stroke-opacity="0.3" stroke-width="2.66444" stroke-miterlimit="10"/>
<path d="M247.924 418.642L282.489 370.12L280.515 312.954L245.95 361.477L247.924 418.642Z" stroke="white" stroke-opacity="0.3" stroke-width="2.66444" stroke-miterlimit="10"/>
<path d="M296.998 316.82L245.525 357.093L231.468 414.777L282.941 374.478L296.998 316.82Z" stroke="white" stroke-opacity="0.3" stroke-width="2.66444" stroke-miterlimit="10"/>
<path d="M214.595 406.967L282.152 378.951L313.869 324.63L246.284 352.62L214.595 406.967Z" stroke="white" stroke-opacity="0.3" stroke-width="2.66444" stroke-miterlimit="10"/>
<path d="M330.029 336.47L248.421 348.339L198.44 395.127L280.047 383.258L330.029 336.47Z" stroke="white" stroke-opacity="0.3" stroke-width="2.66444" stroke-miterlimit="10"/>
<path d="M184.155 379.416L276.507 387.039L344.284 352.154L251.932 344.531L184.155 379.416Z" stroke="white" stroke-opacity="0.3" stroke-width="2.66444" stroke-miterlimit="10"/>
<path d="M355.37 371.286L256.849 341.6L173.069 360.285L271.59 389.997L355.37 371.286Z" stroke="white" stroke-opacity="0.3" stroke-width="2.66444" stroke-miterlimit="10"/>
<path d="M166.42 338.485L265.398 391.748L362.046 393.086L263.068 339.823L166.42 338.485Z" stroke="white" stroke-opacity="0.3" stroke-width="2.66444" stroke-miterlimit="10"/>
<path d="M363.113 416.453L270.322 339.546L165.356 315.142L258.147 392.023L363.113 416.453Z" stroke="white" stroke-opacity="0.3" stroke-width="2.66444" stroke-miterlimit="10"/>
<path d="M170.819 291.494L250.155 390.584L357.651 440.077L278.315 340.987L170.819 291.494Z" stroke="white" stroke-opacity="0.3" stroke-width="2.66444" stroke-miterlimit="10"/>
<path d="M344.975 462.411L286.618 344.358L183.469 269.185L241.826 387.213L344.975 462.411Z" stroke="white" stroke-opacity="0.3" stroke-width="2.66444" stroke-miterlimit="10"/>
<path d="M203.613 249.864L233.749 381.88L324.823 481.706L294.714 349.716L203.613 249.864Z" stroke="white" stroke-opacity="0.3" stroke-width="2.66444" stroke-miterlimit="10"/>
<path d="M297.386 496.233L302.015 356.988L231.054 235.364L226.452 374.608L297.386 496.233Z" stroke="white" stroke-opacity="0.3" stroke-width="2.66444" stroke-miterlimit="10"/>
<path d="M265.07 227.382L220.538 365.572L263.393 504.189L307.925 365.999L265.07 227.382Z" stroke="white" stroke-opacity="0.3" stroke-width="2.66444" stroke-miterlimit="10"/>
<path d="M224.06 504.032L311.784 376.445L304.405 227.538L216.653 355.126L224.06 504.032Z" stroke="white" stroke-opacity="0.3" stroke-width="2.66444" stroke-miterlimit="10"/>
<path d="M347.274 237.074L215.37 343.754L181.189 494.497L313.092 387.817L347.274 237.074Z" stroke="white" stroke-opacity="0.3" stroke-width="2.66444" stroke-miterlimit="10"/>
<path d="M137.14 474.73L311.25 399.501L391.324 256.866L217.213 332.069L137.14 474.73Z" stroke="white" stroke-opacity="0.3" stroke-width="2.66444" stroke-miterlimit="10"/>
<path d="M433.7 287.173L222.53 320.811L94.7352 444.423L305.931 410.759L433.7 287.173Z" stroke="white" stroke-opacity="0.3" stroke-width="2.66444" stroke-miterlimit="10"/>
<path d="M57.1367 403.967L296.919 420.771L471.332 327.604L231.523 310.8L57.1367 403.967Z" stroke="white" stroke-opacity="0.3" stroke-width="2.66444" stroke-miterlimit="10"/>
<path d="M500.834 377.1L244.16 302.978L27.6313 354.471L284.278 428.619L500.834 377.1Z" stroke="white" stroke-opacity="0.3" stroke-width="2.66444" stroke-miterlimit="10"/>
<path d="M9.48457 297.915L268.279 433.417L518.954 433.682L260.186 298.153L9.48457 297.915Z" stroke="white" stroke-opacity="0.3" stroke-width="2.66444" stroke-miterlimit="10"/>
<path d="M522.661 494.52L278.987 297.216L5.77738 237.077L249.478 434.381L522.661 494.52Z" stroke="white" stroke-opacity="0.3" stroke-width="2.66444" stroke-miterlimit="10"/>
<path d="M19.0199 175.314L228.678 430.862L509.445 556.257L299.787 300.709L19.0199 175.314Z" stroke="white" stroke-opacity="0.3" stroke-width="2.66444" stroke-miterlimit="10"/>
<path d="M477.467 614.858L321.429 309.194L50.9937 116.713L207.004 422.377L477.467 614.858Z" stroke="white" stroke-opacity="0.3" stroke-width="2.66444" stroke-miterlimit="10"/>
<path d="M102.472 65.7327L185.814 408.73L425.996 665.863L342.654 322.865L102.472 65.7327Z" stroke="white" stroke-opacity="0.3" stroke-width="2.66444" stroke-miterlimit="10"/>
<path d="M355.396 704.579L361.839 341.581L173.069 27.0177L166.599 389.99L355.396 704.579Z" stroke="white" stroke-opacity="0.3" stroke-width="2.66444" stroke-miterlimit="10"/>
<path d="M260.911 5.09262L150.938 366.683L267.524 726.478L377.525 364.914L260.911 5.09262Z" stroke="white" stroke-opacity="0.3" stroke-width="2.66444" stroke-miterlimit="10"/>
</svg>
