<svg xmlns="http://www.w3.org/2000/svg" width="1839" height="1122" fill="none"><mask id="a" width="371.584" height="423.311" x="401.521" y="158.797" fill="#000" maskUnits="userSpaceOnUse"><path fill="#fff" d="M401.521 158.797h371.584v423.311H401.521z"/><path d="m475.378 223.538 64.099 199.73c7.388 23.022 17.441 38.841 30.157 47.456 12.616 8.305 29.502 9.062 50.658 2.273 21.155-6.789 34.446-17.232 39.874-31.327 5.328-14.406 4.298-33.12-3.091-56.142l-64.099-199.731 69.066-22.165 61.703 192.264c7.688 23.955 12.044 45.548 13.068 64.779 1.236 18.82-1.432 35.633-8.005 50.438-6.672 14.495-17.198 27.138-31.578 37.93-14.481 10.481-33.387 19.465-56.72 26.953-23.333 7.488-43.937 11.184-61.812 11.087-17.975-.408-33.893-4.565-47.753-12.47-13.961-8.216-26.07-20.286-36.328-36.21-10.047-16.336-18.914-36.481-26.602-60.436l-61.703-192.264 69.066-22.165Z"/></mask><path fill="#632DAA" d="m475.378 223.538 3.078-.988-.988-3.078-3.078.988.988 3.078Zm94.256 247.186-1.813 2.677.018.012.018.012 1.777-2.701Zm90.532-29.054 3.017 1.162.008-.02.007-.02-3.032-1.122Zm-67.19-255.873-.988-3.078-3.078.988.988 3.078 3.078-.988Zm69.066-22.165 3.078-.988-.988-3.078-3.078.988.988 3.078Zm74.771 257.043-3.228.172.001.02.001.02 3.226-.212Zm-8.005 50.438 2.937 1.352.009-.02.009-.02-2.955-1.312Zm-31.578 37.93 1.895 2.619.023-.017.022-.016-1.94-2.586Zm-118.532 38.04-.073 3.232.028.001h.027l.018-3.233Zm-47.753-12.47-1.64 2.787.019.011.019.011 1.602-2.809Zm-36.328-36.21-2.754 1.693.018.029.018.028 2.718-1.75Zm-88.305-252.7-.988-3.078-3.078.988.988 3.078 3.078-.988Zm65.988-21.177 64.099 199.73 6.156-1.976-64.099-199.73-6.156 1.976Zm64.099 199.73c7.49 23.34 17.849 39.949 31.422 49.145l3.626-5.353c-11.86-8.036-21.605-23.064-28.892-45.768l-6.156 1.976Zm31.458 49.169c13.761 9.058 31.788 9.593 53.423 2.65l-1.976-6.156c-20.677 6.635-36.421 5.655-47.892-1.895l-3.555 5.401Zm53.423 2.65c21.634-6.943 35.983-17.868 41.903-33.243l-6.034-2.324c-4.935 12.816-17.169 22.775-37.845 29.411l1.976 6.156Zm41.918-33.283c5.687-15.377 4.446-34.912-3.044-58.252l-6.157 1.976c7.286 22.704 8.106 40.596 3.137 54.033l6.064 2.243Zm-3.044-58.252-64.099-199.731-6.157 1.976 64.099 199.731 6.157-1.976Zm-66.19-195.664 69.066-22.165-1.976-6.157-69.066 22.165 1.976 6.157Zm65-24.256 61.702 192.264 6.157-1.976-61.703-192.264-6.156 1.976Zm61.702 192.264c7.628 23.767 11.913 45.079 12.919 63.963l6.457-.344c-1.043-19.578-5.47-41.451-13.219-65.595l-6.157 1.976Zm12.921 64.003c1.207 18.383-1.406 34.66-7.734 48.915l5.91 2.623c6.817-15.357 9.541-32.706 8.276-51.962l-6.452.424Zm-7.715 48.874c-6.421 13.948-16.577 26.185-30.583 36.696l3.881 5.172c14.755-11.073 25.651-24.122 32.575-39.164l-5.873-2.704Zm-30.538 36.663c-14.123 10.222-32.692 19.074-55.812 26.494l1.976 6.157c23.546-7.557 42.789-16.674 57.627-27.413l-3.791-5.238Zm-55.812 26.494c-23.12 7.42-43.373 11.027-60.806 10.932l-.036 6.466c18.317.099 39.271-3.685 62.818-11.241l-1.976-6.157Zm-60.751 10.933c-17.507-.398-32.887-4.439-46.225-12.046l-3.203 5.617c14.384 8.203 30.839 12.474 49.282 12.893l.146-6.464Zm-46.187-12.024c-13.457-7.92-25.219-19.604-35.249-35.175l-5.436 3.501c10.485 16.278 22.942 28.734 37.406 37.247l3.279-5.573Zm-35.213-35.118c-9.876-16.058-18.646-35.95-26.277-59.73l-6.157 1.976c7.744 24.13 16.709 44.528 26.926 61.141l5.508-3.387Zm-26.277-59.73-61.703-192.264-6.157 1.976 61.703 192.264 6.157-1.976ZM407.3 248.781l69.066-22.165-1.976-6.156-69.066 22.165 1.976 6.156Z" mask="url(#a)"/><mask id="b" width="170.048" height="350.023" x="1210.07" y="640.189" fill="#000" maskUnits="userSpaceOnUse"><path fill="#fff" d="M1210.07 640.189h170.048v350.023H1210.07z"/><path d="M1376.61 986.19v-59.303l-44.11.007-.03-223.487 44.1-.006v-59.303l-162.72.023.01 59.302 44.11-.006.03 223.487-44.11.006.01 59.302 162.71-.022Z"/></mask><path fill="#632DAA" d="m1376.61 986.19 3.24-.001v3.233l-3.24.001v-3.233Zm0-59.303v-3.233h3.23v3.233h-3.23Zm-44.11.007v3.233h-3.24v-3.233h3.24Zm-.03-223.487h-3.24v-3.233h3.24v3.233Zm44.1-.006 3.24-.001v3.233l-3.23.001-.01-3.233Zm0-59.303v-3.233h3.23v3.233h-3.23Zm-162.72.023h-3.23v-3.233h3.23v3.233Zm.01 59.302v3.233l-3.23.001v-3.233l3.23-.001Zm44.11-.006v-3.233h3.23v3.233h-3.23Zm.03 223.487 3.23-.001v3.233l-3.23.001v-3.233Zm-44.11.006h-3.23v-3.233h3.23v3.233Zm.01 59.302v3.233l-3.23.001v-3.233l3.23-.001Zm159.48-.022-.01-59.302 6.47-.001.01 59.302-6.47.001Zm3.23-56.07-44.11.007v-6.466l44.11-.007v6.466Zm-47.35-3.226-.03-223.487 6.47-.001.03 223.487-6.47.001Zm3.21-226.72 44.1-.006.01 6.466-44.11.006v-6.466Zm40.87 3.227-.01-59.302 6.47-.001.01 59.302-6.47.001Zm3.23-56.07-162.72.023v-6.466l162.72-.023v6.466Zm-159.48-3.211v59.303l-6.46.001-.01-59.303 6.47-.001Zm-3.23 56.07 44.11-.006v6.466l-44.11.006v-6.466Zm47.34 3.227.03 223.486-6.46.001-.03-223.487h6.46Zm-3.2 226.72-44.11.006v-6.466l44.11-.006v6.466Zm-40.88-3.227.01 59.302-6.46.001-.01-59.303h6.46Zm-3.22 56.069 162.71-.022v6.466l-162.71.022v-6.466Z" mask="url(#b)"/><mask id="c" width="385.795" height="432.996" x="1405.45" y="245.361" fill="#000" maskUnits="userSpaceOnUse"><path fill="#fff" d="M1405.45 245.361h385.795v432.996H1405.45z"/><path d="M1662.35 627.087c-22.09 7.089-43.1 10.057-63.03 8.903-20.03-1.464-38.46-7.044-55.3-16.739-16.93-10.006-32.12-24.177-45.55-42.513-13.54-18.648-24.75-41.816-33.63-69.505-8.79-27.377-13.16-52.742-13.1-76.093-.05-23.663 3.86-44.647 11.71-62.952 7.75-18.615 19.3-34.502 34.63-47.66 15.34-13.157 34.05-23.28 56.14-30.369 30.18-9.685 57.06-11.45 80.66-5.296 23.49 5.843 45.39 20.089 65.7 42.74l-50.95 51.351c-8.75-12.29-19.09-20.983-31.01-26.076-11.72-5.505-26.45-5.411-44.18.28-20.85 6.689-35.45 18.925-43.81 36.707-8.15 17.372-8.08 38.968.2 64.79l16.78 52.266c8.28 25.822 20.85 43.58 37.68 53.275 17.05 9.284 36 10.582 56.84 3.892 17.42-5.591 29.77-14.701 37.04-27.329 7.48-13.039 11.57-27.046 12.25-42.021l68.65 15.029c-4.14 28.782-13.98 53.213-29.49 73.292-15.31 19.667-38.05 34.343-68.23 44.028Z"/></mask><path fill="#632DAA" d="m1599.32 635.99-.23 3.225.02.002.03.001.18-3.228Zm-55.3-16.739-1.64 2.784.01.009.02.009 1.61-2.802Zm-45.55-42.513-2.62 1.899v.005l.01.006 2.61-1.91Zm-46.73-145.598 3.23.007v-.013l-3.23.006Zm11.71-62.952 2.97 1.275.01-.016v-.016l-2.98-1.243Zm34.63-47.66-2.1-2.453 2.1 2.453Zm136.8-35.665-.82 3.128.02.005.02.004.78-3.137Zm65.7 42.74 2.3 2.277 2.14-2.165-2.03-2.271-2.41 2.159Zm-50.95 51.351-2.63 1.875 2.22 3.127 2.71-2.724-2.3-2.278Zm-31.01-26.076-1.38 2.926.05.025.06.022 1.27-2.973Zm-87.99 36.987-2.93-1.375v.002l2.93 1.373Zm54.66 170.331-1.61 2.802.03.019.04.019 1.54-2.84Zm93.88-23.437 2.8 1.614.01-.005-2.81-1.609Zm12.25-42.021.69-3.158-3.74-.82-.18 3.831 3.23.147Zm68.65 15.029 3.2.461.43-2.976-2.94-.643-.69 3.158Zm-29.49 73.292 2.55 1.985v-.008l-2.55-1.977Zm-69.22 40.95c-21.77 6.986-42.38 9.881-61.85 8.754l-.37 6.455c20.38 1.18 41.79-1.861 64.2-9.052l-1.98-6.157Zm-61.8 8.757c-19.56-1.43-37.52-6.872-53.92-16.316l-3.23 5.603c17.27 9.946 36.18 15.663 56.68 17.162l.47-6.449Zm-53.89-16.298c-16.51-9.752-31.38-23.603-44.6-41.641l-5.21 3.821c13.65 18.635 29.15 33.126 46.52 43.387l3.29-5.567Zm-44.59-41.629c-13.29-18.309-24.36-41.15-33.17-68.594l-6.15 1.976c8.96 27.934 20.31 51.429 34.09 70.416l5.23-3.798Zm-33.17-68.594c-8.7-27.127-12.99-52.151-12.94-75.098l-6.46-.015c-.06 23.757 4.38 49.462 13.25 77.089l6.15-1.976Zm-12.94-75.111c-.04-23.305 3.8-43.84 11.45-61.671l-5.94-2.549c-8.06 18.778-12.02 40.21-11.97 64.232l6.46-.012Zm11.46-61.703c7.56-18.148 18.8-33.62 33.76-46.449l-4.21-4.907c-15.72 13.486-27.57 29.787-35.51 48.871l5.96 2.485Zm33.76-46.449c14.96-12.838 33.28-22.768 55.02-29.745l-1.98-6.157c-22.44 7.202-41.54 17.518-57.25 30.995l4.21 4.907Zm55.02-29.745c29.76-9.552 56-11.205 78.85-5.246l1.63-6.256c-24.34-6.35-51.87-4.472-82.46 5.345l1.98 6.157ZM1634.1 288c22.72 5.651 44.09 19.469 64.07 41.761l4.82-4.317c-20.63-23.008-43.07-37.683-67.33-43.719L1634.1 288Zm64.19 37.325-50.95 51.352 4.59 4.555 50.95-51.352-4.59-4.555Zm-46.02 51.755c-9.04-12.696-19.82-21.812-32.39-27.175l-2.53 5.946c11.29 4.824 21.19 13.092 29.65 24.978l5.27-3.749Zm-32.28-27.128c-12.73-5.979-28.37-5.705-46.54.127l1.98 6.157c17.29-5.55 31.1-5.462 41.81-.432l2.75-5.852Zm-46.54.127c-21.59 6.929-36.96 19.719-45.75 38.411l5.85 2.751c7.94-16.873 21.78-28.555 41.88-35.005l-1.98-6.157Zm-45.75 38.413c-8.62 18.369-8.38 40.873.05 67.151l6.16-1.976c-8.14-25.365-8.04-46.054-.35-62.428l-5.86-2.747Zm.05 67.151 16.78 52.266 6.15-1.976-16.77-52.266-6.16 1.976Zm16.78 52.266c8.43 26.284 21.38 44.858 39.15 55.089l3.23-5.603c-15.91-9.159-28.09-26.102-36.23-51.462l-6.15 1.976Zm39.22 55.127c17.92 9.762 37.8 11.052 59.37 4.13l-1.98-6.156c-20.12 6.457-38.13 5.152-54.3-3.653l-3.09 5.679Zm59.37 4.13c17.98-5.771 31.09-15.303 38.85-28.793l-5.6-3.227c-6.77 11.766-18.37 20.453-35.23 25.864l1.98 6.156Zm38.86-28.798c7.73-13.484 11.96-27.991 12.67-43.482l-6.46-.295c-.66 14.459-4.59 27.965-11.82 40.559l5.61 3.218Zm8.75-40.472 68.65 15.029 1.38-6.316-68.65-15.029-1.38 6.316Zm66.14 11.41c-4.08 28.312-13.72 52.199-28.85 71.775l5.11 3.955c15.91-20.582 25.93-45.555 30.14-74.808l-6.4-.922Zm-28.85 71.767c-14.81 19.031-36.93 33.396-66.66 42.936l1.98 6.157c30.63-9.83 53.99-24.817 69.79-45.122l-5.11-3.971Z" mask="url(#c)"/><mask id="d" width="334.697" height="406.348" x="806.567" y="413.246" fill="#000" maskUnits="userSpaceOnUse"><path fill="#fff" d="M806.567 413.246h334.697v406.348H806.567z"/><path d="M939.48 789.923c-29.533-5.602-53.628-15.327-72.286-29.175-18.596-14.169-33.594-30.649-44.995-49.44l57.376-39.5c17.921 30.004 43.574 48.173 76.959 54.505 17.976 3.41 31.999 2.245 42.066-3.494 10.07-5.739 16.26-14.708 18.57-26.906 1.77-9.31.66-17.501-3.32-24.575-3.92-7.394-13.53-13.707-28.83-18.937l-32.403-10.636c-34.78-11.253-58.902-26.969-72.368-47.149-13.144-20.119-17.037-44.303-11.679-72.552 2.862-15.088 8.369-28.343 16.522-39.767 8.153-11.423 18.379-20.624 30.677-27.603 12.62-6.918 27.09-11.324 43.412-13.216 16.704-2.153 35.007-1.341 54.909 2.434 25.36 4.81 46.91 13.055 64.65 24.733 17.74 11.679 32.05 26.532 42.93 44.559l-57.95 39.889c-6.26-10.831-14.62-20.232-25.08-28.202-10.08-8.231-23.79-13.99-41.122-17.278-16.371-3.105-29.118-2.53-38.239 1.726-9.121 4.256-14.656 11.52-16.605 21.792-2.192 11.557-.725 20.482 4.4 26.775 5.446 6.354 15.018 11.994 28.716 16.92l32.22 11.599c33.63 12.033 57.28 27.658 70.92 46.875 13.71 18.896 17.8 42.95 12.26 72.162-3.05 16.05-8.74 30.269-17.07 42.655-8.34 12.387-19.04 22.33-32.1 29.829-12.74 7.56-27.82 12.516-45.223 14.868-17.346 2.031-36.452 1.067-57.317-2.891Z"/></mask><path fill="#632DAA" d="m867.194 760.748-1.959 2.571.016.013.017.012 1.926-2.596Zm-44.995-49.44-1.834-2.663-2.514 1.731 1.583 2.609 2.765-1.677Zm57.376-39.5 2.776-1.658-1.769-2.96-2.84 1.955 1.833 2.663ZM998.6 722.819l1.6 2.809-1.6-2.809Zm15.25-51.481-2.85 1.514.01.036.02.036 2.82-1.586Zm-28.83-18.937 1.046-3.06-.019-.006-.019-.006-1.008 3.072Zm-32.403-10.636 1.009-3.072-.013-.004-.996 3.076Zm-72.368-47.149-2.706 1.768.008.013.009.013 2.689-1.794Zm4.843-112.319-2.631-1.878 2.631 1.878Zm30.677-27.603-1.554-2.835-.021.011-.02.012 1.595 2.812Zm43.412-13.216.372 3.211.021-.002.02-.003-.413-3.206Zm119.559 27.167 1.78-2.7-1.78 2.7Zm42.93 44.559 1.83 2.663 2.51-1.727-1.58-2.607-2.76 1.671Zm-57.95 39.889-2.8 1.618 1.75 3.029 2.88-1.983-1.83-2.664Zm-25.08-28.202-2.05 2.504.05.034.04.033 1.96-2.571Zm-79.361-15.552 1.367 2.93-1.367-2.93Zm-12.205 48.567-2.507 2.041.025.032.027.031 2.455-2.104Zm28.716 16.92 1.095-3.042h-.001l-1.094 3.042Zm32.22 11.599-1.1 3.042.01.002 1.09-3.044Zm70.92 46.875-2.63 1.872.01.013.01.014 2.61-1.899Zm-36.91 144.646-1.61-2.804-.02.012-.02.012 1.65 2.78Zm-45.223 14.868.376 3.211.028-.004.029-.003-.433-3.204Zm-56.715-6.067c-29.189-5.537-52.793-15.11-70.961-28.595l-3.853 5.192c19.146 14.212 43.732 24.088 73.609 29.756l1.205-6.353Zm-70.928-28.571c-18.295-13.94-33.013-30.122-44.191-48.545l-5.529 3.354c11.624 19.158 26.904 35.936 45.801 50.334l3.919-5.143Zm-45.122-44.205 57.376-39.5-3.666-5.326-57.377 39.5 3.667 5.326Zm52.767-40.505c18.38 30.772 44.81 49.513 79.132 56.024l1.205-6.353c-32.448-6.155-57.323-23.75-74.785-52.987l-5.552 3.316Zm79.132 56.024c18.318 3.474 33.243 2.424 44.269-3.862l-3.201-5.618c-9.108 5.193-22.228 6.472-39.863 3.127l-1.205 6.353Zm44.269-3.862c10.96-6.245 17.67-16.059 20.15-29.113l-6.35-1.205c-2.16 11.343-7.82 19.467-17.001 24.7l3.201 5.618Zm20.15-29.113c1.88-9.926.73-18.916-3.68-26.762l-5.64 3.171c3.55 6.3 4.62 13.693 2.97 22.386l6.35 1.205Zm-3.64-26.69c-4.53-8.552-15.2-15.204-30.644-20.484l-2.092 6.119c15.16 5.182 23.716 11.155 27.026 17.392l5.71-3.027Zm-30.682-20.496-32.402-10.636-2.017 6.144 32.403 10.635 2.016-6.143Zm-32.415-10.64c-34.423-11.137-57.773-26.533-70.674-45.868l-5.379 3.589c14.03 21.025 38.925 37.062 74.062 48.431l1.991-6.152Zm-70.657-45.842c-12.6-19.285-16.444-42.581-11.209-70.181l-6.353-1.205c-5.482 28.899-1.54 53.97 12.149 74.923l5.413-3.537Zm-11.209-70.181c2.783-14.671 8.121-27.483 15.977-38.491l-5.263-3.756c-8.45 11.839-14.126 25.539-17.067 41.042l6.353 1.205Zm15.977-38.491c7.877-11.037 17.748-19.921 29.641-26.669l-3.191-5.624c-12.705 7.209-23.285 16.728-31.713 28.537l5.263 3.756Zm29.599-26.646c12.206-6.691 26.265-10.988 42.23-12.84l-.744-6.423c-16.678 1.934-31.561 6.448-44.594 13.593l3.108 5.67Zm42.271-12.845c16.305-2.101 34.261-1.32 53.896 2.404l1.2-6.353c-20.169-3.826-38.82-4.667-55.922-2.464l.826 6.413Zm53.896 2.404c25.03 4.748 46.16 12.858 63.47 24.258l3.56-5.401c-18.17-11.958-40.14-20.336-65.83-25.21l-1.2 6.353Zm63.47 24.258c17.34 11.416 31.31 25.918 41.94 43.528l5.53-3.341c-11.13-18.443-25.78-33.647-43.91-45.588l-3.56 5.401Zm42.87 39.194-57.95 39.89 3.67 5.327 57.95-39.89-3.67-5.327Zm-53.31 40.936c-6.49-11.221-15.14-20.941-25.92-29.157l-3.92 5.143c10.14 7.725 18.2 16.807 24.24 27.249l5.6-3.235Zm-25.84-29.089c-10.62-8.671-24.88-14.596-42.559-17.95l-1.205 6.352c16.984 3.222 30.134 8.816 39.674 16.606l4.09-5.008Zm-42.559-17.95c-16.641-3.157-30.188-2.704-40.209 1.972l2.734 5.86c8.221-3.836 20.168-4.534 36.27-1.48l1.205-6.352Zm-40.209 1.972c-10.106 4.716-16.281 12.873-18.414 24.12l6.353 1.205c1.763-9.298 6.658-15.669 14.795-19.465l-2.734-5.86Zm-18.414 24.12c-2.288 12.06-.89 22.101 5.069 29.418l5.014-4.083c-4.291-5.269-5.827-13.077-3.73-24.13l-6.353-1.205Zm5.121 29.481c5.989 6.988 16.19 12.864 30.077 17.858l2.188-6.084c-13.51-4.859-22.453-10.262-27.356-15.982l-4.909 4.208Zm30.076 17.858 32.215 11.599 2.2-6.084-32.225-11.599-2.19 6.084Zm32.225 11.601c33.31 11.918 56.26 27.239 69.38 45.703l5.27-3.744c-14.18-19.969-38.52-35.899-72.47-48.047l-2.18 6.088Zm69.4 45.73c13.05 17.989 17.11 41.07 11.69 69.66l6.35 1.205c5.66-29.833 1.56-54.86-12.81-74.662l-5.23 3.797Zm11.69 69.66c-2.97 15.662-8.51 29.463-16.58 41.453l5.37 3.61c8.6-12.782 14.44-27.418 17.56-43.858l-6.35-1.205Zm-16.58 41.453c-8.05 11.972-18.38 21.575-31.02 28.83l3.22 5.608c13.49-7.744 24.55-18.027 33.17-30.828l-5.37-3.61Zm-31.06 28.854c-12.31 7.301-26.95 12.14-44.006 14.444l.866 6.408c17.76-2.4 33.26-7.473 46.44-15.292l-3.3-5.56Zm-43.949 14.437c-16.958 1.985-35.728 1.053-56.339-2.856l-1.205 6.353c21.121 4.006 40.563 5.001 58.296 2.925l-.752-6.422Z" mask="url(#d)"/><mask id="e" width="324" height="340" x="33.0811" y="455.217" fill="#000" maskUnits="userSpaceOnUse"><path fill="#fff" d="M33.0811 455.217h324v340h-324z"/><path d="M284.91 573.434h-1.426l-24.251 48.502-64.669 117.45-63.243-116.975-25.202-52.305h-1.426v221.111H36.6952V459.312h76.5568l81.312 155.491h.951l80.361-155.491h77.032v331.905H284.91V573.434Z"/></mask><path fill="#632DAA" d="M284.91 573.434h3.233v-3.233h-3.233v3.233Zm-1.426 0v-3.233h-1.998l-.894 1.787 2.892 1.446Zm-24.251 48.502 2.832 1.559.031-.056.029-.057-2.892-1.446Zm-64.669 117.45-2.844 1.538 2.818 5.212 2.858-5.19-2.832-1.56Zm-63.243-116.975-2.912 1.404.032.068.036.066 2.844-1.538Zm-25.202-52.305 2.913-1.404-.882-1.829h-2.031v3.233Zm-1.426 0v-3.233h-3.233v3.233h3.233Zm0 221.111v3.233h3.233v-3.233h-3.233Zm-67.9978 0h-3.233v3.233h3.233v-3.233Zm0-331.905v-3.233h-3.233v3.233h3.233Zm76.5568 0 2.865-1.498-.907-1.735h-1.958v3.233Zm81.312 155.491-2.865 1.499.907 1.734h1.958v-3.233Zm.951 0v3.233h1.968l.904-1.748-2.872-1.485Zm80.361-155.491v-3.233h-1.969l-.903 1.749 2.872 1.484Zm77.032 0h3.233v-3.233h-3.233v3.233Zm0 331.905v3.233h3.233v-3.233h-3.233Zm-67.998 0h-3.233v3.233h3.233v-3.233Zm0-221.016h-1.426v6.466h1.426v-6.466Zm-4.318 1.787-24.251 48.502 5.784 2.892 24.25-48.502-5.783-2.892Zm-24.191 48.389-64.669 117.45 5.664 3.119 64.669-117.451-5.664-3.118Zm-58.993 117.472-63.243-116.975-5.688 3.075 63.243 116.975 5.688-3.075Zm-63.174-116.841-25.202-52.306-5.825 2.807 25.202 52.306 5.825-2.807Zm-28.115-54.135h-1.426v6.466h1.426v-6.466Zm-4.659 3.233v221.111h6.466V570.106h-6.466Zm3.233 217.878H36.6952v6.466h67.9978v-6.466Zm-64.7648 3.233V459.312h-6.466v331.905h6.466Zm-3.233-328.672h76.5568v-6.466H36.6952v6.466Zm73.6918-1.735 81.312 155.492 5.73-2.997-81.312-155.491-5.73 2.996Zm84.177 157.226h.951v-6.466h-.951v6.466Zm3.823-1.748 80.361-155.491-5.744-2.969-80.361 155.491 5.744 2.969Zm77.489-153.743h77.032v-6.466h-77.032v6.466Zm73.799-3.233v331.905h6.466V459.312h-6.466Zm3.233 328.672H284.91v6.466h67.998v-6.466Zm-64.765 3.233V573.434h-6.466v217.783h6.466Z" mask="url(#e)"/></svg>