<svg width="845" height="937" viewBox="0 0 845 937" fill="none" xmlns="http://www.w3.org/2000/svg">
<path d="M835.672 102.212C781.378 63.7532 721.199 32.5557 656.803 14.6129C603.327 -0.262251 546.026 -5.35052 492.259 11.0332C468.171 18.5261 445.423 29.788 424.861 44.4C404.275 58.8963 383.807 75.9486 370.961 97.9744C343.809 144.566 364.922 199.424 386.69 243.507C413.154 296.778 447.049 346.105 478.423 396.42C494.264 421.623 509.642 447.062 523.347 473.419C539.28 504.654 552.969 536.982 564.312 570.161C576.086 603.672 587.442 637.339 596.615 671.942C604.253 700.489 610.487 729.799 611.196 759.469C612.149 798.395 603.033 838.059 578.686 869.208C554.998 899.445 520.036 917.754 483.123 926.408C435.048 937.698 384.196 934.191 336.17 924.572C322.097 921.771 308.184 918.316 294.38 914.466C292.574 913.958 292.032 916.83 293.809 917.332C343.856 931.317 396.604 939.819 448.623 934.917C487.695 931.133 526.772 919.542 557.635 894.726C585.575 871.818 604.45 839.715 610.882 804.162C620.99 751.883 608.114 698.307 593.224 648.263C573.832 583.259 551.598 518.166 518.92 458.533C489.79 405.328 455.15 355.405 423.724 303.56C408.551 279.196 394.83 253.958 382.629 227.979C372.918 206.558 364.415 184.008 361.677 160.638C359.888 145.99 361.35 131.129 365.958 117.11C370.567 103.092 378.208 90.2617 388.338 79.5322C405.967 60.7512 426.492 44.9177 449.133 32.6342C498.621 5.1184 555.779 -1.20428 611.209 7.59386C673.546 17.4689 733.336 42.54 787.343 74.5054C803.181 83.8558 818.598 93.8772 833.594 104.569C835.108 105.646 837.06 103.472 835.523 102.361L835.672 102.212Z" fill="#632DAA"/>
<path d="M838.013 99.1325C790.013 67.3793 737.771 41.6651 682.14 26.3907C634.123 13.1383 583.436 7.75734 534.35 17.8323C509.709 22.963 486.007 31.8639 464.08 44.221C441.902 56.4411 421.441 71.5462 403.232 89.1418C385.859 106.214 372.983 127.34 370.071 151.85C367.159 176.36 373.268 200.609 381.484 223.252C401.043 277.085 433.218 325.921 462.928 374.564C492.638 423.207 522.137 472.762 542.424 526.68C552.863 554.473 561.573 582.876 569.875 611.376C578.827 640.443 585.994 670.031 591.334 699.974C599.582 750.602 597.242 805.023 568.73 849.318C517.622 928.985 411.708 935.943 327.329 920.935C314.18 918.586 301.161 915.727 288.24 912.38C286.405 912.015 285.835 914.881 287.669 915.246C370.088 936.359 473.671 943.806 542.604 883.868C577.411 853.609 595.126 809.817 598.036 764.359C601.737 706.544 584.387 648.948 567.962 594.189C559.568 566.148 550.585 538.227 539.601 511.071C528.944 485.078 516.616 459.802 502.697 435.4C474.452 385.082 442.147 337.353 414.555 286.747C400.949 261.84 388.219 236.124 379.929 208.908C372.221 184.012 368.711 156.734 377.892 131.565C386.76 107.526 405.479 89.3804 425.146 73.8075C445.882 57.187 468.836 43.5429 493.345 33.2701C594.683 -7.88232 710.844 27.992 801.183 79.8232C813.252 86.7546 825.085 94.076 836.68 101.787C838.235 102.812 839.527 100.209 837.996 99.0695L838.013 99.1325Z" fill="#632DAA"/>
<path d="M840.704 96.2416C754.083 43.2435 645.819 5.87181 544.129 32.1747C519.861 38.6222 496.619 48.4504 475.088 61.3706C453.97 73.6165 434.282 88.1768 416.387 104.782C399.409 120.92 386.125 140.654 382.123 164.202C378.19 187.257 382.813 210.734 389.814 232.598C406.621 284.99 436.846 332.692 464.457 379.904C492.757 428.297 519.922 476.85 537.79 530.198C546.922 557.373 554.393 585.112 561.37 612.931C568.725 640.747 574.206 669.024 577.777 697.573C583.347 746.984 577.762 799.15 550.061 841.61C527.408 876.374 491.919 900.18 452.607 912.052C409.852 924.906 363.995 924.599 320.3 918.077C307.397 916.134 294.579 913.613 281.876 910.667C280.041 910.302 279.471 913.168 281.305 913.533C361.578 932.103 458.004 934.639 523.706 876.71C557.711 846.738 576.574 804.068 581.404 759.44C587.36 704.368 574.093 649.015 560.277 596.116C553.232 569.237 545.671 542.553 536.27 516.278C527.013 490.949 515.988 466.301 503.276 442.518C477.181 393.075 446.59 346.163 420.799 296.542C408.093 272.053 396.315 246.645 389.27 219.915C382.897 195.792 380.77 169.802 390.383 146.209C399.572 123.694 417.478 106.489 436.315 91.7938C457.189 75.1245 479.941 60.9524 504.106 49.566C600.931 5.489 713.408 30.9758 803.812 78.5887C815.949 84.9775 827.863 91.739 839.554 98.8733C841.143 99.8748 842.47 97.2487 840.899 96.1612L840.704 96.2416Z" fill="#632DAA"/>
<path d="M843.367 93.3448C756.251 44.4795 650.018 15.9149 552.053 47.4586C528.914 55.142 506.808 65.6434 486.234 78.7262C465.718 91.1134 446.434 105.435 428.645 121.495C412.508 136.549 399.292 154.895 394.354 176.708C389.205 199.282 392.884 223.018 399.214 244.957C413.91 295.826 442.18 342.276 467.703 388.298C480.706 411.744 493.681 435.185 505 459.607C516.251 483.741 525.586 508.724 532.917 534.323C540.633 561.128 546.911 588.42 552.478 615.69C558.251 642.365 562.067 669.426 563.895 696.658C566.576 745.165 557.71 795.546 529.888 836.224C507.232 868.62 474.682 892.797 437.121 905.125C396.877 918.688 353.337 919.914 311.488 914.743C299.353 913.281 287.281 911.206 275.283 908.759C274.903 908.683 274.509 908.761 274.186 908.977C273.864 909.192 273.641 909.526 273.565 909.906C273.489 910.287 273.568 910.681 273.783 911.003C273.998 911.326 274.333 911.549 274.713 911.625C352.696 927.624 442.126 925.49 504.506 869.58C537.147 840.321 556.688 799.931 563.779 757.123C572.476 704.444 563.251 650.939 551.999 599.385C546.226 572.849 539.943 546.33 531.804 520.455C523.777 495.173 513.816 470.547 502.008 446.794C478.287 398.599 449.623 352.935 426.172 304.733C415.003 281.652 404.762 257.802 398.956 232.779C393.392 208.936 392.383 183.467 402.604 160.71C412.281 139.185 429.896 122.697 448.321 108.575C468.276 92.982 489.578 79.1931 511.975 67.3717C555.73 45.1445 604.576 34.8548 653.58 37.5416C706.969 40.1232 759.614 55.2799 807.687 78.2871C819.303 83.8472 830.8 89.7112 842.028 96.0283C843.662 96.9495 844.989 94.3234 843.372 93.3161L843.367 93.3448Z" fill="#632DAA"/>
<path d="M846.029 90.448C760.162 46.8372 658.448 27.7538 565.809 61.1323C543.472 69.4106 522.103 80.094 502.077 92.9941C481.838 105.439 462.565 119.393 444.424 134.737C427.851 149.138 413.498 166.454 407.053 187.757C400.608 209.061 402.503 232.024 407.486 253.398C419.011 302.831 445.234 348.188 468.561 392.819C480.446 415.596 492.256 438.447 502.44 462.137C512.564 485.952 520.68 510.572 526.705 535.739C533.149 562.2 538.137 589.087 542.288 615.986C546.615 641.874 548.934 668.058 549.226 694.304C549.178 741.255 538.246 789.139 511.5 828.303C489.687 860.032 458.747 884.383 422.78 898.129C384.869 912.693 343.429 915.499 303.26 911.765C291.734 910.692 280.258 909.063 268.834 907.028C266.999 906.663 266.429 909.529 268.263 909.894C309.65 917.238 352.585 919.199 393.831 909.887C428.574 902.38 460.687 885.742 486.857 861.687C517.9 832.676 537.729 793.684 546.385 752.29C556.89 701.908 551.329 650.205 542.737 599.955C534.146 549.705 522.585 499.401 501.416 452.309C480.247 405.217 453.694 361.224 432.531 314.402C413.481 272.231 392.965 218.267 416.204 173.667C427.046 152.881 445.217 137.189 463.786 123.543C483.918 108.21 505.121 94.3366 527.233 82.0298C569.208 59.3261 616.116 47.2777 663.836 46.943C715.329 47.2287 766.22 58.0375 813.384 78.7059C823.956 83.2239 834.426 87.9598 844.684 93.1602C844.862 93.2484 845.056 93.3008 845.254 93.3142C845.453 93.3276 845.652 93.3018 845.84 93.2383C846.028 93.1748 846.202 93.0748 846.352 92.9441C846.502 92.8133 846.624 92.6543 846.713 92.4763C846.801 92.2982 846.853 92.1045 846.867 91.9062C846.88 91.7078 846.854 91.5088 846.791 91.3205C846.727 91.1322 846.627 90.9582 846.496 90.8085C846.366 90.6588 846.207 90.5363 846.029 90.448Z" fill="#632DAA"/>
<path d="M848.686 87.5794C763.792 49.1087 665.555 39.8055 578.07 75.4316C556.312 84.5341 535.466 95.6799 515.813 108.719C495.794 121.357 476.539 135.165 458.148 150.072C442.21 163.378 427.741 179.181 420.033 198.743C412.125 218.862 412.243 241.174 415.925 262.198C424.464 310.769 448.955 355.543 470.218 399.465C480.761 421.349 491.275 443.376 499.996 466.179C508.911 489.919 515.674 514.411 520.204 539.361C524.898 564.133 528.371 589.348 530.968 614.477C534.011 640.177 534.884 666.087 533.578 691.934C530.416 737.759 518.348 783.42 491.979 821.586C470.914 852.358 441.609 876.575 407.42 891.465C372.267 906.548 333.59 910.888 295.647 908.699C284.418 908.073 273.224 906.828 262.075 905.205C260.241 904.84 259.67 907.706 261.504 908.072C300.878 913.853 341.525 914.285 380.202 903.956C413.054 895.231 443.151 878.306 467.674 854.77C497.823 825.759 517.956 787.782 528.081 747.395C540.216 699.155 538.169 649.105 532.284 600.079C526.399 551.053 517.986 502.746 499.535 456.969C481.084 411.193 456.296 367.91 437.479 322.18C420.16 279.996 404.11 227.695 429.936 185.518C441.983 165.865 460.384 151.262 478.798 137.943C498.211 123.55 518.349 110.164 539.135 97.8368C579.752 74.1326 625.243 60.0123 672.144 56.552C721.571 53.5429 771.078 60.9605 817.453 78.3234C827.526 82.0567 837.554 85.8703 847.353 90.2343C849.073 91.0236 850.4 88.3974 848.697 87.5221L848.686 87.5794Z" fill="#632DAA"/>
<path d="M851.348 84.6831C767.663 51.5185 672.466 52.3856 590.388 89.5944C569.521 99.3324 549.474 110.738 530.441 123.699C510.932 136.682 491.252 149.928 472.919 164.485C457.043 177.028 442.207 191.685 433.392 210.074C424.279 228.909 422.608 250.478 424.908 270.96C430.322 318.611 452.99 362.962 472.098 406.187C481.887 427.518 490.541 449.352 498.024 471.598C505.235 494.763 510.327 518.536 513.237 542.623C524.956 634.348 527.502 735.332 472.824 814.675C452.655 844.448 425.142 868.51 392.948 884.533C360.305 900.324 323.957 906.14 287.94 905.348C277.137 905.135 266.361 904.331 255.614 903.086C253.745 902.892 253.175 905.759 255.043 905.952C292.599 910.239 331.215 909.194 367.501 897.704C398.219 887.84 426.134 870.778 448.921 847.938C477.158 819.117 497.83 783.761 509.096 745.017C523.056 698.988 524.679 650.711 521.804 603.029C518.929 555.347 513.893 508.04 498.303 463.012C482.712 417.984 460.052 375.988 443.533 331.431C427.721 288.713 415.718 237.039 444.607 196.99C457.321 179.378 474.772 166.105 492.327 153.658C512.116 139.718 531.904 125.48 552.68 112.87C592.016 88.1515 636.205 72.1766 682.253 66.0271C728.302 59.8777 775.134 63.6973 819.578 77.2273C829.88 80.2611 840.17 83.3523 850.17 87.3092C851.907 88.0125 853.228 85.415 851.514 84.597L851.348 84.6831Z" fill="#632DAA"/>
<path d="M853.632 81.7406C833.616 75.3134 812.975 71.0251 792.055 68.9476C770.587 66.5238 748.934 66.2059 727.404 67.9984C684.481 71.9089 642.678 83.866 604.179 103.245C584.427 113.301 565.384 124.693 547.184 137.341C527.921 150.283 508.802 163.403 490.24 177.169C474.375 188.91 459.17 202.272 448.6 219.149C438.284 236.637 433.249 256.735 434.101 277.02C434.946 322.629 455.114 366.066 471.493 407.735C480.233 428.76 487.751 450.274 494.007 472.168C499.898 495.129 503.608 518.594 505.087 542.252C511.703 631.769 506.857 727.974 455.759 805.05C436.556 834.77 410.554 859.491 379.902 877.168C349.502 894.121 315.018 901.649 280.396 902.386C269.953 902.602 259.568 902.233 249.096 901.4C247.25 901.242 246.651 904.102 248.525 904.267C284.549 907.116 321.336 904.486 355.317 891.703C384.554 880.41 410.815 862.57 432.086 839.552C459.248 810.073 479.582 774.972 491.643 736.746C506.028 692.618 510.295 646.179 510.075 599.979C509.873 554.438 507.687 508.234 494.831 464.287C481.711 419.423 460.191 377.535 446.848 332.746C440.299 310.852 435.584 287.685 437.386 264.712C438.854 243.108 447.421 222.594 461.753 206.362C475.952 190.118 493.862 177.98 511.578 165.624C530.966 152.051 550.17 138.204 570.201 125.594C608.104 101.791 650.052 83.7104 694.124 75.3193C737.264 67.0647 781.629 67.6243 824.547 76.9645C834.235 78.9031 843.812 81.3565 853.239 84.3143C854.993 84.9317 855.564 82.0655 853.81 81.4481L853.632 81.7406Z" fill="#632DAA"/>
<path d="M856.306 78.7865C838.454 73.8625 819.029 72.3501 800.58 71.6277C779.679 70.8537 758.752 72.0763 738.083 75.2788C696.36 82.0575 656.099 95.9005 619.029 116.213C599.461 126.986 580.543 138.901 562.374 151.896C543.927 164.732 525.539 177.57 507.211 190.41C491.105 201.716 475.258 214.265 463.535 230.197C452.13 245.989 445.433 264.688 444.218 284.129C440.791 328.143 458.093 370.86 472.029 411.626C479.662 432.526 485.867 453.921 490.6 475.662C494.683 498.138 496.698 520.941 496.618 543.784C497.495 630.848 485.87 722.486 437.658 797.037C418.972 825.946 394.896 852.292 365.557 870.648C336.784 888.098 304.065 897.986 270.443 899.392C261.01 899.928 251.565 899.925 242.108 899.533C240.245 899.46 240.471 902.365 242.311 902.553C276.884 904.011 311.927 899.663 343.763 885.529C371.489 872.72 396.095 854.028 415.87 830.752C471.972 766.561 492.996 681.294 497.797 598.042C500.335 553.851 501.331 508.876 491.227 465.626C481.123 422.375 461.667 381.047 451.804 337.338C446.935 315.838 444.496 293.213 448.751 271.384C452.808 251.034 463.014 232.42 477.989 218.056C493.272 202.803 511.567 191.277 529.186 178.962C548.041 165.819 566.604 152.202 585.861 139.587C621.89 115.351 661.596 97.0934 703.446 85.5182C744.69 74.471 787.696 71.5927 830.044 77.0454C838.707 77.9604 847.297 79.4711 855.753 81.5667C857.587 81.9318 858.158 79.0656 856.323 78.7005L856.306 78.7865Z" fill="#632DAA"/>
<path d="M858.969 75.8896C850.8 74.4943 842.522 73.8439 834.236 73.9465C824.756 73.6686 815.277 73.6888 805.809 74.2478C786.774 75.3977 767.866 78.1122 749.277 82.3638C708.879 91.958 670.158 107.586 634.418 128.721C596.875 150.42 563.212 177.927 527.132 201.854C510.934 212.575 494.839 223.972 481.561 238.284C468.531 252.309 459.599 269.639 455.736 288.388C446.64 330.797 461.048 373.981 472.353 414.491C478.689 435.262 483.43 456.487 486.533 477.981C488.876 499.866 489.174 521.921 487.425 543.862C481.812 628.501 465.586 715.558 420.032 788.433C402.159 816.998 379.855 843.875 352.259 863.502C325.819 882 295.034 893.326 262.91 896.373C253.91 897.285 244.87 897.734 235.825 897.716C233.95 897.7 234.177 900.606 236.028 900.736C268.794 900.792 301.297 894.985 330.622 880.142C357.46 866.563 379.994 846.167 398.967 823.007C452.019 758.269 475.728 675.383 485.516 593.571C490.527 551.779 494.809 509.008 487.927 467.084C480.81 423.951 463.234 383.206 457.532 339.848C454.68 318.095 455.296 295.84 462.607 274.977C469.467 255.484 482.726 239.917 498.338 226.755C513.949 213.593 531.552 202.704 548.368 190.825C566.524 178.05 584.308 164.754 602.596 152.215C670.012 106.038 749.447 74.1735 832.198 76.5504C840.95 76.4993 849.688 77.2413 858.306 78.7673C858.686 78.843 859.081 78.7645 859.403 78.5493C859.725 78.334 859.949 77.9995 860.025 77.6195C860.1 77.2394 860.022 76.8448 859.807 76.5226C859.591 76.2003 859.257 75.9768 858.877 75.9011L858.969 75.8896Z" fill="#632DAA"/>
<path d="M861.631 72.993C854.049 72.1945 846.399 72.3228 838.849 73.375C830.316 74.1795 821.852 75.0871 813.416 76.4475C795.088 79.4417 776.997 83.7371 759.279 89.3011C720.667 101.839 683.815 119.257 649.617 141.133C614.035 163.312 581.918 190.232 547.002 213.557C530.723 224.381 514.169 234.793 499.675 248.028C485.342 260.674 474.469 276.764 468.082 294.779C454.191 334.625 464.294 376.683 472.572 416.531C477.3 436.909 480.359 457.638 481.719 478.513C482.35 499.773 480.939 521.046 477.508 542.037C464.998 624.648 445.577 708.149 401.93 780.272C384.866 808.52 364.052 835.843 338.297 856.7C314.249 875.981 285.542 888.582 255.072 893.234C246.475 894.534 237.815 895.366 229.128 895.728C227.266 895.804 227.458 898.732 229.332 898.748C260.772 897.378 291.721 889.95 318.947 873.826C344.042 858.976 364.581 837.826 382.109 814.884C431.654 749.805 457.234 669.944 472.194 590.443C479.722 550.374 487.456 509.273 483.979 468.355C480.359 426.663 465.512 386.58 464.11 344.674C462.977 322.688 467.451 300.775 477.113 280.993C486.112 263.326 501.27 249.448 516.957 237.702C533.217 225.473 550.757 215.049 567.321 203.239C583.885 191.428 600.769 178.46 617.642 166.294C682.306 119.719 756.809 83.744 837.098 76.632C845.031 75.4749 853.074 75.2751 861.055 76.0368C862.889 76.4019 863.488 73.5415 861.625 73.1706L861.631 72.993Z" fill="#632DAA"/>
<path d="M864.288 70.1249C857.425 69.7726 850.554 70.6127 843.978 72.6081C836.535 74.5235 829.063 76.1351 821.677 78.211C804.451 83.0341 787.51 88.8246 770.936 95.5548C733.931 110.949 698.624 130.144 665.584 152.833C631.67 175.612 600.665 202.486 566.866 225.288C536.337 246.029 500.751 264.333 483.302 298.554C474.357 316.306 469.353 335.78 468.631 355.645C467.704 376.319 470.623 396.984 473.129 417.476C476.03 437.002 477.325 456.733 477.001 476.471C475.891 497.134 472.806 517.643 467.789 537.719C448.949 617.402 426.791 697.586 385.964 769.168C369.553 797.874 350.425 826.158 326.128 848.825C304.364 869.247 277.518 883.456 248.392 889.967C239.923 891.781 231.349 893.06 222.719 893.796C222.319 893.823 221.945 894.008 221.681 894.311C221.417 894.613 221.284 895.008 221.311 895.408C221.338 895.809 221.523 896.182 221.825 896.446C222.127 896.71 222.522 896.844 222.923 896.817C253.193 894.509 282.353 884.413 307.57 867.509C331.311 851.078 350.164 828.818 366.586 805.298C412.862 738.973 439.51 661.232 459.538 583.514C469.27 545.701 480.101 507.154 480.208 467.843C480.302 426.949 467.908 386.372 472.392 345.429C474.377 324.139 481.95 303.752 494.346 286.33C505.715 271.132 520.978 259.271 536.506 248.625C553.036 237.285 570.14 226.952 586.32 215.125C602.5 203.298 618.53 190.577 634.785 178.228C696.388 131.759 765.352 93.5196 841.047 76.2559C848.725 74.5065 855.744 72.3279 863.723 72.9625C865.574 73.0926 866.173 70.2321 864.293 70.0963L864.288 70.1249Z" fill="#632DAA"/>
<path d="M866.566 67.2113C859.9 67.4088 853.361 69.0784 847.416 72.1005C840.536 75.0814 833.517 77.7071 826.643 80.6593C811.422 87.2644 796.336 94.3431 781.385 101.895C746.027 120.31 712.166 141.466 680.113 165.171C647.896 188.556 618.032 215.239 585.183 237.903C555.228 258.609 519.153 275.177 498.233 306.323C487.454 322.457 480.165 340.666 476.836 359.781C473.523 378.669 474.034 397.96 474.401 416.925C474.792 436.818 475.114 456.757 472.141 476.487C468.965 496.269 464.044 515.731 457.436 534.645C431.778 610.706 407.795 687.786 369.322 758.614C353.611 787.549 335.985 816.52 313.518 840.773C293.841 862.512 268.585 878.447 240.491 886.845C232.469 889.125 224.299 890.854 216.041 892.02C214.201 892.28 214.393 895.208 216.215 895.035C245.326 891.213 272.859 879.58 295.89 861.37C318.288 843.301 335.53 819.856 350.902 795.77C394.123 728.33 421.322 652.457 446.431 576.912C458.61 540.272 472.973 503.441 476.514 464.694C480.055 425.947 472.172 386.356 482.356 348.216C487.367 328.559 497.114 310.427 510.746 295.405C523.91 281.368 540.022 270.332 556.198 260.024C572.958 249.325 589.597 238.781 605.479 226.805C621.361 214.829 636.44 202.396 651.841 190.294C683.593 164.882 717.12 141.772 752.167 121.139C782.723 103.811 814.41 88.5555 847.013 75.4767C853.698 72.7252 859.313 70.118 866.786 70.1455C868.661 70.161 868.44 67.2268 866.583 67.1253L866.566 67.2113Z" fill="#632DAA"/>
<path d="M869.228 64.3147C863.063 64.8476 857.173 67.1032 852.229 70.824C846.604 74.6806 840.549 78.0046 834.724 81.5233C820.444 90.0933 806.175 98.755 792.124 107.669C758.926 128.958 726.82 151.906 695.93 176.424C665.089 200.679 636.13 227.454 604.153 250.231C573.809 271.843 537.796 287.35 513.195 316.184C501.315 330.382 492.274 346.731 486.566 364.341C480.61 382.285 478.742 400.954 476.753 419.628C475.201 438.672 472.061 457.553 467.365 476.073C461.922 494.923 455.089 513.343 446.921 531.182C415.006 603.047 389.284 677.636 353.195 747.568C325.654 801.055 293.093 861.797 233.186 883.723C225.471 886.519 217.56 888.739 209.516 890.364C207.688 890.715 207.88 893.644 209.691 893.379C237.573 887.954 263.383 874.845 284.209 855.529C305.592 835.53 321.415 810.372 335.984 785.382C375.949 716.489 403.826 641.853 434.192 568.487C448.305 534.407 465.302 500.96 473.207 464.691C481.317 427.39 478.535 387.921 494.298 352.441C502.111 334.483 513.714 318.425 528.31 305.367C543.179 292.954 559.114 281.877 575.93 272.265C592.614 262.201 608.691 251.163 624.077 239.208C639.283 227.336 653.903 214.662 668.753 202.332C699.575 176.822 731.264 152.2 764.359 129.645C792.339 110.632 821.438 93.3305 850.308 75.8349C856.655 71.9432 861.557 68.1217 869.357 67.5585C869.757 67.5316 870.131 67.3466 870.395 67.0443C870.659 66.7421 870.792 66.3472 870.765 65.9467C870.738 65.5462 870.553 65.1729 870.251 64.9087C869.949 64.6446 869.554 64.5114 869.154 64.5383L869.228 64.3147Z" fill="#632DAA"/>
<path d="M871.867 61.5323C865.956 62.4167 860.516 65.2713 856.429 69.6334C851.39 74.5899 845.869 78.9737 840.4 83.3976C827.766 93.7256 814.845 103.699 801.976 113.712C770.579 138.064 739.854 163.385 709.611 189.129C680.192 214.173 652.145 241.159 620.901 263.844C590.609 285.943 554.842 300.815 527.809 327.347C514.89 340.353 504.276 355.46 496.419 372.023C488.845 387.768 484.545 404.433 480.176 421.293C475.739 439.636 469.89 457.609 462.682 475.051C455.132 492.115 446.675 508.764 437.35 524.926C398.846 592.768 371.369 666.143 337.125 736.085C322.321 766.303 307.27 797.157 288.101 824.897C271.651 848.709 250.906 869.252 224.111 880.963C217.17 883.97 210.013 886.45 202.7 888.381C200.872 888.882 201.843 891.638 203.642 891.132C230.871 883.864 255.36 868.75 274.063 847.669C293.885 825.482 308.137 798.79 321.782 772.602C358.541 702.595 386.946 628.749 422.725 558.278C439.23 525.807 459.215 494.713 471.603 460.17C483.74 426.293 487.684 390.01 506.844 358.871C516.763 342.51 529.627 328.128 544.786 316.453C560.435 305.026 576.759 294.554 593.669 285.092C626.251 265.862 654.219 240.917 682.521 216.097C713.164 189.24 744.227 162.825 776.173 137.36C802.403 116.508 829.689 96.7901 854.938 74.7299C860.435 69.8647 864.375 65.3448 871.933 64.1973C873.778 63.9091 873.586 60.9805 871.73 61.1771L871.867 61.5323Z" fill="#632DAA"/>
<path d="M874.18 58.5961C868.087 60.1406 862.839 64.0035 859.552 69.3616C855.53 74.5936 851.23 79.6062 846.671 84.378C835.609 96.3896 823.899 107.766 812.045 118.964C783.717 145.864 754.965 172.352 726.292 198.886C697.62 225.42 669.946 253.225 638.915 276.637C608.434 299.682 572.358 314.313 543.093 338.882C529.849 350.31 518.247 363.513 508.615 378.116C499.537 392.225 491.737 407.116 485.307 422.612C469.939 457.158 449.512 488.521 427.653 519.301C383.207 581.968 354.072 653.642 321.799 722.964C307.293 754.075 293.344 785.834 276.045 815.555C261.551 840.471 243.186 863.276 217.591 877.341C210.729 881.06 203.558 884.178 196.159 886.663C195.83 886.814 195.57 887.082 195.428 887.415C195.285 887.748 195.272 888.121 195.389 888.463C195.506 888.806 195.746 889.092 196.062 889.268C196.379 889.443 196.749 889.495 197.101 889.413C223.766 880.131 246.95 862.909 263.539 840.062C281.84 815.487 294.6 787.157 307.734 759.646C324.609 724.268 340.882 688.621 357.315 653.066C373.424 617.089 391.689 582.116 412.01 548.339C431.279 517.103 454.453 488.253 472.104 456.009C480.607 440.538 487.355 424.301 494.71 408.304C502.172 392.186 511.713 377.115 523.091 363.476C534.953 349.286 548.84 336.92 564.305 326.775C580.572 316.008 597.873 306.936 614.553 296.788C646.487 277.37 673.555 251.56 700.842 226.299C730.528 198.865 760.064 171.282 789.699 143.807C813.635 121.754 838.747 99.6364 859.414 74.2505C864.142 68.4575 867.25 63.1761 875.117 61.375C876.962 60.9377 875.991 58.1818 874.152 58.5905L874.18 58.5961Z" fill="#632DAA"/>
<path d="M876.866 55.7332C873.933 56.6949 871.237 58.266 868.954 60.3434C866.672 62.4208 864.854 64.9574 863.621 67.7869C860.273 73.9899 856.534 79.9737 852.427 85.7018C842.835 99.1624 832.531 112.101 821.559 124.463C795.83 154.025 768.54 182.444 740.889 210.134C713.238 237.825 686.195 266.351 655.475 290.302C624.754 314.253 588.958 328.523 557.869 351.327C543.304 362.322 530.059 374.964 518.398 389.001C508.1 401.7 498.5 414.948 489.64 428.689C479.603 442.989 468.666 456.637 456.895 469.549C444.242 483.717 431.869 498.119 419.291 512.362C368.896 569.286 337.634 639.971 306.914 708.677C292.518 740.883 279.464 773.833 264.001 805.559C251.158 831.906 235.054 857.425 210.213 873.995C203.724 878.239 196.847 881.859 189.676 884.805C187.951 885.535 188.974 888.331 190.647 887.561C217.184 876.395 237.403 856.85 252.529 832.656C269.514 805.405 280.983 774.881 293.714 745.502C309.333 709.546 325.377 673.854 342.596 638.544C359.814 603.235 378.473 569.524 401.84 538.358C423.638 509.234 449.56 483.494 472.844 455.59C483.647 442.633 492.764 428.714 502.288 414.847C512.174 400.423 523.385 386.953 535.773 374.611C549.272 361.276 564.329 349.616 580.618 339.884C597.35 329.776 614.931 321.088 631.525 310.774C663.379 291.011 690.051 264.497 716.655 238.326C745.461 210.071 773.602 181.167 801.077 151.613C823.322 127.584 846.121 102.862 863.134 74.7223C867.22 67.967 869.569 61.1044 877.792 58.5693C879.602 58.006 878.631 55.2501 876.849 55.8192L876.866 55.7332Z" fill="#632DAA"/>
<path d="M879.528 52.8364C876.699 54.0031 874.164 55.7828 872.106 58.0473C870.048 60.3118 868.517 63.0047 867.625 65.932C865.082 72.5603 862.18 79.0452 858.931 85.3577C851.062 100.089 842.17 114.25 832.32 127.737C808.968 159.819 783.748 190.498 756.791 219.616C730.43 248.458 703.595 278.039 673.247 302.809C658.177 314.893 641.994 325.52 624.916 334.547C607.897 343.705 590.613 352.541 574.277 362.907C545.494 381.165 521.417 406.021 498.216 430.664C485.362 444.196 470.556 455.403 455.895 466.936C441.233 478.47 427.437 490.146 414.21 502.709C401.03 514.811 388.689 527.796 377.273 541.573C365.432 556.518 354.464 572.134 344.423 588.342C334.26 605.143 325.011 622.479 316.715 640.276C307.985 658.086 299.748 676.113 291.867 694.3C277.415 727.686 265.187 761.874 251.515 795.535C239.975 823.571 226.125 851.983 201.79 871.096C195.895 875.689 189.569 879.698 182.9 883.069C181.238 883.931 182.868 886.371 184.529 885.509C211.059 871.988 229.235 849.235 242.398 823.071C257.633 792.789 267.891 760.117 280.597 728.767C295.293 692.508 311.239 656.707 329.186 621.93C347.133 587.153 368.223 554.402 394.727 525.888C419.84 498.824 449.21 476.72 477.679 453.453C490.103 442.732 501.883 431.286 512.958 419.176C525.485 406.329 538.664 394.133 552.442 382.637C582.061 357.633 618.419 343.981 650.713 323.055C682.188 302.503 708.252 275.301 734.116 248.357C761.966 219.216 788.744 189.027 813.783 157.39C834.134 131.495 854.988 103.971 868.039 73.2849C871.076 66.1122 872.616 58.8205 880.5 55.5923C882.247 54.8972 881.19 52.1242 879.557 52.8421L879.528 52.8364Z" fill="#632DAA"/>
<path d="M882.191 49.9403C879.463 51.3212 877.078 53.2962 875.214 55.72C873.35 58.1438 872.052 60.9548 871.418 63.9461C869.229 71.4963 867.213 78.9317 864.36 86.3793C858.009 102.436 850.348 117.943 841.454 132.744C820.393 167.742 796.447 200.92 769.864 231.933C744.68 261.902 718.424 292.314 688.352 317.496C673.603 329.741 657.591 340.378 640.587 349.229C622.846 358.57 604.76 367.247 587.346 377.189C556.677 394.744 530.22 418.53 501.731 439.201C487.132 449.823 470.788 457.386 454.931 465.642C438.025 474.551 421.87 484.818 406.627 496.344C392.541 506.68 379.303 518.124 367.038 530.568C353.882 544.581 341.805 559.568 330.909 575.403C320.246 591.146 310.695 607.615 302.326 624.69C293.344 642.171 285.025 659.963 277.369 678.065C262.694 712.421 251.058 747.679 239.33 783.098C229.505 812.847 218.26 844.042 195.304 866.409C189.549 871.996 183.182 876.916 176.324 881.076C174.726 882.069 176.361 884.48 177.954 883.516C204.166 867.398 220.178 841.593 231.42 813.705C244.618 780.933 253.711 746.628 266.243 713.604C280.079 676.721 296.525 640.871 315.457 606.326C333.61 572.715 357.36 542.446 385.686 516.818C400.303 504.223 415.845 492.745 432.182 482.479C447.292 472.733 463.372 464.849 479.063 456.53C493.692 448.374 507.588 438.967 520.595 428.414C535.188 417.076 550.033 406.115 564.936 395.166C596.345 372.097 633.593 359.219 665.984 337.806C697.344 317.23 723.075 289.157 748.038 261.349C775.726 230.822 801.312 198.453 824.622 164.465C843.527 136.553 861.553 106.768 871.496 74.3312C873.999 66.2478 874.563 56.8249 883.025 52.788C884.709 51.9612 883.743 49.1766 882.088 50.0092L882.191 49.9403Z" fill="#632DAA"/>
<path d="M884.521 47.2152C878.168 50.9865 875.858 57.0524 874.644 64.0514C873.224 72.2314 871.684 80.2681 869.462 88.2883C864.276 106.103 857.49 123.411 849.187 140.003C830.449 177.365 807.919 212.701 781.952 245.453C769.003 262.154 755.355 278.329 741.333 293.983C728.843 308.414 715.329 321.927 700.896 334.415C686.241 346.615 670.229 357.086 653.177 365.62C635.366 374.709 617.125 382.967 599.378 392.188C567.098 409.005 537.923 431.476 505.172 447.513C488.335 455.753 470.108 460.349 452.438 466.338C417.899 478.376 385.821 496.563 357.754 520.018C343.747 532.422 330.92 546.099 319.438 560.872C295.194 591.356 277.523 627.44 262.374 663.131C247.875 698.423 235.849 734.68 226.383 771.641C217.896 803.355 209.256 837.481 187.334 863.034C182.091 869.197 176.131 874.713 169.582 879.465C168.076 880.596 169.677 883.03 171.212 881.905C196.785 863.158 210.405 834.7 219.686 805.141C231.047 769.47 238.939 732.96 251.739 697.695C277.98 625.743 314.936 551.454 379.492 506.616C395.637 495.489 412.772 485.873 430.681 477.889C447.771 470.176 465.808 465.334 483.518 459.294C499.395 453.608 514.646 446.31 529.034 437.513C545.388 427.955 561.627 418.077 577.596 407.906C610.223 387.106 647.66 374.921 679.942 353.605C712.224 332.289 738.034 303.07 762.543 273.95C789.505 242.336 813.694 208.46 834.842 172.697C852.925 141.731 869.234 108.297 876.079 72.8592C877.791 64.2606 877.684 54.6149 886.093 49.6438C887.714 48.6852 886.084 46.2451 884.463 47.2038L884.521 47.2152Z" fill="#632DAA"/>
<path d="M887.178 44.3475C880.648 48.8583 878.947 55.7604 878.168 63.4124C877.397 71.7809 876.55 80.0749 874.988 88.3753C871.308 107.305 865.832 125.841 858.635 143.732C842.52 183.384 821.677 220.945 796.559 255.601C784.104 273.265 770.623 290.248 756.579 306.762C744.765 321.108 731.934 334.587 718.188 347.094C703.535 360.099 687.245 371.132 669.731 379.91C651.296 389.143 632.35 397.202 613.691 405.913C579.787 421.751 547.9 441.835 512.319 453.972C493.486 460.414 473.687 462.582 454.186 466.239C434.767 469.808 415.789 475.461 397.582 483.101C363.528 497.229 333.123 518.899 308.656 546.48C282.302 575.888 263.421 610.867 247.784 647.057C232.577 683.435 220.966 721.214 213.116 759.853C205.869 793.72 199.959 830.595 179.577 859.494C174.865 866.15 169.375 872.22 163.225 877.574C161.822 878.785 163.423 881.219 164.855 880.014C189.714 858.413 200.592 827.116 208.123 796.016C212.525 777.792 216.045 759.363 220.246 741.099C224.84 721.252 230.518 701.672 237.254 682.446C262.926 609.159 303.757 535.314 374.481 497.365C392.495 487.676 411.512 479.981 431.194 474.416C450.572 468.976 470.607 466.975 490.268 462.962C525.709 455.714 559.187 438.122 590.642 420.813C625.413 401.661 664.347 389.893 697.235 367.328C728.927 345.537 754.168 315.579 777.782 285.565C804.24 252.37 827.192 216.527 846.271 178.607C862.901 145.058 876.726 108.685 880.434 71.1935C881.314 62.4295 880.743 52.4231 888.796 46.8449C890.32 45.7774 888.718 43.3431 887.161 44.4335L887.178 44.3475Z" fill="#632DAA"/>
<path d="M889.84 41.4505C883.912 46.2301 882.262 52.7252 881.85 60.0331C881.326 69.7023 881.352 79.3022 880.295 88.9547C878.029 108.549 873.892 127.881 867.94 146.686C854.499 188.51 835.43 228.311 811.257 264.993C799.089 283.739 785.957 301.843 771.915 319.23C760.286 334.178 747.53 348.215 733.76 361.219C718.716 375.077 701.752 386.694 683.391 395.71C664.675 404.857 645.322 412.567 626.135 420.637C589.646 435.99 554.232 454.478 515.014 462.136C495.422 465.954 475.5 466.041 455.516 467.189C434.953 468.332 414.578 471.742 394.762 477.355C358.269 487.574 324.9 506.73 297.673 533.09C268.934 561.308 248.505 595.979 232.457 632.743C216.69 669.878 205.576 708.82 199.368 748.684C193.423 784.538 190.215 823.56 171.755 855.673C167.519 863.061 162.366 869.885 156.42 875.981C155.108 877.329 157.311 879.138 158.599 877.905C182.848 852.934 190.691 818.172 196.415 785.074C199.818 765.281 202.551 745.414 206.47 725.723C210.49 705.293 215.93 685.168 222.749 665.495C235.908 627.53 253.881 589.48 278.897 557.809C303.121 526.876 335.115 502.923 371.618 488.392C391.478 480.453 412.232 474.968 433.421 472.058C453.908 469.431 474.558 469.728 495.08 467.823C533.546 464.246 570.287 449.27 604.918 433.07C641.05 416.216 680.379 404.705 713.175 381.555C744.969 359.099 769.94 327.955 792.791 296.836C818.477 262.226 840.005 224.716 856.931 185.079C872.04 148.992 883.117 110.404 884.439 71.1265C884.763 61.8644 883.234 50.386 891.407 43.9078C892.856 42.7659 891.254 40.3316 889.771 41.4964L889.84 41.4505Z" fill="#632DAA"/>
<path d="M892.221 38.7659C885.853 44.5604 885.162 52.9747 885.336 61.2333C885.557 71.3489 885.91 81.4013 885.415 91.5233C884.217 112.432 881.035 133.18 875.912 153.488C864.736 196.989 847.264 238.625 824.049 277.074C812.108 297.076 798.997 316.356 784.785 334.813C773.346 350.102 760.651 364.41 746.831 377.587C731.534 391.839 714.109 403.621 695.184 412.509C676.354 421.336 656.799 428.707 637.36 435.952C598.962 450.419 561.086 466.003 519.778 469.789C498.861 471.585 477.848 469.965 456.905 469.194C435.292 468 413.613 469.15 392.247 472.623C354.347 479.352 318.299 494.436 288.565 519.119C257.462 544.99 235.221 578.734 218.559 615.436C201.566 653.586 190.487 694.105 185.703 735.594C181.028 774.056 180.607 815.689 164.157 851.479C160.449 859.625 155.695 867.253 150.016 874.17C148.802 875.627 151.011 877.557 152.196 876.094C175.748 847.588 180.407 809.212 184.483 773.76C186.848 752.449 188.806 731.087 192.534 709.958C196.101 689.105 201.353 668.576 208.239 648.572C215.156 628.722 223.757 609.499 233.949 591.115C243.602 572.997 255.511 556.174 269.391 541.048C296.476 511.736 331.408 490.817 370.035 480.776C391.298 474.858 413.252 471.783 435.323 471.632C456.615 471.4 477.88 473.547 499.189 473.528C539.698 473.456 579.228 461.986 616.542 446.975C653.856 431.965 694.521 420.78 727.827 396.867C760.331 373.539 785.341 340.853 807.674 308.141C832.817 271.72 853.057 232.148 867.871 190.445C881.298 151.878 889.651 110.96 888.536 70.005C888.269 60.1188 886.195 48.2339 894.338 40.8559C895.724 39.5823 893.504 37.7102 892.135 38.8978L892.221 38.7659Z" fill="#632DAA"/>
<path d="M894.878 35.8976C888.597 42.3053 888.347 51.1948 888.894 59.6767C889.58 70.1529 890.695 80.5657 890.659 91.077C890.75 113.451 888.69 135.781 884.508 157.761C875.815 202.596 860.305 245.835 838.517 285.973C827.496 306.386 815.15 326.056 801.559 344.856C790.051 361.321 777.12 376.745 762.915 390.948C747.925 405.687 730.575 417.815 711.583 426.828C691.957 435.682 671.837 443.397 651.323 449.935C630.57 456.889 609.95 464.227 588.617 469.158C567.904 474.09 546.719 476.777 525.431 477.171C502.763 477.427 480.328 473.975 457.882 471.324C435.972 468.368 413.829 467.523 391.757 468.8C352.087 471.691 312.93 483.236 280.059 506.014C246.083 529.555 221.543 562.722 203.89 599.762C185.933 638.259 174.953 679.637 171.46 721.972C169.469 743.954 168.635 766.106 167.01 788.041C165.384 808.188 162.916 828.675 155.958 847.76C152.827 856.436 148.603 864.677 143.389 872.285C142.313 873.799 144.487 875.751 145.569 874.209C167.834 842.139 169.401 800.883 171.573 763.175C172.881 740.581 174.058 717.901 177.591 695.511C180.947 674.07 186.29 652.988 193.552 632.538C207.489 593.357 228.556 554.135 259.749 526.017C290.565 498.448 328.752 480.461 369.633 474.26C392.646 470.722 416.01 470.058 439.187 472.282C461.443 474.238 483.524 478.127 505.849 479.591C548.292 482.377 590.042 473.822 630.086 460.219C668.875 447.082 710.405 435.89 743.808 411.341C776.443 387.205 801.113 353.081 822.655 319.109C869.36 245.389 899.929 156.182 892.529 68.0582C891.534 58.0866 889.357 45.9726 897.092 38.0964C898.404 36.7483 896.201 34.9393 894.89 36.1383L894.878 35.8976Z" fill="#632DAA"/>
<path d="M897.563 33.0356C891.403 40.0335 891.509 49.3812 892.411 58.1722C893.591 69.4618 895.183 80.625 895.812 91.9839C897.032 115.137 896.101 138.354 893.033 161.335C886.729 207.952 872.984 253.255 852.321 295.514C841.768 317.195 829.644 338.076 816.048 357.991C804.536 375.479 791.366 391.817 776.719 406.777C761.696 421.794 744.128 434.026 724.832 442.904C703.929 452.094 682.387 459.757 660.376 465.831C637.854 472.949 614.852 478.448 591.546 482.286C569.342 485.603 546.833 486.39 524.452 484.635C478.282 480.808 433.737 466.579 387.141 466.243C345.462 466.052 303.214 474.866 267.304 496.741C231.394 518.616 205.204 551.395 187.105 589.032C168.113 628.458 158.782 671.446 156.552 714.983C155.438 737.496 155.808 760.037 155.204 782.533C154.622 803.276 153.34 824.385 147.702 844.479C145.104 853.742 141.331 862.634 136.476 870.939C135.526 872.568 138.129 873.861 139.188 872.283C159.416 837.573 158.104 794.463 158.481 755.593C158.27 731.941 159.454 708.298 162.026 684.785C164.873 662.663 170.024 640.898 177.395 619.846C191.789 579.118 214.776 540.13 248.956 513.023C282.179 486.68 322.767 472.888 364.832 469.788C389.408 468.195 414.086 469.447 438.374 473.521C461.016 477.133 483.425 482.219 506.152 485.402C550.369 491.266 595.324 487.778 638.107 475.165C679.35 463.321 723.46 452.643 758.351 426.453C791.632 401.462 816.273 365.544 837.136 330.037C883.184 251.687 908.035 158.124 896.506 67.3901C895.19 56.9374 892.071 43.7124 899.743 34.9593C899.954 34.6651 900.047 34.3033 900.007 33.9439C899.966 33.5844 899.793 33.253 899.522 33.0136C899.25 32.7742 898.9 32.644 898.538 32.6481C898.177 32.6521 897.829 32.7902 897.563 33.0356Z" fill="#632DAA"/>
<path d="M900.226 30.1388C894.215 37.7326 894.682 47.5098 895.9 56.6616C897.499 68.3922 899.658 79.9961 900.821 91.8188C903.14 115.846 903.311 140.032 901.335 164.09C897.407 212.038 885.66 259.021 866.559 303.176C856.768 325.717 845.209 347.448 831.99 368.166C820.575 386.774 807.307 404.179 792.389 420.117C777.383 435.962 759.506 448.815 739.707 457.992C718.484 467.184 696.498 474.503 674 479.866C650.098 486.412 625.698 490.983 601.048 493.534C577.139 495.636 553.069 495.033 529.295 491.737C480.602 484.876 434.036 467.472 384.806 463.603C341.354 460.199 296.505 465.604 257.356 485.643C238.484 495.148 221.426 507.889 206.955 523.287C192.858 538.808 180.981 556.209 171.663 574.993C151.469 615.222 142.477 659.797 141.779 704.623C141.411 727.881 142.773 751.126 143.356 774.394C143.886 796.282 143.935 818.491 139.554 840.056C137.601 850.006 134.406 859.671 130.043 868.824C129.955 869.002 129.903 869.196 129.889 869.395C129.876 869.593 129.902 869.792 129.965 869.98C130.029 870.169 130.129 870.343 130.259 870.492C130.39 870.642 130.549 870.764 130.727 870.853C130.905 870.941 131.099 870.993 131.297 871.007C131.496 871.02 131.695 870.994 131.883 870.931C132.071 870.867 132.245 870.767 132.395 870.637C132.545 870.506 132.667 870.347 132.755 870.169C151.118 832.256 146.881 787.075 145.491 746.303C144.2 722.145 144.57 697.926 146.599 673.818C148.956 650.713 154.063 627.972 161.811 606.077C176.703 564.345 201.616 525.859 238.548 500.493C275.48 475.126 320.083 465.113 364.192 465.668C414.726 466.281 462.007 482.337 510.978 491.697C557.246 500.515 604.855 499.461 650.688 488.605C693.239 478.57 738.565 468.224 773.821 440.945C807.744 414.681 832.394 376.62 852.459 339.285C896.812 256.724 915.665 159.761 900.5 66.9337C898.696 55.9369 894.797 41.6924 902.406 32.0625C903.562 30.5943 901.382 28.6705 900.226 30.1388Z" fill="#632DAA"/>
<path d="M902.888 27.2424C897.078 35.3231 897.815 45.3924 899.314 54.7789C901.303 67.0937 904.036 79.2588 905.75 91.6082C909.077 115.805 910.393 140.236 909.686 164.65C907.707 240.063 886.452 313.713 847.944 378.583C836.808 398.144 823.678 416.5 808.764 433.359C793.618 450.169 775.227 463.739 754.697 473.253C732.505 482.815 709.361 489.994 685.654 494.671C660.758 500.436 635.389 503.924 609.861 505.092C584.294 505.882 558.717 503.849 533.595 499.029C482.858 489.258 434.582 469.369 383.325 461.908C338.094 455.319 290.365 457.231 247.89 475.416C227.78 483.749 209.391 495.739 193.652 510.776C178.343 526.014 165.544 543.581 155.73 562.823C134.293 604.057 126.14 650.557 127.094 696.962C127.609 721.171 130.033 745.223 131.688 769.391C133.159 791.942 134.544 814.923 131.264 837.393C129.914 847.606 127.331 857.618 123.571 867.209C122.896 868.952 125.494 870.273 126.283 868.553C142.362 828.19 135.683 781.956 132.469 739.868C130.06 715.205 129.47 690.398 130.704 665.649C132.333 641.593 137.177 617.864 145.105 595.094C160.373 551.322 187.676 512.358 227.963 488.702C268.249 465.046 316.667 458.474 362.905 462.552C414.652 467.101 463.081 485.471 513.184 497.678C561.746 509.749 612.313 511.406 661.561 502.54C706.063 494.234 753.435 484.235 789.567 455.253C824.136 427.539 848.64 387.065 867.821 347.736C910.44 259.301 923.078 159.387 903.821 63.1253C901.708 52.4842 898.171 38.8183 905.062 29.1948C906.173 27.6577 903.964 25.7283 902.888 27.2424Z" fill="#632DAA"/>
<path d="M905.339 24.6608C899.295 33.9167 901.163 45.6413 903.276 55.8354C905.838 68.2642 908.801 80.773 910.939 93.3856C915.231 118.975 917.461 144.869 917.607 170.815C918.009 221.592 909.974 272.082 893.827 320.224C885.161 345.418 874.182 369.757 861.031 392.928C849.871 413.58 836.39 432.89 820.85 450.484C805.527 467.553 786.728 481.144 765.717 490.345C742.559 499.7 718.399 506.35 693.715 510.161C667.66 514.919 641.198 517.087 614.715 516.636C587.442 515.816 560.336 512.079 533.859 505.488C481.17 492.498 431.092 470.433 377.713 460.016C330.788 450.855 280.753 449.984 235.324 466.687C214.277 474.183 194.862 485.642 178.128 500.445C162.15 515.221 148.859 532.66 138.847 551.983C116.483 594.433 109.58 642.582 112.352 690.035C113.808 715.057 117.321 739.922 120.118 764.793C122.73 788.197 124.993 812.009 122.843 835.538C121.947 845.728 119.944 855.79 116.87 865.547C116.275 867.336 119.147 867.877 119.736 866.117C126.291 845.759 127.171 824.123 126.355 802.923C125.255 778.509 121.868 754.355 119.095 729.965C116.269 705.087 113.873 679.998 115.014 654.957C116.089 630.131 120.831 605.6 129.086 582.162C136.581 560.453 147.672 540.158 161.894 522.125C176.858 503.535 195.666 488.402 217.029 477.765C261.013 455.59 312.197 452.786 360.232 459.964C413.678 467.95 463.635 488.829 515.437 503.579C566.671 518.187 620.338 523.863 673.272 516.312C718.904 509.811 767.555 500.424 804.173 470.496C820.277 456.896 834.324 441.034 845.877 423.404C860.087 402.351 872.381 380.066 882.61 356.818C923.55 264.311 929.874 160.385 907.723 62.2331C905.162 50.8473 901.12 36.5744 908.028 25.9708C909.058 24.388 906.455 23.0951 905.316 24.6264L905.339 24.6608Z" fill="#632DAA"/>
<path d="M908.082 21.8097C902.508 31.0996 904.313 42.5433 906.448 52.6228C909.349 66.1919 913.007 79.554 915.828 93.2263C921.119 120.02 924.31 147.186 925.37 174.476C927.628 226.428 921.311 278.396 906.673 328.293C898.849 354.546 888.498 379.979 875.765 404.233C864.7 426.253 850.986 446.839 834.929 465.533C819.131 483.585 799.385 497.754 777.224 506.938C752.732 516.961 726.55 522 700.441 525.326C645.005 532.259 588.735 527.683 535.149 511.883C481.031 496.195 429.599 472.251 374.795 458.81C325.391 446.682 272.212 442.593 223.006 457.918C201.026 464.502 180.571 475.379 162.822 489.919C145.872 504.494 131.849 522.16 121.501 541.975C98.4438 585.508 93.0906 635.158 97.6916 683.601C102.373 732.685 116.076 781.509 114.591 831.035C114.325 842.035 112.858 852.974 110.214 863.656C109.843 865.519 112.715 866.061 113.08 864.226C118.562 842.671 118.284 820.119 116.292 798.09C114.051 773.418 109.656 749.093 105.936 724.515C102.062 699.071 98.6221 673.386 98.9308 647.584C99.0974 622.42 103.205 597.439 111.105 573.547C118.729 550.464 130.688 529.047 146.34 510.447C162.258 492.107 182.116 477.602 204.428 468.016C251.177 447.524 304.455 447.521 353.834 457.081C409.581 467.879 461.562 491.157 515.315 508.68C567.44 525.7 622.384 535.146 677.349 530.711C725.798 526.827 778.81 518.129 817.405 486.658C834.209 472.403 848.697 455.625 860.349 436.922C874.521 414.925 886.57 391.632 896.335 367.356C915.25 319.868 926.044 269.536 928.265 218.467C930.847 164.929 924.098 112.006 911.183 60.1207C908.307 48.5232 904.012 34.0211 910.622 22.9708C911.6 21.3479 908.969 20.0493 907.904 21.6551L908.082 21.8097Z" fill="#632DAA"/>
<path d="M910.658 18.8954C905.125 29.0277 907.458 41.262 910.041 51.937C913.246 65.7752 917.471 79.4291 920.63 93.3475C926.969 121.275 931.204 149.639 933.3 178.2C937.44 231.324 932.921 284.768 919.92 336.442C912.619 364.865 902.318 392.43 889.19 418.675C878.005 441.032 865.033 462.943 848.452 481.723C832.233 500.399 811.684 514.817 788.604 523.714C763.24 533.326 736.066 537.661 709.126 539.926C650.568 544.898 592.444 536.308 536.759 518.014C481.074 499.719 427.749 473.908 371.389 457.654C320.659 443.058 266.136 435.99 214.274 448.64C191.011 454.054 169.078 464.099 149.783 478.176C131.8 492.008 116.902 509.442 106.043 529.363C81.2504 573.981 77.0513 625.916 83.4016 675.75C89.8615 726.38 105.6 776.205 106.661 827.46C106.989 838.995 106.091 850.533 103.982 861.879C103.906 862.259 103.985 862.653 104.2 862.976C104.415 863.298 104.75 863.521 105.13 863.597C105.51 863.673 105.905 863.594 106.227 863.379C106.549 863.164 106.773 862.829 106.848 862.449C111.269 839.491 109.774 815.862 106.675 792.808C103.242 767.095 97.6874 741.704 92.9299 716.204C83.3227 664.769 77.8583 612.281 94.9655 561.663C102.612 538.487 114.976 517.147 131.279 498.986C148.453 480.532 169.799 466.46 193.529 457.95C243.655 439.352 299.355 442.751 350.502 455.106C408.298 469.083 462.184 494.767 517.957 514.718C570.949 533.669 626.393 545.688 682.875 544.564C710.066 544.175 737.135 540.841 763.608 534.621C787.749 528.758 810.671 519.286 830.103 503.547C847.519 488.919 862.361 471.478 874.015 451.948C888.466 428.641 900.495 403.918 909.917 378.164C927.763 328.76 937.119 276.693 937.589 224.167C938.386 168.366 929.807 113.559 915.057 59.8187C911.75 47.6885 906.779 32.2472 913.296 20.3143C914.217 18.68 911.585 17.3815 910.578 18.9986L910.658 18.8954Z" fill="#632DAA"/>
<path d="M913.292 16.1422C908.074 26.4863 910.424 38.6346 913.116 49.3611C916.752 64.03 921.545 78.4226 925.272 93.0799C932.619 122.091 937.86 151.595 940.954 181.362C946.952 236.058 944.124 291.362 932.577 345.16C926.064 374.45 916.396 402.947 903.74 430.153C892.804 453.662 879.821 476.822 862.937 496.525C846.689 515.934 825.703 530.817 802.013 539.732C775.629 549.379 747.188 553.045 719.214 554.36C658.207 557.116 597.84 545.577 540.519 525.02C482.47 504.229 427.269 476.167 368.637 456.958C315.744 439.607 258.502 429.286 203.158 440.111C178.898 444.508 155.801 453.847 135.302 467.547C116.218 480.963 100.425 498.531 89.1089 518.93C63.5946 564.18 60.9268 617.254 68.8193 667.574C77.0919 719.876 94.9348 771.103 98.451 824.097C99.323 836.073 98.9942 848.106 97.4696 860.017C97.1045 861.851 99.965 862.45 100.336 860.587C103.575 836.977 101.094 813.062 97.1183 789.625C92.6582 763.528 86.2155 737.812 80.5118 711.826C68.7713 658.982 60.5826 604.462 77.8313 551.787C85.3825 528.133 98.1551 506.479 115.204 488.427C133.643 469.797 156.462 456.092 181.571 448.568C234.862 431.732 292.966 438.172 345.898 453.087C405.857 469.968 461.757 497.96 519.676 520.454C575.009 541.867 632.702 556.658 692.194 557.772C720.203 558.544 748.207 556.059 775.641 550.365C800.35 544.943 823.845 535.586 843.667 519.537C861.34 504.595 876.27 486.683 887.784 466.608C902.235 442.389 914.043 416.688 923.006 389.947C940.158 337.867 948.193 283.218 946.757 228.405C945.672 170.233 934.524 113.515 918.46 57.6953C914.969 45.2902 909.705 29.6714 915.946 17.3262C916.125 16.9665 916.153 16.5508 916.025 16.1704C915.896 15.79 915.622 15.4762 915.263 15.2979C914.903 15.1196 914.487 15.0915 914.107 15.2198C913.726 15.348 913.413 15.6221 913.234 15.9818L913.292 16.1422Z" fill="#632DAA"/>
<path d="M915.983 13.1021C910.835 23.9963 913.598 36.4651 916.525 47.6557C920.517 62.7827 925.763 77.5934 929.909 92.6916C938.25 122.961 944.483 153.772 948.563 184.903C955.86 241.361 955.632 299.093 944.731 355.058C938.95 385.399 929.8 415 917.451 443.311C906.584 467.966 893.625 492.204 876.215 512.755C859.382 532.998 837.28 548.193 812.351 556.659C784.534 566.021 754.733 568.432 725.601 568.534C662.035 568.724 599.567 553.519 540.622 530.493C481.677 507.467 424.887 477.659 365.026 456.09C310.274 436.253 251.08 423.011 192.697 431.593C167.677 434.934 143.595 443.319 121.909 456.239C101.484 469.076 84.5319 486.742 72.5469 507.678C45.5895 554.189 44.7577 609.417 54.5197 660.973C64.7712 715.01 84.8159 767.301 90.3628 822.219C91.6622 834.131 91.8459 846.139 90.9117 858.085C90.7529 859.931 93.6133 860.53 93.7778 858.656C95.8645 834.25 92.472 809.826 87.5784 785.908C81.9422 758.535 74.3062 731.627 67.4437 704.427C53.8051 650.491 43.3967 594.098 61.4692 539.829C69.2285 515.643 82.7984 493.728 100.991 476.003C120.761 457.807 144.857 444.97 170.988 438.714C227.531 424.104 287.805 433.717 342.486 451.216C403.726 470.795 461.032 500.557 520.288 525.164C577.503 548.948 637.36 566.643 699.497 570.489C752.068 573.742 812.943 570.453 855.948 536.433C874.87 521.457 889.628 501.957 901.599 481.187C916.09 455.939 927.7 429.145 936.211 401.306C952.925 347.273 958.547 290.138 955.944 233.75C954.499 203.909 950.921 174.209 945.237 144.878C939.027 114.584 931.232 84.6365 921.885 55.1588C918.091 42.4846 912.821 26.8945 918.718 14.1828C919.507 12.4626 916.876 11.1641 916.006 12.8384L915.983 13.1021Z" fill="#632DAA"/>
<path d="M918.639 10.2339C913.795 21.5462 916.799 34.4504 919.841 45.8128C924.183 61.5757 929.911 76.81 934.402 92.4237C943.663 123.671 950.836 155.5 955.873 187.699C964.896 246.11 966.413 306.006 956.861 364.326C951.78 395.784 943.145 426.564 931.12 456.073C920.466 481.903 907.331 507.477 889.314 528.98C872.001 550.004 848.88 565.466 822.837 573.436C794.315 582.002 763.929 583.463 734.394 582.441C668.316 580.135 603.799 562.049 543.029 536.812C482.26 511.576 423.714 479.959 362.2 455.766C305.491 433.483 244.403 417.182 182.969 423.28C156.812 425.463 131.381 432.986 108.247 445.385C86.429 457.675 68.2561 475.525 55.5779 497.119C27.664 544.394 28.6562 601.087 39.9604 653.128C52.1049 709.032 74.3976 762.754 82.2102 819.613C83.9593 831.893 84.6399 844.301 84.2446 856.699C84.1718 858.561 87.0773 858.335 87.2648 856.495C88.29 830.835 83.6241 805.324 77.635 780.472C70.8174 752.298 61.9541 724.52 54.1625 696.599C38.7983 642.2 26.2393 584.336 44.5343 528.949C52.4269 504.474 66.6135 482.502 85.6724 465.236C106.827 446.384 133.685 435.103 161.293 429.633C221.495 417.599 284.162 430.609 340.996 451.069C403.453 473.512 462.091 504.969 522.781 531.501C581.276 557.089 642.419 577.155 706.094 583.602C736.452 587.092 767.133 586.659 797.381 582.314C823.323 578.181 848.241 569.464 869.03 553.042C888.543 537.646 903.379 517.298 915.384 495.76C930.045 469.289 941.531 441.18 949.603 412.017C965.347 355.824 969.184 296.725 964.924 238.636C962.614 208.307 958.249 178.17 951.859 148.431C944.642 116.637 935.827 85.2261 925.449 54.3187C921.253 41.2666 915.529 24.9605 921.266 11.5611C921.998 9.82957 919.394 8.53668 918.548 10.2454L918.639 10.2339Z" fill="#632DAA"/>
<path d="M921.302 7.33735C916.533 19.4692 919.864 33.1239 923.434 45.1277C928.235 61.2799 934.325 77.0928 939.326 93.1359C949.59 125.979 957.728 159.448 963.69 193.337C974.067 253.031 977.167 314.405 968.946 374.568C964.549 407.474 956.265 439.743 944.27 470.699C933.76 497.6 920.506 524.372 901.733 546.53C883.801 567.965 859.665 583.315 832.648 590.466C802.205 598.501 769.794 598.456 738.625 595.917C671.42 590.437 606.265 569.87 544.806 542.858C482.166 515.491 422.243 482.109 359.174 455.551C300.646 430.88 237.767 411.75 173.499 415.316C146.335 416.384 119.674 422.98 95.1469 434.703C72.2721 446.106 53.0242 463.654 39.5596 485.379C9.88129 533.584 12.7555 592.648 25.7628 645.714C39.8692 703.438 64.2205 758.345 74.3215 817.03C76.5379 829.516 77.6979 842.167 77.7894 854.848C77.7739 856.722 80.7082 856.502 80.8096 854.645C80.7563 827.816 74.9892 801.4 67.9504 775.684C60.0662 746.88 50.3313 718.542 41.4445 690.134C24.1308 634.751 9.03116 575.131 27.7887 517.869C35.8382 492.68 50.928 470.321 71.2759 453.432C93.6744 435.214 121.605 425.13 149.902 420.691C213.07 410.827 277.659 426.603 336.352 449.4C400.296 474.255 460.523 507.458 522.757 536.115C583.127 563.954 646.107 586.62 712.203 595.873C743.032 600.654 774.343 601.499 805.385 598.389C832.136 595.281 858.235 587.365 880.08 571.034C900.744 555.54 916.17 534.326 928.426 511.825C943.242 484.13 954.572 454.709 962.16 424.231C977.048 365.901 979.347 304.797 973.601 245.042C970.487 213.456 965.288 182.111 958.04 151.211C950.301 117.788 939.754 85.444 928.864 53.032C924.392 39.5675 918.313 22.8032 923.837 8.82517C924.511 7.08222 921.914 5.76067 921.124 7.4808L921.302 7.33735Z" fill="#632DAA"/>
<path d="M923.993 4.44635C919.179 17.5526 923.233 32.2153 927.28 44.9695C932.724 62.531 939.669 79.7358 945.353 97.2856C956.735 132.239 965.842 167.893 972.618 204.024C984.402 267.126 988.348 332.333 979.575 396.171C975.719 424.718 968.952 452.795 959.38 479.965C949.879 506.59 937.742 533.137 920.477 555.654C902.796 579.919 877.435 597.499 848.509 605.542C816.06 614.221 781.287 613.021 748.22 609.24C677.431 601.109 609.395 577.645 544.959 547.924C480.999 518.358 419.585 483.488 355.184 454.787C296.42 428.609 233.78 407.529 168.741 407.486C117.755 407.35 63.7329 421.567 30.9366 463.281C-6.17625 510.364 -4.83984 573.711 9.04656 629.097C24.4748 690.809 52.3766 748.836 65.6619 811.135C68.7214 824.953 70.6094 839.005 71.3058 853.14C71.382 855.003 74.2819 854.805 74.326 852.937C73.0898 823.668 65.6642 794.955 57.0244 767.103C47.5165 736.427 36.1924 706.342 26.0772 675.872C6.84682 617.843 -9.71377 552.538 16.1607 493.803C27.2684 468.487 46.1461 447.365 70.0598 433.494C92.5261 420.475 118.345 413.963 144.031 411.567C208.245 405.576 272.286 423.358 331.095 447.668C396.044 474.511 457.418 509.135 520.64 539.716C584.297 570.504 650.518 596.348 720.479 608.337C778.719 618.29 849.534 623.595 898.225 583.615C919.615 565.971 934.959 542.178 946.926 517.384C958.7 492.805 967.823 467.042 974.142 440.531C988.514 381.204 990.096 319.213 983.667 258.696C979.959 224.972 974.002 191.533 965.836 158.603C957.011 122.55 945.161 87.6228 932.91 52.6157C927.979 38.4638 921.119 20.6801 926.591 5.76791C927.237 4.01926 924.639 2.69772 923.878 4.42354L923.993 4.44635Z" fill="#632DAA"/>
</svg>
