<svg width="952" height="736" viewBox="0 0 952 736" fill="none" xmlns="http://www.w3.org/2000/svg">
<path d="M839.111 216.051C811.603 163.348 776.458 114.021 732.558 73.5163C696.093 39.9006 652.599 12.5093 603.166 3.63254C580.959 -0.222364 558.281 -0.534472 535.975 2.70782C513.7 5.84906 490.476 11.0706 471.286 23.3523C430.712 49.3414 425.152 101.568 424.503 145.492C423.845 198.637 430.702 251.672 435.152 304.466C437.482 330.962 439.347 357.457 439.507 384C439.452 415.33 437.167 446.616 432.67 477.621C428.38 509.068 423.694 540.467 416.892 571.721C411.335 597.534 404.351 623.382 392.827 647.266C377.726 678.609 354.317 706.436 322.265 721.288C291.109 735.682 255.847 735.999 222.967 727.842C180.137 717.233 141.127 693.727 106.854 666.511C96.804 658.55 87.1474 650.135 77.7383 641.449C76.5093 640.309 74.9084 642.372 76.1168 643.495C110.218 675.006 148.701 703.257 192.065 720.552C224.678 733.461 260.475 740.165 295.129 733.004C326.68 726.17 354.769 708.331 374.369 682.679C403.706 645.223 415.294 597.372 423.841 551.51C434.904 491.916 443.742 431.094 442.051 370.359C440.563 316.181 433.355 262.368 429.486 208.336C427.347 182.78 426.717 157.119 427.6 131.489C428.604 110.498 431.029 89.1012 438.373 69.4014C442.919 57.0247 450.136 45.8019 459.512 36.5316C468.888 27.2614 480.191 20.1715 492.619 15.7664C514.289 8.01335 537.062 3.78434 560.071 3.24034C610.636 1.52087 658.665 19.7799 699.16 49.3593C744.709 82.6091 782.041 126.905 811.966 174.328C820.752 188.217 828.929 202.467 836.497 217.079C837.263 218.552 839.701 217.618 838.931 216.109L839.111 216.051Z" fill="#632DAA"/>
<path d="M842.227 214.556C816.993 169.749 785.925 128.016 747.909 93.2051C715.123 63.1034 677.007 38.1739 633.869 26.1879C612.183 20.2289 589.708 17.6506 567.237 18.5438C544.622 19.226 522.197 22.902 500.547 29.4758C479.776 35.9742 460.93 47.5284 448.629 65.8329C436.327 84.1375 431.306 105.91 428.615 127.264C422.237 178.042 427.927 229.986 431.735 280.772C435.544 331.559 438.813 382.984 432.978 434.127C429.957 460.482 425.311 486.616 420.302 512.663C415.579 539.425 409.223 565.874 401.271 591.861C387.204 635.483 363.171 677.807 322.451 701.415C249.352 743.946 162.291 706.328 101.305 660.017C91.805 652.792 82.6174 645.214 73.7053 637.288C72.3953 636.251 70.774 638.297 72.0839 639.335C129.024 689.703 208.362 737.826 287.599 718.245C327.606 708.363 359.536 680.756 380.37 645.792C406.867 601.324 416.535 548.454 425.783 498.216C430.533 472.497 434.764 446.634 437.093 420.564C439.208 395.552 439.703 370.429 438.575 345.353C436.614 293.831 430.369 242.714 429.045 191.23C428.373 165.88 428.727 140.244 433.223 115.223C437.235 92.2852 445.558 69.1632 463.113 52.8887C479.958 37.3844 502.237 30.581 524.221 26.2096C547.482 21.4406 571.295 19.9425 594.971 21.7586C692.323 30.3192 770.082 106.173 820.806 184.196C827.579 194.625 834.006 205.267 840.086 216.124C840.904 217.572 842.993 216.028 842.239 214.499L842.227 214.556Z" fill="#632DAA"/>
<path d="M845.544 213.353C798.254 135.917 727.384 62.0899 635.802 41.5772C613.876 36.8171 591.39 35.1639 569.004 36.6663C547.221 37.8008 525.632 41.3584 504.637 47.2731C484.561 53.1891 465.957 63.4697 453.181 80.5653C440.66 97.2968 434.772 117.85 431.432 138.089C423.452 186.6 428.053 236.848 430.775 285.642C433.565 335.654 435.386 385.333 427.86 435.036C424.051 460.367 418.691 485.469 412.906 510.435C407.421 535.551 400.259 560.271 391.468 584.429C375.768 625.991 350.073 665.199 310.746 687.679C278.568 706.095 240.647 710.568 204.549 703.992C165.312 696.795 128.971 677.868 96.8796 654.88C87.4102 648.078 78.2446 640.851 69.3426 633.333C68.0326 632.295 66.4112 634.342 67.7212 635.38C123.991 682.851 199.638 724.153 275.487 704.854C314.74 694.874 347.124 668.626 369.148 635.104C396.321 593.736 408.322 544.313 418.887 496.618C424.235 472.372 429.093 448.072 432.323 423.348C435.281 399.434 436.555 375.341 436.135 351.249C435.528 301.299 430.314 251.531 430.02 201.564C429.893 176.912 430.878 151.909 436.166 127.782C440.926 106.002 449.823 84.4679 467.079 69.6222C483.56 55.4613 504.809 49.0748 525.775 45.063C549.167 40.3117 573.033 38.3109 596.889 39.1014C691.844 43.4976 770.906 109.59 823.399 184.285C830.448 194.31 837.168 204.541 843.558 214.977C844.413 216.421 846.539 214.873 845.732 213.368L845.544 213.353Z" fill="#632DAA"/>
<path d="M848.842 212.134C799.474 137.783 726.632 71.7873 635.876 56.9595C614.345 53.6425 592.488 52.9875 570.797 55.0092C549.435 56.5013 528.265 60.0335 507.576 65.5575C488.61 70.9543 470.625 80.1594 457.812 95.4935C444.521 111.348 437.775 131.722 433.871 151.748C424.833 198.187 428.39 246.643 429.937 293.639C430.725 317.582 431.493 341.508 430.544 365.541C429.659 389.318 426.904 412.987 422.304 436.332C417.52 460.79 411.393 485.052 404.71 509.006C398.433 532.571 390.442 555.645 380.802 578.045C363.172 617.712 335.596 654.164 296.898 675.177C265.683 691.709 229.948 697.674 195.056 692.175C157.527 686.564 122.403 669.801 91.2303 648.639C82.1761 642.533 73.4215 635.964 64.8777 629.13C64.6062 628.915 64.2605 628.816 63.9165 628.856C63.5726 628.896 63.2586 629.071 63.0435 629.342C62.8285 629.614 62.7302 629.959 62.7701 630.303C62.81 630.647 62.9848 630.961 63.2563 631.176C118.753 675.671 190.739 710.408 263.123 691.362C301.002 681.392 332.996 657.235 356.075 626.081C384.454 587.733 398.916 541.426 410.972 495.845C417.193 472.39 423 448.742 427.069 424.849C430.987 401.474 433.098 377.832 433.385 354.133C434.157 306.143 429.966 258.151 430.955 210.266C431.477 187.361 433.05 164.222 438.628 141.958C443.917 120.73 453.491 100.065 470.891 86.1325C487.356 72.9586 508.08 67.0232 528.486 63.2996C550.708 59.0293 573.265 56.7427 595.892 56.4667C639.744 56.6176 682.779 68.3352 720.653 90.4366C762.059 114.241 797.748 147.742 826.603 185.623C833.576 194.778 840.329 204.125 846.684 213.723C847.609 215.121 849.734 213.574 848.858 212.114L848.842 212.134Z" fill="#632DAA"/>
<path d="M852.139 210.915C801.623 141.252 728.512 84.6365 641.244 73.4377C620.109 70.9208 598.763 70.7103 577.582 72.8101C556.417 74.4612 535.406 77.7058 514.729 82.5164C495.682 87.2163 477.214 95.1391 463.409 109.454C449.604 123.77 441.756 142.803 437.011 161.83C426.036 205.836 428.41 252.588 428.777 297.584C428.949 320.539 429.031 343.523 427.478 366.51C425.826 389.574 422.25 412.459 416.788 434.927C411.131 458.595 404.144 482.008 396.486 505.09C389.379 527.44 380.556 549.207 370.096 570.197C350.929 607.514 322.727 641.139 285.502 661.386C255.229 677.731 220.704 684.491 186.502 680.769C150.421 676.905 116.323 662.253 85.9009 642.918C77.1716 637.369 68.7094 631.399 60.4537 625.126C59.1437 624.088 57.5224 626.135 58.8323 627.173C88.7523 649.874 122.097 668.926 158.69 678.325C189.377 686.51 221.693 686.362 252.304 677.895C288.81 667.471 320.464 644.543 344.212 615.152C373.092 579.367 389.734 535.985 403.375 492.525C417.015 449.064 428.316 404.351 430.668 358.277C433.02 312.204 429.826 266.402 432.073 220.545C434.105 179.249 439.776 127.977 476.427 101.978C493.517 89.8652 514.36 84.7897 534.686 81.5029C556.942 77.5116 579.456 75.1178 602.054 74.3399C644.683 73.3862 686.894 82.9158 724.979 102.091C765.811 123.297 801.878 152.627 830.963 188.278C837.53 196.178 843.926 204.21 849.965 212.524C850.071 212.667 850.204 212.788 850.356 212.879C850.508 212.971 850.677 213.031 850.852 213.057C851.028 213.084 851.207 213.075 851.38 213.032C851.552 212.989 851.714 212.913 851.857 212.807C852 212.701 852.12 212.568 852.212 212.416C852.303 212.264 852.364 212.095 852.39 211.92C852.416 211.744 852.407 211.565 852.364 211.393C852.321 211.22 852.245 211.058 852.139 210.915Z" fill="#632DAA"/>
<path d="M855.421 209.717C803.585 144.537 729.254 97.1156 645.169 89.8043C624.158 88.1783 603.04 88.5488 582.099 90.911C561.031 92.8054 540.093 95.9414 519.394 100.303C501.299 104.39 483.355 111.063 469.256 123.479C454.77 136.256 445.774 154.047 440.136 172.267C427.138 214.37 428.373 259.953 427.387 303.545C426.855 325.243 426.243 347.043 423.888 368.729C421.305 391.239 416.705 413.472 410.142 435.158C403.782 456.77 396.272 478.236 388.098 499.278C380.048 520.955 370.187 541.915 358.618 561.937C337.434 597.09 309.234 628.484 272.715 648.092C243.427 663.981 210.257 671.3 177.002 669.212C142.902 666.884 110.377 654.578 81.0953 637.379C72.4212 632.306 64.0263 626.756 55.8217 620.923C54.5117 619.885 52.8903 621.932 54.2003 622.97C83.1561 643.608 115.303 660.512 150.269 668.056C179.948 674.501 210.777 673.305 239.868 664.578C275.662 653.791 307.145 631.793 331.651 603.802C360.954 570.384 379.718 529.749 395.011 488.364C410.305 446.98 423.296 405.137 427.273 361.217C431.25 317.298 429.172 272.779 432.839 228.747C436.253 188.145 444.797 140.015 482.519 116.996C500.105 106.276 520.688 102.16 540.758 99.0703C562.059 95.534 583.527 93.0936 605.079 91.7588C647.036 89.4563 688.965 96.7614 727.671 113.117C768.203 130.862 804.55 156.93 834.355 189.631C840.844 196.704 847.265 203.822 853.279 211.285C854.326 212.613 856.451 211.066 855.453 209.676L855.421 209.717Z" fill="#632DAA"/>
<path d="M858.718 208.498C805.681 148.03 729.625 109.936 649.195 106.085C628.633 105.328 608.045 106.23 587.628 108.783C566.825 111.159 545.778 113.675 525.269 117.782C507.534 121.289 489.764 126.9 475.262 137.932C460.342 149.198 450.226 165.669 443.71 182.894C428.602 222.993 428.559 267.497 426.144 309.656C425.238 330.607 423.224 351.496 420.112 372.234C416.408 393.594 410.772 414.574 403.273 434.914C375.222 512.631 336.105 593.973 260.298 634.792C232.13 650.252 200.447 658.178 168.317 657.803C135.926 657.061 104.651 646.878 76.3322 631.574C67.8278 627.003 59.5863 621.973 51.547 616.605C50.1397 615.69 48.5184 617.737 49.9256 618.651C78.0443 637.361 109.179 652.263 142.716 657.909C171.162 662.58 200.312 660.385 227.737 651.506C261.935 640.091 292.778 620.396 317.522 594.176C347.376 563.259 368.335 525.53 385.475 486.441C402.615 447.351 417.884 407.68 423.831 365.52C429.778 323.361 428.868 280.733 433.885 238.57C438.715 198.157 450.222 152.175 489.512 132.097C506.797 123.27 526.082 119.825 545.114 117.079C566.529 114.056 588.066 110.796 609.726 109.232C651.077 105.601 692.726 110.901 731.85 124.771C770.975 138.642 806.661 160.759 836.491 189.625C843.448 196.235 850.372 202.886 856.711 210.106C857.806 211.373 859.915 209.846 858.885 208.497L858.718 208.498Z" fill="#632DAA"/>
<path d="M861.733 207.089C848.434 193.823 833.767 182.003 817.977 171.828C801.893 161.154 784.803 152.08 766.952 144.734C731.225 130.356 693.111 122.834 654.6 122.559C634.796 122.509 615.012 123.81 595.385 126.453C574.794 128.897 554.245 131.541 533.875 134.926C516.475 137.799 498.94 142.23 483.659 151.345C468.331 161.049 456.138 174.98 448.552 191.459C430.642 228.072 428.984 270.831 425.032 310.64C423.416 330.921 420.629 351.092 416.685 371.052C412.015 391.711 405.405 411.883 396.943 431.299C365.734 505.181 322.685 579.711 250.649 620.186C223.27 635.996 192.521 645.061 160.944 646.631C129.862 647.727 99.3719 639.665 71.5392 626.145C63.1472 622.062 55.0387 617.538 47.0504 612.609C45.6475 611.731 44.0056 613.762 45.429 614.656C72.9153 631.599 103.241 644.495 135.471 648.173C163.322 651.105 191.474 647.617 217.767 637.978C251.377 625.601 281.848 605.973 307.013 580.488C336.43 551.257 358.743 516.066 377.391 479.237C395.784 442.939 412.869 405.306 420.551 365.12C428.396 324.098 428.348 282.02 435.985 240.966C439.697 220.888 445.386 200.544 456.178 183.009C466.148 166.427 481.317 153.604 499.328 146.535C517.237 139.402 536.426 137.046 555.548 134.438C576.495 131.544 597.408 128.356 618.475 126.489C658.313 123.002 699.038 125.714 737.504 136.997C775.173 148.008 810.225 166.528 840.55 191.441C847.464 196.93 854.081 202.783 860.372 208.975C861.516 210.181 863.137 208.134 861.994 206.928L861.733 207.089Z" fill="#632DAA"/>
<path d="M865.063 205.829C852.873 194.64 838.042 185.523 823.665 177.432C807.359 168.301 790.219 160.748 772.478 154.874C736.537 143.266 698.881 137.872 661.127 138.922C641.176 139.516 621.277 141.284 601.534 144.216C581.635 146.908 561.783 149.626 541.976 152.369C524.562 154.798 506.848 158.321 491.034 166.215C475.532 174.127 462.587 186.268 453.701 201.233C433.044 234.838 429.399 275.857 423.873 313.953C421.428 333.683 417.646 353.224 412.552 372.442C406.642 391.979 398.954 410.933 389.584 429.067C354.81 498.659 308.232 566.796 239.519 606.439C212.881 621.815 183.002 632.957 152.192 635.601C122.202 637.756 92.1542 632.289 64.8448 619.709C57.1249 616.292 49.6149 612.442 42.2543 608.277C40.8026 607.46 39.7988 609.863 41.1856 610.761C68.0846 626.006 97.7231 636.826 128.798 638.556C156.066 639.666 183.248 634.826 208.457 624.373C279.223 596.183 330.681 536.942 368.416 472.694C388.439 438.586 407.554 403.227 417.14 364.716C426.726 326.206 428.091 285.414 438.055 246.637C442.943 227.556 450.221 208.57 462.498 192.945C474.015 178.415 489.715 167.77 507.475 162.449C525.843 156.545 545.088 154.834 564.116 152.218C584.464 149.449 604.774 146.183 625.227 143.996C663.752 139.402 702.766 141.06 740.763 148.905C778.061 156.923 813.433 172.155 844.888 193.745C851.405 198.002 857.62 202.703 863.491 207.814C864.801 208.852 866.422 206.805 865.112 205.767L865.063 205.829Z" fill="#632DAA"/>
<path d="M868.361 204.61C862.434 200.172 856.116 196.283 849.484 192.988C842.059 188.905 834.512 185.059 826.756 181.646C811.15 174.806 795.008 169.261 778.493 165.069C742.459 156.24 705.3 152.892 668.268 155.139C629.572 157.099 591.595 165.258 553.156 169.586C535.907 171.512 518.464 174.019 502.075 179.99C485.999 185.834 471.835 195.977 461.125 209.313C436.613 239.332 430.477 279.542 422.963 316.363C419.54 335.463 414.662 354.273 408.373 372.629C401.32 390.987 392.572 408.648 382.242 425.383C343.295 490.404 294.924 553.023 229.008 592.416C203.157 607.85 174.47 620.136 144.529 624.501C115.967 628.44 86.8715 624.904 60.0839 614.239C52.5556 611.298 45.1839 607.972 37.998 604.272C36.5139 603.496 35.51 605.899 36.9292 606.757C62.963 620.15 91.1758 628.775 120.543 628.919C147.418 629.055 173.647 622.016 198.17 611.328C266.734 581.46 319.357 525.207 360.472 464.135C381.483 432.943 402.314 400.675 413.921 364.532C425.834 327.332 428.458 287.77 441.587 250.967C448.183 232.506 457.739 215.059 472.053 201.447C485.45 188.74 502.336 181.763 520.113 177.657C537.89 173.55 556.324 172.063 574.537 169.467C594.18 166.706 613.739 163.378 633.391 160.857C705.814 151.602 781.965 158.625 846.803 194.229C853.783 197.754 860.43 201.904 866.662 206.629C866.933 206.844 867.279 206.942 867.623 206.902C867.967 206.862 868.281 206.687 868.496 206.416C868.711 206.144 868.809 205.799 868.769 205.455C868.729 205.111 868.555 204.797 868.283 204.582L868.361 204.61Z" fill="#632DAA"/>
<path d="M871.658 203.391C865.954 199.667 859.818 196.653 853.386 194.413C846.272 191.577 839.171 188.85 831.909 186.495C816.114 181.409 799.977 177.454 783.621 174.66C747.808 168.9 711.406 167.738 675.298 171.201C637.966 174.341 601.458 182.665 564.189 186.988C546.834 188.963 529.428 190.499 512.51 195.119C495.96 199.335 480.757 207.701 468.339 219.425C441.059 245.452 431.958 283.014 422.307 318.075C417.764 336.206 411.751 353.937 404.328 371.091C396.168 388.255 386.38 404.597 375.099 419.891C331.494 480.489 282.031 538.979 217.938 578.551C192.859 594.062 165.175 607.311 136.197 613.404C109.218 618.939 81.256 617.265 55.1299 608.549C47.7642 606.081 40.5379 603.215 33.4829 599.963C31.9707 599.265 30.9301 601.672 32.4142 602.448C57.9749 614.168 85.6117 620.87 113.832 619.139C139.838 617.554 164.788 609.103 188.074 598C253.987 566.433 306.865 513.347 351.152 456.22C373.463 427.423 396.358 397.89 410.264 363.934C424.371 329.304 428.895 291.381 444.852 257.484C452.909 239.539 465.395 223.936 481.137 212.141C495.491 201.758 513.199 196.898 530.46 193.948C548.372 190.848 566.567 189.704 584.551 187.061C602.535 184.417 621.245 180.983 639.62 178.183C710.017 167.49 783.921 169.235 850.666 196.29C857.446 198.602 863.924 201.72 869.96 205.577C871.27 206.615 872.912 204.584 871.581 203.53L871.658 203.391Z" fill="#632DAA"/>
<path d="M874.939 202.193C869.625 199.117 863.819 196.985 857.777 195.893C851.077 194.384 844.479 192.621 837.76 191.263C822.096 188.08 806.265 185.783 790.343 184.383C754.644 181.548 718.746 182.429 683.229 187.01C646.979 191.308 611.374 200.047 575.206 204.409C542.479 208.465 506.722 208.523 478.904 228.627C464.559 239.1 452.645 252.548 443.978 268.051C434.818 284.114 428.72 301.736 422.364 319.054C416.716 335.763 409.707 351.981 401.408 367.545C392.107 383.525 381.298 398.578 369.13 412.498C321.684 468.188 271.395 522.926 209.765 563.216C185.02 579.358 158.285 594.057 129.728 602.184C104.101 609.557 76.9638 609.919 51.1487 603.23C43.6753 601.222 36.3355 598.746 29.1729 595.816C28.8435 595.674 28.4712 595.669 28.138 595.802C27.8048 595.935 27.538 596.195 27.3963 596.524C27.2546 596.854 27.2495 597.226 27.3823 597.559C27.515 597.892 27.7747 598.159 28.1042 598.301C53.1164 608.799 80.4184 612.65 107.359 609.481C132.932 606.087 156.994 596.066 179.635 584.053C243.457 550.163 296.321 499.198 343.911 445.554C367.055 419.449 391.373 393.208 407.474 361.99C424.209 329.509 430.885 292.191 451.131 261.459C461.383 245.338 475.712 232.21 492.667 223.406C507.9 215.952 524.87 212.738 541.555 210.599C559.32 208.315 577.132 207.067 594.817 204.254C612.502 201.44 630.433 197.855 648.39 194.657C716.31 182.802 786.732 180.489 853.96 197.6C860.779 199.337 867.248 200.464 873.334 204.219C874.753 205.077 876.395 203.046 874.955 202.172L874.939 202.193Z" fill="#632DAA"/>
<path d="M877.938 200.804C872.557 198.245 866.676 196.909 860.718 196.89C854.032 196.457 847.381 195.686 840.711 195.233C825.917 194.285 811.036 193.767 796.069 193.682C760.449 193.92 724.902 196.949 689.756 202.741C654.609 208.211 619.988 217.264 584.633 221.904C552.376 226.165 516.938 224.643 487.613 240.889C472.468 249.327 459.253 260.838 448.818 274.683C438.488 288.354 431.035 303.903 423.6 319.133C415.807 335.112 407.939 351.099 397.536 365.578C386.952 380.015 375.109 393.487 362.149 405.835C310.757 455.868 260.281 507.393 200.831 548.043C176.548 564.652 150.728 580.509 122.981 590.642C98.4765 599.914 71.9004 602.296 46.1379 597.529C38.8289 596.074 31.628 594.12 24.5856 591.682C23.0171 591.139 21.9765 593.546 23.4964 594.151C48.2029 602.972 74.8372 604.938 100.571 599.84C125.744 594.597 149.007 582.977 171.044 570.086C232.891 534.064 285.432 484.81 336.177 434.964C360.79 410.789 387.218 387.351 405.819 357.981C424.421 328.611 434.282 293.916 457.919 267.735C469.912 254.144 485.051 243.697 502.012 237.304C518.198 231.505 535.507 229.293 552.571 227.686C570.257 226.006 587.785 224.401 605.294 221.348C622.803 218.294 639.86 214.55 657.037 211.201C692.64 203.929 728.718 199.21 764.994 197.081C796.353 195.75 827.766 196.528 859.021 199.41C865.459 199.946 870.986 200.16 876.918 203.227C878.402 204.003 879.422 201.58 877.987 200.743L877.938 200.804Z" fill="#632DAA"/>
<path d="M881.235 199.585C876.116 197.497 870.512 196.891 865.065 197.836C859.021 198.611 852.852 198.788 846.786 199.212C831.938 200.209 817.062 201.284 802.257 202.648C767.183 206.053 732.303 211.221 697.749 218.134C663.342 224.857 629.405 234.351 594.696 239.436C561.76 244.26 526.804 241.92 495.493 254.827C480.262 261.277 466.412 270.594 454.698 282.273C442.651 294.116 433.559 308.201 424.369 322.241C415.377 336.753 405.188 350.488 393.908 363.303C381.9 376.075 368.961 387.939 355.198 398.797C300.54 442.945 249.696 491.78 192.506 532.689C148.813 564.002 98.173 599.04 41.6009 592.07C34.3266 591.15 27.1306 589.692 20.072 587.708C18.4753 587.242 17.4347 589.649 18.9828 590.176C43.365 597.222 69.2312 597.312 93.662 590.437C118.814 583.244 141.647 569.685 163.414 555.747C223.262 517.244 275.839 469.249 329.877 423.278C354.985 401.926 382.128 382.253 403.19 356.631C424.836 330.273 438.704 297.752 465.694 275.96C479.224 264.862 494.993 256.819 511.92 252.382C528.802 248.569 545.986 246.252 563.275 245.459C580.643 244.254 597.925 242.026 615.031 238.788C631.959 235.542 648.749 231.419 665.582 227.664C700.486 219.935 735.717 213.265 771.224 208.813C801.221 205.092 831.41 203.189 861.496 201.038C868.128 200.529 873.584 199.487 880.016 202.217C880.346 202.359 880.718 202.364 881.051 202.231C881.384 202.098 881.651 201.839 881.793 201.509C881.934 201.18 881.94 200.807 881.807 200.474C881.674 200.141 881.414 199.874 881.085 199.733L881.235 199.585Z" fill="#632DAA"/>
<path d="M884.468 198.448C879.406 196.743 873.917 196.796 868.89 198.6C862.864 200.489 856.687 201.726 850.535 203.015C836.281 206.081 821.943 208.748 807.63 211.467C772.741 218.042 737.991 225.66 703.452 233.811C669.854 241.741 636.556 251.774 602.468 257.085C569.375 262.317 534.874 259.571 502.567 269.657C486.995 274.736 472.399 282.426 459.404 292.396C446.966 301.831 436.757 313.332 426.413 324.959C415.412 337.739 403.438 349.649 390.6 360.582C377.643 371.076 364.136 380.87 350.135 389.923C291.876 428.187 240.132 475.342 184.405 517.01C160.321 535.009 135.782 553.413 109.237 567.663C86.4544 579.897 61.5874 587.781 35.5085 586.177C28.764 585.741 22.062 584.797 15.4593 583.354C13.8019 583.007 13.4514 585.594 15.0883 585.925C39.7017 591.239 65.3345 589.197 88.796 580.053C113.598 570.484 135.806 555.064 157.326 539.799C215.08 499.103 267.754 451.951 324.917 410.488C351.272 391.39 379.833 374.805 403.757 352.383C427.21 330.387 445.129 303.141 473.052 286.185C487.605 277.215 503.695 271.019 520.506 267.911C537.606 265.199 554.854 263.522 572.155 262.887C605.9 260.869 638.305 252.427 670.923 244.22C706.233 235.347 741.696 226.996 777.475 219.761C806.83 213.865 836.562 209.302 865.628 202.045C871.982 200.416 876.956 198.427 883.434 200.594C885.019 201.116 886.059 198.709 884.503 198.109L884.468 198.448Z" fill="#632DAA"/>
<path d="M887.503 197.055C882.029 195.801 876.281 196.735 871.485 199.657C866.154 202.178 860.693 204.413 855.123 206.35C841.433 211.395 827.486 215.671 813.497 219.747C780.01 229.597 746.354 238.947 712.743 248.366C679.132 257.785 645.796 268.622 611.581 274.598C577.953 280.505 543.303 277.442 510.022 285.057C494.834 288.749 480.228 294.521 466.62 302.21C453.653 309.732 441.383 318.396 429.956 328.099C403.661 349.309 374.639 365.928 344.716 381.5C283.84 413.226 231.47 458.354 177.564 500.332C153.353 519.163 129.321 538.735 103.456 555.322C81.7785 569.231 57.8832 579.884 31.7993 580.641C24.8271 580.802 17.8541 580.361 10.9579 579.322C10.635 579.309 10.3186 579.416 10.07 579.622C9.82135 579.829 9.65816 580.12 9.61201 580.44C9.56585 580.76 9.63995 581.086 9.82008 581.354C10.0002 581.623 10.2734 581.815 10.587 581.893C35.573 585.375 61.0263 581.126 83.5262 569.716C108.092 557.629 129.781 540.298 151.434 523.772C179.266 502.513 206.73 480.796 234.284 459.217C261.751 437.169 290.524 416.8 320.446 398.218C348.495 381.229 378.677 367.728 405.85 349.278C418.915 340.439 430.896 330.276 443.263 320.552C455.763 310.774 469.491 302.676 484.095 296.466C499.31 290.014 515.392 285.838 531.823 284.071C549.145 282.137 566.599 281.971 583.998 280.697C617.304 278.265 649.345 268.768 681.335 259.797C716.12 250.075 750.846 240.173 785.605 230.398C813.625 222.613 842.605 215.255 869.383 203.488C875.503 200.808 880.126 197.874 887.116 199.647C888.761 200.051 889.112 197.463 887.483 197.039L887.503 197.055Z" fill="#632DAA"/>
<path d="M890.805 195.873C888.081 195.443 885.297 195.594 882.635 196.315C879.974 197.037 877.495 198.314 875.361 200.062C870.172 203.631 864.761 206.866 859.161 209.748C846.049 216.544 832.584 222.635 818.823 227.995C786.318 241.022 753.039 252.503 719.768 263.258C686.498 274.013 653.371 285.681 619.183 292.211C584.995 298.741 550.715 295.505 516.702 300.974C500.64 303.783 484.956 308.44 469.964 314.852C456.602 320.755 443.57 327.379 430.926 334.697C417.118 341.98 402.86 348.377 388.239 353.849C372.405 359.96 356.698 366.373 340.893 372.575C277.626 397.311 223.968 440.784 171.547 482.906C146.977 502.652 123.172 523.536 97.9505 542.466C77.0035 558.186 53.8 571.918 27.2949 574.974C20.4057 575.705 13.4627 575.782 6.55893 575.204C4.89042 575.081 4.56458 577.722 6.2084 577.791C31.8607 579.723 55.9026 572.418 77.788 559.34C102.398 544.59 123.954 524.989 146.047 506.812C173.117 484.583 200.416 462.736 228.495 441.672C256.573 420.608 285.146 401.402 316.424 386.138C345.624 371.859 376.725 361.95 406.609 349.246C420.479 343.343 433.4 335.99 446.623 328.842C460.362 321.4 474.764 315.255 489.644 310.488C505.812 305.382 522.536 302.244 539.454 301.142C556.878 299.92 574.399 300.175 591.797 298.733C625.179 295.995 657.192 285.776 689.01 275.803C723.43 265.07 757.584 253.55 791.473 241.242C818.952 231.196 847.155 220.824 872.149 205.379C878.151 201.671 882.815 197.171 890.386 198.505C892.055 198.795 892.406 196.208 890.757 195.934L890.805 195.873Z" fill="#632DAA"/>
<path d="M894.103 194.654C891.378 194.429 888.637 194.811 886.077 195.774C883.518 196.736 881.204 198.254 879.301 200.218C874.579 204.453 869.629 208.428 864.474 212.124C852.214 220.633 839.374 228.271 826.046 234.983C794.405 250.982 761.851 265.104 728.55 277.277C695.837 289.473 662.445 302.063 628.221 309.397C611.313 312.867 594.114 314.725 576.855 314.946C559.59 315.294 542.246 315.279 525.032 316.867C494.704 319.66 465.431 329.616 436.941 339.761C421.206 345.285 404.867 348.165 388.509 351.364C372.15 354.562 356.423 358.227 340.785 362.828C325.374 367.083 310.27 372.381 295.578 378.685C280.074 385.746 264.99 393.696 250.401 402.494C235.474 411.714 221.056 421.732 207.208 432.505C193.01 443.111 179.116 454.091 165.439 465.343C140.344 486.005 116.692 508.209 92.1048 529.407C71.5054 547.001 48.9167 563.953 21.778 569.238C15.2191 570.488 8.55448 571.099 1.87759 571.063C0.205612 571.071 0.50769 573.675 2.17967 573.667C28.7854 573.723 52.5093 563.034 73.6369 547.591C98.0889 529.717 119.557 507.914 142.434 488.16C168.893 465.314 196.159 443.34 224.6 422.997C253.04 402.653 283.155 385.201 315.849 373.323C346.845 362.033 379.206 356.42 411.325 349.517C425.573 346.053 439.604 341.75 453.345 336.632C468.541 331.519 483.989 327.19 499.63 323.661C533.371 315.844 567.846 319.801 602.052 316.317C635.455 312.796 667.264 301.783 698.809 290.894C732.829 279.067 766.422 265.97 799.224 251.013C825.958 238.711 853.755 225.319 876.635 206.234C881.972 201.767 886.168 196.596 893.752 197.241C895.425 197.4 895.714 194.764 894.123 194.67L894.103 194.654Z" fill="#632DAA"/>
<path d="M897.4 193.435C894.668 193.422 891.967 194.021 889.497 195.189C887.027 196.357 884.85 198.064 883.126 200.184C878.31 205.296 873.678 210.388 868.375 215.148C856.782 225.329 844.372 234.539 831.27 242.686C800.263 261.937 767.703 278.565 733.928 292.397C701.691 305.969 668.422 319.457 634.248 327.231C617.531 330.959 600.464 332.894 583.336 333.006C565.422 333.206 547.505 332.737 529.606 333.549C498.065 335.014 467.335 343.151 436.259 347.982C420.321 350.481 404.242 349.837 388.269 349.942C371.195 350.138 354.166 351.722 337.348 354.677C321.936 357.158 306.746 360.865 291.923 365.764C275.752 371.548 260.041 378.546 244.926 386.698C230.032 394.874 215.727 404.079 202.116 414.248C187.851 424.49 173.987 435.249 160.524 446.526C134.857 467.868 111.239 491.165 87.482 514.553C67.549 534.208 45.8979 554.433 18.5296 562.868C11.6767 564.966 4.60911 566.284 -2.53932 566.798C-4.21474 566.937 -3.89644 569.521 -2.23724 569.403C25.1736 567.264 48.4207 553.267 68.7224 535.67C92.5695 514.985 113.776 491.41 137.197 470.254C163.226 446.561 190.91 424.752 220.039 404.994C248.168 385.662 279.387 371.267 312.354 362.427C329.109 358.366 346.145 355.57 363.319 354.063C379.305 352.469 395.305 352.751 411.172 352.528C426.128 352.001 441.011 350.182 455.654 347.09C471.878 344.018 488.149 341.35 504.461 338.715C538.837 333.167 573.704 338.101 608.186 334.268C641.507 330.683 673.406 318.841 704.587 306.898C739.042 293.902 772.577 278.586 804.961 261.054C831.366 246.56 857.836 230.218 878.958 208.474C884.241 203.066 888.529 195.802 896.903 196.039C898.579 196.068 898.946 193.46 897.29 193.448L897.4 193.435Z" fill="#632DAA"/>
<path d="M900.363 192.217C893.775 192.628 889.466 196.511 885.649 201.582C881.188 207.509 876.689 213.272 871.654 218.745C860.272 230.798 847.824 241.798 834.461 251.61C804.339 273.687 772.026 292.608 738.033 308.074C720.931 316.08 703.488 323.382 685.96 330.117C670.148 336.505 653.896 341.745 637.331 345.795C620.706 349.527 603.707 351.33 586.67 351.169C568.804 351.141 550.933 350.277 533.064 350.379C500.542 350.6 468.187 356.584 435.608 355.994C418.862 355.687 402.495 351.916 386.003 349.479C353.632 344.981 320.714 346.375 288.838 353.593C272.645 357.75 256.873 363.4 241.724 370.47C210.025 384.835 181.271 406.33 154.683 428.541C128.775 450.698 104.44 474.632 81.8544 500.168C62.1844 521.929 41.41 545.547 13.5666 556.937C6.88615 559.702 -0.100159 561.66 -7.24438 562.771C-8.90281 563.056 -8.62117 565.644 -6.94228 565.375C21.0322 560.885 43.457 543.804 62.8799 524.079C86.4472 500.341 107.598 474.523 132.145 451.694C182.326 405.167 241.981 361.146 311.585 351.791C328.957 349.52 346.502 348.854 363.996 349.801C380.728 350.63 397.045 354.128 413.589 356.54C428.531 358.487 443.633 358.897 458.658 357.763C475.557 356.826 492.495 355.586 509.339 354.004C543.758 350.756 578.494 356.318 612.85 352.519C647.206 348.721 679.635 336 710.989 322.828C745.309 308.673 778.346 291.588 809.735 271.764C836.73 254.506 863.321 234.563 883.202 209.171C888.066 203.031 891.912 195.317 900.624 194.789C902.304 194.688 902.002 192.083 900.322 192.185L900.363 192.217Z" fill="#632DAA"/>
<path d="M903.644 191.02C896.614 191.946 892.449 196.742 888.712 202.51C884.689 208.85 880.637 215.101 876.013 221.065C865.374 234.619 853.468 247.129 840.456 258.424C811.486 283.391 779.608 304.769 745.514 322.096C728.413 331.068 710.773 339.081 692.878 346.491C677.638 353.086 661.943 358.578 645.916 362.923C628.966 367.296 611.516 369.432 594.012 369.278C575.59 369.109 557.241 367.799 538.854 367.125C505.44 365.907 471.9 368.886 438.66 364.042C421.059 361.493 404.431 355.15 387.434 350.113C370.537 345.04 353.142 341.804 335.551 340.461C302.714 337.823 269.706 342.668 239.013 354.632C206.074 367.282 176.809 387.405 149.63 409.814C122.716 432.548 98.091 457.859 76.1066 485.388C56.5452 509.368 36.8225 536.284 8.83986 550.961C2.38113 554.335 -4.45714 556.925 -11.5298 558.677C-13.1388 559.068 -12.8571 561.656 -11.2277 561.282C17.3421 554.232 38.7434 533.775 57.4025 512.112C68.3278 499.414 78.6348 486.192 89.4168 473.38C101.156 459.468 113.648 446.211 126.838 433.667C177.111 385.846 239.666 343.757 311.369 342.392C329.641 342.027 347.899 343.655 365.818 347.248C383.445 350.818 400.192 357.388 417.462 362.207C448.599 370.882 482.388 370.532 514.454 369.583C549.908 368.519 585.663 375.023 621.011 370.477C655.09 366.06 687.369 352.52 718.375 338.273C752.939 322.655 785.794 303.502 816.415 281.12C843.308 261.216 869.12 237.925 887.344 209.621C891.614 203.01 895.237 194.82 903.914 193.665C905.56 193.437 905.278 190.849 903.595 191.081L903.644 191.02Z" fill="#632DAA"/>
<path d="M906.941 189.8C900.28 191.186 896.322 195.679 893.017 201.322C888.661 208.798 884.77 216.443 879.997 223.688C870.213 238.347 859.046 252.035 846.651 264.564C818.923 292.348 787.544 316.229 753.376 335.552C736.062 345.502 718.244 354.548 699.994 362.654C684.656 369.804 668.793 375.77 652.546 380.5C634.936 385.392 616.712 387.718 598.438 387.408C579.828 387.057 561.297 385.302 542.751 383.903C507.479 381.247 471.785 381.52 437.477 371.633C420.342 366.687 404.464 358.64 388.105 351.41C371.286 343.942 353.695 338.352 335.65 334.743C302.466 328.002 268.126 329.64 235.735 339.509C201.384 350.241 171.013 369.489 143.273 392.186C115.605 415.294 90.9014 441.734 69.7239 470.905C50.3888 496.995 31.9397 526.72 4.17709 544.736C-2.20176 548.885 -9.07929 552.212 -16.2921 554.638C-17.8841 555.176 -16.8696 557.512 -15.3425 557.056C14.1144 547.078 34.5137 522.629 52.5499 498.641C63.3204 484.287 73.5877 469.601 84.7267 455.54C96.2469 440.931 108.772 427.143 122.21 414.277C148.141 389.447 177.935 366.511 210.733 351.517C242.598 336.788 277.8 330.774 312.748 334.09C331.775 335.868 350.515 339.962 368.55 346.281C385.912 352.538 402.213 361.187 419.309 368.034C451.355 380.86 486.673 383.92 520.813 385.146C556.413 386.464 592.378 393.334 627.89 388.285C662.322 383.381 694.869 368.788 725.719 353.351C760.245 336.293 792.647 315.235 822.255 290.61C848.972 268.068 873.503 241.895 890.556 211.199C894.587 203.966 898.048 194.215 907.186 192.393C908.804 192.075 908.522 189.487 906.868 189.809L906.941 189.8Z" fill="#632DAA"/>
<path d="M909.929 188.636C902.504 190.649 898.526 197.059 895.3 203.697C891.355 211.831 887.54 219.969 883.023 227.817C873.551 243.956 862.568 259.159 850.221 273.221C823.61 303.261 792.753 329.253 758.627 350.37C740.982 361.412 722.701 371.402 703.88 380.29C688.554 387.788 672.629 393.993 656.271 398.841C638.3 403.943 619.643 406.213 600.972 405.571C582.402 404.918 563.848 402.814 545.438 400.655C509.009 396.516 472.54 393.478 438.148 379.659C420.782 372.565 404.732 362.716 388.392 353.57C371.691 343.816 353.983 335.898 335.578 329.955C302.696 319.865 267.885 317.174 234.183 324.689C198.909 332.591 167.475 350.363 139.273 372.761C110.216 396.177 84.8978 423.884 64.1905 454.929C44.8026 483.609 27.5067 516.546 -0.156319 538.305C-6.42397 543.272 -13.3121 547.401 -20.6467 550.589C-22.2055 551.253 -21.2354 553.687 -19.6971 553.007C10.6462 539.933 29.9855 511.314 47.671 484.782C58.2338 468.798 68.494 452.608 80.0675 437.325C91.3993 422.195 103.94 408.009 117.565 394.908C131.153 381.94 145.824 370.158 161.419 359.69C176.477 349.215 192.801 340.689 210.002 334.315C243.483 322.041 279.784 319.637 314.592 327.389C333.912 331.346 352.623 337.845 370.236 346.717C387.262 355.207 403.298 365.578 420.252 374.244C452.495 390.691 488.603 397.674 524.392 400.94C560.181 404.206 597.075 411.878 633.303 406.431C668.655 401.123 701.861 385.32 732.948 368.405C767.781 349.685 799.998 326.462 828.769 299.334C855.159 274.135 878.472 244.999 894.271 211.976C898.087 204.006 901.279 193.71 910.761 191.16C912.382 190.712 911.379 188.319 909.807 188.706L909.929 188.636Z" fill="#632DAA"/>
<path d="M913.21 187.437C905.605 189.974 901.784 196.941 898.763 203.909C895.041 212.519 891.686 221.254 887.375 229.598C878.332 247.428 867.596 264.347 855.315 280.121C830.136 312.234 800.186 340.3 766.507 363.342C749.426 375.084 731.594 385.697 713.127 395.11C697.267 403.515 680.7 410.512 663.617 416.02C645.692 421.634 626.955 424.209 608.18 423.639C588.965 422.684 569.822 420.622 550.845 417.463C531.509 414.539 512.121 411.973 493.148 407.203C474.666 402.687 456.725 396.193 439.635 387.833C421.506 378.801 405.071 366.915 388.301 355.663C372.082 344.385 354.817 334.692 336.745 326.716C304.021 312.853 268.179 306.08 232.759 310.802C196.149 315.68 163.121 332.057 133.993 354.321C104.029 377.618 78.4387 406.05 58.4136 438.293C47.8745 454.962 38.1865 472.239 27.9577 489.02C18.4563 504.379 8.14696 519.665 -5.16164 532.008C-11.1862 537.631 -17.9025 542.464 -25.1485 546.39C-26.6211 547.155 -25.6877 549.593 -24.1989 548.807C6.57277 532.376 24.6267 500.206 41.7167 471.104C51.9626 453.67 62.1386 436.114 74.0699 419.748C85.4737 404.065 98.312 389.477 112.419 376.173C139.464 350.694 172.196 328.086 208.457 318.434C244.196 309.065 281.891 310.32 316.927 322.044C336.669 328.607 355.519 337.597 373.044 348.808C389.946 359.431 405.921 371.519 423.078 381.779C455.694 401.287 492.381 411.493 529.767 416.99C565.965 422.346 603.551 430.366 640.115 424.452C675.901 418.554 709.422 401.469 740.393 383.23C807.568 343.635 868.222 285.148 898.24 212.055C901.511 203.72 904.715 193.2 914.075 190.088C915.667 189.55 914.653 187.214 913.122 187.633L913.21 187.437Z" fill="#632DAA"/>
<path d="M916.512 186.255C908.762 189.31 905.038 196.787 902.174 204.145C898.512 213.604 895.23 223.13 891.103 232.419C882.64 251.328 872.441 269.411 860.638 286.437C836.633 320.94 807.246 351.365 773.597 376.553C756.371 389.495 738.223 401.161 719.298 411.458C703.018 420.675 685.889 428.302 668.146 434.231C650.082 440.053 631.128 442.623 612.166 441.821C591.799 440.613 571.546 437.93 551.567 433.793C530.757 430.277 510.226 425.279 490.128 418.836C471.12 412.427 452.899 403.884 435.816 393.369C400.66 371.516 371.034 342.052 334.116 322.801C301.05 305.669 263.862 295.465 226.393 298.231C188.925 300.997 154.743 316.393 125.016 338.949C93.8506 362.564 68.9165 392.948 49.4059 426.661C39.3477 444.111 30.4587 462.187 20.8133 479.83C11.8993 496.088 2.27978 512.353 -10.3903 526.034C-16.23 532.342 -22.8531 537.877 -30.098 542.503C-31.5169 543.411 -29.9734 545.499 -28.4889 544.677C1.73859 525.315 18.2587 490.499 34.3946 459.742C43.8631 440.847 54.4373 422.527 66.0621 404.878C77.3387 388.445 90.3019 373.236 104.741 359.498C132.78 332.974 166.945 311.335 205.169 303.704C242.321 296.291 280.217 301.859 314.931 316.532C335.124 325.277 354.238 336.327 371.893 349.462C388.427 361.559 404.174 374.733 420.951 386.524C453.724 409.201 490.895 424.743 530.056 432.143C567.679 439.527 607.107 449.006 645.523 442.394C682.171 436.081 716.399 417.556 747.457 397.82C815.996 354.275 873.877 289.995 901.674 213.144C904.886 204.296 907.794 192.508 917.461 188.673C917.748 188.525 917.97 188.275 918.084 187.973C918.198 187.67 918.196 187.336 918.078 187.036C917.96 186.735 917.734 186.488 917.445 186.344C917.155 186.2 916.823 186.168 916.512 186.255Z" fill="#632DAA"/>
<path d="M919.809 185.036C911.935 188.626 908.324 196.592 905.564 204.366C902.055 214.345 899.046 224.453 895.154 234.328C887.208 254.38 877.491 273.684 866.118 292.01C843.459 328.539 814.976 361.115 781.798 388.446C764.828 402.383 746.783 414.955 727.83 426.045C711.171 436.192 693.529 444.627 675.172 451.223C656.784 457.711 637.332 460.648 617.848 459.88C597.226 458.542 576.76 455.405 556.684 450.505C535.01 445.972 513.744 439.666 493.102 431.652C473.232 423.583 454.337 413.297 436.775 400.99C400.847 375.695 370.907 342.884 333.335 319.751C300.167 299.34 262.3 285.367 223.004 285.353C204.124 285.223 185.368 288.405 167.587 294.754C150.053 301.354 133.519 310.353 118.456 321.494C86.007 345.258 60.6962 377.042 41.8787 412.404C32.1102 430.749 23.7235 449.789 14.7072 468.531C6.21166 486.152 -2.79746 503.833 -15.0679 519.197C-20.6747 526.314 -27.1533 532.699 -34.3515 538.2C-34.4943 538.306 -34.6148 538.439 -34.7063 538.591C-34.7977 538.743 -34.8583 538.912 -34.8846 539.088C-34.9108 539.263 -34.9021 539.442 -34.8591 539.615C-34.8161 539.787 -34.7396 539.949 -34.634 540.092C-34.5283 540.235 -34.3956 540.355 -34.2434 540.447C-34.0911 540.538 -33.9224 540.599 -33.7467 540.625C-33.5711 540.651 -33.392 540.642 -33.2197 540.599C-33.0474 540.557 -32.8852 540.48 -32.7425 540.374C-2.69401 517.707 12.3443 480.051 27.8496 447.062C36.6651 427.324 46.8266 408.215 58.2621 389.871C69.5498 372.457 82.8758 356.454 97.9574 342.199C126.802 315.08 162.293 294.624 201.997 289.499C241.701 284.374 281.251 294.582 316.101 312.995C356.037 334.07 387.095 366.101 422.225 393.495C455.426 419.358 493.715 437.917 534.585 447.956C572.511 457.312 612.771 467.551 651.922 460.221C689.598 453.156 724.707 432.932 755.874 411.417C824.781 363.832 879.277 294.406 905.037 214.408C908.082 204.928 910.785 192.012 920.759 187.454C922.277 186.758 921.327 184.34 919.809 185.036Z" fill="#632DAA"/>
<path d="M923.106 183.818C915.194 187.877 911.678 196.184 909.045 204.259C905.61 214.863 902.827 225.65 899.159 236.169C891.946 256.766 883.04 276.731 872.53 295.858C840.233 355.022 793.324 404.93 736.273 440.828C719.448 451.846 701.528 461.094 682.799 468.425C663.907 475.622 643.752 478.921 623.551 478.122C602.008 476.685 580.678 472.966 559.92 467.026C537.773 461.467 516.178 453.905 495.402 444.434C474.748 434.646 455.237 422.609 437.222 408.541C400.856 380.1 370.569 344.615 332.848 317.8C299.563 294.132 260.828 276.207 219.642 273.363C200.256 271.797 180.747 273.839 162.105 279.386C143.723 285.266 126.387 294.021 110.744 305.325C76.8973 329.381 51.4692 363.038 33.3216 400.329C23.8684 419.79 15.9966 439.905 7.4671 459.798C-0.551024 478.331 -8.81236 497.17 -20.5756 513.702C-25.81 521.274 -31.943 528.183 -38.8403 534.279C-40.0869 535.39 -38.5597 537.499 -37.2312 536.453C-8.00002 510.906 5.52467 471.418 20.116 436.639C28.2478 416.045 37.8853 396.077 48.9503 376.899C60.0462 358.433 73.5653 341.536 89.147 326.659C119.122 298.07 156.708 278.209 198.383 275.81C240.058 273.412 281.239 287.911 316.347 309.992C355.644 334.692 386.672 369.031 421.542 399.151C455.242 428.535 494.779 450.454 537.555 463.467C576.328 474.993 618.073 486.342 658.614 478.015C697.395 470.06 733.371 447.857 764.647 424.396C834.568 371.434 885.325 297.128 909.229 212.733C911.884 203.41 914.639 191.101 924.04 186.256C925.549 185.486 924.579 183.052 923.106 183.818Z" fill="#632DAA"/>
<path d="M926.107 182.763C917.53 187.661 914.238 197.746 911.765 206.713C908.739 217.641 905.999 228.795 902.561 239.696C895.549 261.795 886.773 283.294 876.317 303.987C855.951 344.53 828.99 381.407 796.537 413.113C779.38 429.618 760.734 444.499 740.836 457.567C723.547 469.444 704.959 479.308 685.434 486.968C666.294 494.298 645.808 497.448 625.351 496.204C603.124 494.209 581.201 489.653 560.02 482.628C537.361 475.796 515.434 466.74 494.559 455.591C473.204 443.829 453.171 429.813 434.801 413.785C398.194 381.989 367.361 344.039 329.155 314.009C295.572 287.605 256.137 266.528 213.206 261.302C193.416 258.689 173.307 259.891 153.969 264.846C135.243 270.086 117.569 278.539 101.734 289.826C66.655 314.472 41.5497 349.95 24.421 388.815C15.3847 409.306 8.0482 430.51 0.13945 451.428C-7.31855 471.104 -15.2202 490.962 -26.5163 508.796C-31.3804 516.535 -37.0726 523.721 -43.4923 530.227C-44.6937 531.407 -42.6307 533.008 -41.4454 531.848C-27.9386 518.33 -18.4238 501.482 -10.436 484.291C-1.36399 464.428 5.78378 443.84 13.515 423.315C21.4033 402.381 29.7198 381.453 40.8287 362.004C51.7985 342.7 65.5635 325.124 81.6769 309.848C96.482 295.639 113.57 284.018 132.227 275.472C151.7 266.785 172.822 262.414 194.144 262.658C238.156 262.944 280.001 281.567 315.276 306.845C354.524 334.97 385.744 371.927 420.929 404.761C455.72 437.251 496.086 463.63 541.256 479.191C580.193 492.612 622.705 504.968 664.018 496.087C682.365 491.833 699.999 484.942 716.368 475.629C736.246 464.677 755.102 451.964 772.708 437.643C842.953 380.759 890.322 300.69 912.696 213.613C915.298 203.516 917.898 190.518 927.712 184.901C929.176 184.062 927.632 181.973 926.103 182.727L926.107 182.763Z" fill="#632DAA"/>
<path d="M929.45 181.613C921.233 186.73 918.005 196.566 915.597 205.451C912.376 217.424 909.84 229.54 906.513 241.561C899.806 265.024 891.275 287.927 881 310.061C861.63 352.294 835.434 391.047 803.464 424.764C786.547 442.453 767.954 458.46 747.947 472.561C730.176 485.563 710.884 496.346 690.498 504.671C670.581 512.59 649.106 515.812 627.741 514.087C604.18 512.08 581.307 505.42 559.19 497.427C512.281 480.356 469.398 453.792 433.221 419.396C396.577 384.871 365.432 344.876 327.326 311.86C292.98 282.088 252.357 257.17 206.983 249.31C186.822 245.591 166.123 245.907 146.085 250.239C126.668 254.923 108.32 263.259 92.0178 274.8C55.946 300.026 31.4612 337.327 15.3839 377.725C-0.890594 418.666 -9.88527 463.074 -31.2433 501.854C-35.9366 510.493 -41.5604 518.594 -48.0145 526.011C-49.0684 527.342 -47.0054 528.943 -45.9677 527.633C-32.8264 512.725 -23.8598 494.677 -16.4688 476.348C-8.19928 455.815 -1.78415 434.68 5.2716 413.62C12.5562 391.808 20.2852 369.981 31.043 349.588C41.4274 329.645 54.8719 311.453 70.8876 295.672C86.3549 280.421 104.59 268.263 124.615 259.848C144.746 251.749 166.446 248.305 188.095 249.772C233.62 252.522 275.99 274.226 311.362 301.945C351.294 333.244 383.147 372.934 418.754 408.768C453.271 443.539 493.115 473.436 538.632 492.302C578.743 508.952 624.443 523.633 667.956 514.33C687.127 509.841 705.484 502.401 722.37 492.275C742.601 480.556 761.673 466.942 779.329 451.616C813.718 421.558 842.807 385.93 865.38 346.224C889.245 304.7 905.439 259.865 916.308 213.343C918.746 202.948 921.239 189.666 930.997 183.571C932.436 182.68 930.872 180.575 929.371 181.418L929.45 181.613Z" fill="#632DAA"/>
<path d="M932.686 180.345C924.158 186.149 921.028 196.828 918.733 206.37C915.644 218.68 913.441 231.259 910.283 243.615C903.946 268.406 895.758 292.687 885.789 316.253C867.437 360.185 842.07 400.844 810.679 436.641C793.293 456.269 773.871 473.993 752.739 489.515C734.736 502.737 715.493 514.876 694.657 523.055C674.15 531.299 651.935 534.393 629.956 532.065C605.87 529.375 582.495 521.751 560.147 512.577C511.555 492.673 468.833 462.162 432.004 424.927C395.175 387.692 363.285 345.441 325.089 309.554C290.694 277.278 250.215 249.444 203.819 238.375C183.114 233.203 161.58 232.255 140.501 235.589C120.565 239.262 101.615 247.056 84.8637 258.473C46.9698 283.854 22.4715 323.444 7.21858 365.66C-8.27167 408.554 -16.0556 454.589 -36.0929 495.78C-40.5324 505.087 -45.9471 513.896 -52.2463 522.059C-52.4613 522.331 -52.5597 522.677 -52.5198 523.021C-52.4799 523.365 -52.305 523.679 -52.0336 523.894C-51.7621 524.109 -51.4164 524.207 -51.0724 524.167C-50.7285 524.127 -50.4145 523.952 -50.1995 523.681C-37.3307 507.225 -28.8926 487.826 -21.9644 468.23C-14.2191 446.383 -8.29152 423.929 -1.68583 401.712C11.6297 356.895 28.6685 312.929 62.8949 279.646C78.4178 264.332 96.9445 252.399 117.307 244.599C138.484 236.92 161.191 234.427 183.529 237.327C230.968 242.959 273.878 268.355 309.517 299.018C349.783 333.68 382.171 376.058 418.395 414.646C452.815 451.306 492.009 483.452 537.383 505.57C559.164 516.339 582.049 524.716 605.635 530.554C627.221 535.728 649.309 537.534 671.174 532.935C690.982 528.398 709.891 520.575 727.116 509.792C748.102 497.145 767.742 482.386 785.726 465.744C820.045 433.727 848.699 396.133 870.472 354.555C893.84 310.505 909.347 263.426 919.511 214.681C921.824 203.688 924.161 189.383 934.205 182.548C935.604 181.624 934.04 179.519 932.58 180.395L932.686 180.345Z" fill="#632DAA"/>
<path d="M935.902 179.229C927.538 185.329 924.458 195.947 922.228 205.574C919.143 218.72 917.091 232.119 914.084 245.293C908.107 271.357 900.254 296.955 890.587 321.887C873.074 367.826 848.293 410.653 817.192 448.73C800.08 469.369 780.781 488.092 759.633 504.571C741.359 518.809 721.598 531.938 700.145 540.728C679.316 549.542 656.564 552.827 634.093 550.266C609.181 547.188 585.071 538.516 562.29 528.165C512.652 505.502 469.348 471.731 432.14 432.03C394.449 391.847 361.984 347.042 323.184 307.879C288.191 272.531 246.875 241.003 198.454 227.064C177.371 220.677 155.198 218.693 133.316 221.236C112.674 224.13 92.9568 231.666 75.6473 243.278C36.9225 268.867 13.1778 309.986 -1.04656 353.217C-15.7765 398.179 -22.458 446.186 -41.2522 489.761C-45.4379 499.64 -50.6018 509.075 -56.6666 517.925C-57.7043 519.235 -55.6737 520.877 -54.6197 519.547C-42.4246 502.091 -34.6543 482.063 -28.2675 461.805C-21.1823 439.235 -15.8287 416.16 -9.77728 393.171C2.41537 346.365 18.1157 299.673 53.2928 264.812C68.9348 249.078 87.914 237.062 108.826 229.653C131.079 222.35 154.809 220.748 177.842 224.994C227.08 233.317 270.662 262.111 306.678 295.537C347.482 333.389 380.531 378.423 417.425 419.908C452.703 459.479 492.557 494.746 539.413 519.87C561.371 531.896 584.653 541.328 608.79 547.977C630.647 553.732 653.144 555.863 675.445 551.176C695.587 546.494 714.757 538.333 732.092 527.059C753.451 513.687 773.312 498.06 791.335 480.447C826.192 446.019 854.846 405.834 876.036 361.661C898.873 314.959 913.116 265.313 923.082 214.379C925.361 203.092 927.538 188.527 937.531 181.252C937.819 181.039 938.011 180.72 938.064 180.365C938.117 180.01 938.026 179.649 937.813 179.361C937.6 179.072 937.281 178.881 936.926 178.828C936.571 178.775 936.21 178.865 935.922 179.078L935.902 179.229Z" fill="#632DAA"/>
<path d="M939.281 177.908C930.748 184.474 927.865 195.515 925.634 205.607C922.645 219.262 920.783 233.178 917.929 246.873C912.23 274.342 904.634 301.384 895.196 327.802C877.996 375.672 854.294 421.489 822.825 461.553C805.866 483.326 786.53 503.137 765.176 520.62C746.489 535.799 726.309 549.794 704.091 559.044C682.458 568.284 658.691 571.362 635.418 567.938C609.483 564.05 584.802 553.827 561.594 542.038C510.967 516.292 467.486 478.75 429.992 436.425C392.498 394.099 359.481 347.258 320.666 305.718C285.207 267.636 243.53 232.989 193.606 216.028C172.348 208.491 149.781 205.348 127.272 206.788C105.8 208.675 85.1217 215.816 67.0613 227.582C26.6746 253.586 3.51264 297.166 -9.72871 342.142C-23.5917 389.29 -28.9558 439.04 -46.919 484.972C-50.7389 494.975 -55.4848 504.598 -61.0949 513.718C-61.9731 515.121 -59.9425 516.763 -59.048 515.339C-47.4454 496.781 -40.1927 475.976 -34.3397 454.962C-27.6695 430.898 -22.7795 406.39 -17.1551 381.963C-6.02654 333.515 8.67136 284.43 45.1531 248.636C61.177 232.565 80.8966 220.666 102.585 213.982C125.72 207.566 150.112 207.175 173.441 212.846C224.358 224.264 268.372 256.465 304.727 292.659C345.45 333.179 378.896 380.193 415.993 423.903C451.802 466.127 492.193 504.585 540.039 532.958C580.519 556.963 630.268 579.149 678.328 569.616C699.477 565.415 719.157 555.921 737.138 544.281C758.948 530.108 779.097 513.53 797.207 494.859C832.513 458.7 860.261 415.555 881.164 369.654C892.173 345.334 901.427 320.259 908.857 294.618C916.261 267.997 922.263 241.007 926.84 213.757C928.986 202.132 931.147 187.588 941.015 179.882C942.344 178.835 940.78 176.73 939.406 177.707L939.281 177.908Z" fill="#632DAA"/>
<path d="M942.562 176.709C934.101 183.732 931.232 195.217 929.022 205.492C926.053 219.796 924.401 234.245 921.611 248.491C916.245 277.112 908.982 305.346 899.87 333.004C883.248 383.13 860.051 431.379 828.695 473.865C811.839 496.811 792.431 517.77 770.846 536.338C751.851 552.538 730.986 567.523 707.898 577.283C685.564 586.948 660.879 589.824 636.922 585.552C610.75 580.743 585.991 569.525 562.921 556.68C511.313 527.925 467.376 487.258 429.332 442.431C391.288 397.604 357.612 348.609 318.551 304.309C282.532 263.485 240.595 225.634 189.257 205.454C167.567 196.533 144.278 192.155 120.83 192.59C98.4726 193.474 76.7487 200.265 57.8689 212.272C16.4107 238.494 -5.89781 283.982 -18.1107 329.972C-31.2288 379.376 -35.3881 431.18 -52.3404 479.579C-55.9524 490.056 -60.4664 500.201 -65.8317 509.899C-66.6485 511.35 -64.2457 512.354 -63.3471 510.967C-52.0776 490.98 -45.3943 468.791 -40.0323 446.589C-33.9751 421.406 -29.7067 395.706 -24.5272 370.327C-14.5824 320.808 -0.995472 269.677 36.1186 233.085C52.3667 216.837 72.5996 205.144 94.7901 199.179C119.293 192.805 145.248 194.777 169.431 201.675C222.208 216.632 266.742 252.509 303.602 291.934C344.126 335.228 377.941 384.133 415.394 429.958C451.486 474.137 491.933 515.005 539.943 546.074C562.663 561.217 587.237 573.373 613.061 582.241C635.375 589.523 658.742 592.743 681.965 588.153C703.754 583.86 723.842 573.723 742.164 561.487C764.607 546.41 785.193 528.736 803.494 508.833C838.907 470.561 866.036 425.127 886.315 377.198C896.834 352.138 905.641 326.394 912.676 300.142C919.89 271.918 925.677 243.348 930.016 214.541C931.997 202.452 934.089 187.153 944.109 178.835C945.397 177.756 943.854 175.667 942.484 176.681L942.562 176.709Z" fill="#632DAA"/>
<path d="M945.859 175.491C937.124 183.195 934.21 195.411 932.158 206.411C929.395 221.212 927.796 236.268 925.237 251.063C920.019 281.362 912.854 311.294 903.789 340.672C887.721 392.37 865.181 442.439 834.133 486.933C817.229 511.31 797.495 533.596 775.344 553.326C756.027 570.437 734.579 586.326 710.624 596.298C687.63 606.039 662.183 608.412 637.785 603.092C610.302 597.078 584.547 583.838 560.794 569.121C509.584 537.382 466.15 494.482 428.282 447.962C389.618 400.679 355.566 349.72 316.232 302.905C279.74 259.441 237.531 218.61 184.97 195.263C162.934 185.044 139.045 179.428 114.764 178.758C91.9276 178.507 69.4722 184.619 49.9136 196.41C6.67337 222.652 -15.1046 270.793 -26.3804 318.292C-38.6802 369.943 -41.685 423.527 -57.5614 474.31C-60.8859 485.143 -65.1175 495.675 -70.2111 505.797C-70.9869 507.281 -68.5637 508.301 -67.7265 506.866C-56.8387 485.509 -50.6627 462.153 -45.7832 438.835C-40.3178 412.718 -36.514 386.216 -32.0073 360.005C-23.212 308.909 -10.9295 255.345 27.3161 217.451C43.9796 200.7 65.0888 189.067 88.1509 183.926C113.385 178.565 139.705 181.925 164.016 189.923C218.267 207.814 263.203 246.674 300.589 288.715C341.313 334.532 375.679 385.473 413.495 433.617C450.161 480.351 491.01 524.035 539.802 558.321C562.37 574.683 586.925 588.112 612.877 598.285C635.417 606.712 659.396 611.05 683.421 606.963C706.166 603.061 727.077 592.475 745.99 579.575C769.055 563.588 790.052 544.807 808.503 523.661C844.107 483.341 870.83 435.687 890.605 385.827C900.997 359.44 909.633 332.396 916.458 304.871C923.921 275.138 928.711 245.121 933.256 214.909C935.185 202.38 937.181 186.572 947.268 177.706C948.515 176.595 946.988 174.486 945.659 175.532L945.859 175.491Z" fill="#632DAA"/>
<path d="M949.177 174.288C940.009 182.749 937.259 196.061 935.281 207.852C932.455 224.036 930.969 240.547 928.339 256.819C923.15 289.252 915.866 321.315 906.535 352.808C890.197 407.79 866.769 461.252 833.784 508.443C819.087 529.573 802.267 549.144 783.586 566.85C765.183 584.152 744.716 600.319 721.812 611.191C697.866 623.283 670.536 626.931 644.256 621.543C614.917 615.224 587.753 600.103 562.997 583.624C510.016 548.318 465.472 501.94 426.34 452.053C387.523 402.483 352.891 349.733 313.37 300.672C277.305 255.913 236.08 213.63 184.376 187.097C143.887 166.217 95.1346 155.514 52.0593 175.324C3.36414 197.645 -21.3814 248.565 -32.9036 298.267C-45.7769 353.628 -47.2295 411.14 -62.0459 466.094C-65.2426 478.329 -69.466 490.273 -74.6712 501.798C-75.3695 503.31 -72.9829 504.334 -72.1866 502.866C-61.2453 479.087 -55.4524 453.229 -50.9757 427.56C-46.0386 399.292 -42.7869 370.754 -38.417 342.402C-30.0678 288.421 -16.6313 229.742 27.8743 193.576C47.0213 177.97 70.639 168.863 95.3068 167.576C118.477 166.376 141.662 171.716 163.064 180.275C216.57 201.673 260.252 241.905 297.114 285.196C337.827 333.003 372.528 385.542 410.344 435.618C448.423 486.036 490.554 533.567 541.305 571.604C583.564 603.247 637.717 636.317 692.726 624.36C716.924 619.044 738.819 606.374 758.437 591.534C777.813 576.784 795.565 560.014 811.391 541.506C846.99 500.183 873.504 451.53 893.047 400.786C903.838 372.457 912.724 343.439 919.646 313.925C927.317 281.659 932.123 249.056 936.643 216.226C938.488 202.964 940.278 186.027 950.704 176.397C951.93 175.27 950.403 173.161 949.095 174.223L949.177 174.288Z" fill="#632DAA"/>
</svg>
